<?xml version="1.0" encoding="UTF-8"?>
<svg version="1.1" xmlns="http://www.w3.org/2000/svg" width="512" height="512">
<path d="M0 0 C0.97812346 -0.00453111 1.95624691 -0.00906223 2.96401048 -0.01373065 C6.23877078 -0.02638225 9.51336494 -0.02475376 12.78814697 -0.02310181 C15.13731093 -0.02908661 17.48647292 -0.03589204 19.83563232 -0.04345703 C26.21592079 -0.06112994 32.59615561 -0.06581299 38.97646618 -0.0670886 C43.63272544 -0.06874866 48.28897277 -0.07454809 52.94522782 -0.08076156 C65.47105775 -0.09736719 77.99685927 -0.10484666 90.5226998 -0.10342209 C91.23355909 -0.10334218 91.94441837 -0.10326227 92.67681885 -0.10317993 C93.744416 -0.10305729 93.744416 -0.10305729 94.83358076 -0.10293217 C106.36278305 -0.10211963 117.89185457 -0.12125039 129.42101905 -0.14945666 C141.27057663 -0.17821704 153.12007051 -0.1919952 164.96966386 -0.19026911 C171.61766058 -0.18960625 178.26553684 -0.19544412 184.91350555 -0.21662521 C191.168021 -0.23600845 197.42224735 -0.23613113 203.67677307 -0.22159195 C205.96886366 -0.21950283 208.26097233 -0.22421081 210.55303192 -0.23631287 C213.68933832 -0.25179639 216.8246518 -0.24243595 219.9609375 -0.22705078 C221.31184719 -0.24248147 221.31184719 -0.24248147 222.69004798 -0.25822389 C231.42692654 -0.16393163 239.25614393 2.5430065 245.70318604 8.56430054 C251.84904466 15.40000043 254.48177732 22.53137459 254.49170494 31.72448349 C254.49521102 32.45778802 254.49871709 33.19109256 254.50232941 33.94661844 C254.51163735 36.40517208 254.50672168 38.86348854 254.50186157 41.322052 C254.50559814 43.10201913 254.51019969 44.88198461 254.51559222 46.66194749 C254.52783687 51.55458394 254.52756002 56.44715208 254.52520347 61.33980036 C254.52479567 66.61601982 254.53583092 71.89221728 254.5453186 77.16842651 C254.56193773 87.50622282 254.56742857 97.84399632 254.56854336 108.18180487 C254.56949342 116.58451679 254.57360163 124.98722118 254.57994461 133.38993073 C254.59755969 157.2096413 254.60678309 181.02933384 254.60528366 204.84905097 C254.60520375 206.1334134 254.60512384 207.41777584 254.6050415 208.74105835 C254.60495974 210.02698782 254.60487798 211.31291729 254.60479374 212.63781431 C254.60398082 233.47878956 254.62311943 254.31969254 254.65131824 275.16064689 C254.68003962 296.55654507 254.69385893 317.95240801 254.69213068 339.34832597 C254.69146652 351.3618743 254.69697063 363.37534689 254.71848679 375.38887787 C254.73668876 385.6175658 254.74105398 395.84614364 254.72746794 406.07484075 C254.72093331 411.29328505 254.7208391 416.51151806 254.73817444 421.72994232 C254.75388813 426.50938124 254.7510588 431.28844107 254.73360617 436.06787065 C254.73053254 437.79464279 254.73418236 439.52144311 254.74532633 441.24818203 C254.81476421 452.77299153 254.19541257 462.89443551 245.93756104 471.73617554 C238.29193012 478.61022902 230.53245067 480.5691204 220.46887207 480.53485107 C219.49074861 480.53938219 218.51262516 480.5439133 217.50486159 480.54858172 C214.23010129 480.56123332 210.95550713 480.55960483 207.6807251 480.55795288 C205.33156114 480.56393768 202.98239915 480.57074311 200.63323975 480.57830811 C194.25295128 480.59598102 187.87271646 480.60066406 181.49240589 480.60193968 C176.83614663 480.60359974 172.1798993 480.60939916 167.52364425 480.61561263 C154.99781432 480.63221826 142.4720128 480.63969774 129.94617227 480.63827316 C129.23531298 480.63819325 128.5244537 480.63811334 127.79205322 480.63803101 C126.72445607 480.63790836 126.72445607 480.63790836 125.63529131 480.63778324 C114.10608903 480.6369707 102.5770175 480.65610147 91.04785302 480.68430774 C79.19829544 480.71306812 67.34880156 480.72684627 55.49920821 480.72512019 C48.85121149 480.72445732 42.20333523 480.73029519 35.55536652 480.75147629 C29.30085107 480.77085952 23.04662472 480.77098221 16.792099 480.75644302 C14.50000842 480.75435391 12.20789974 480.75906189 9.91584015 480.77116394 C6.77953375 480.78664747 3.64422027 480.77728702 0.50793457 480.76190186 C-0.39267189 480.77218898 -1.29327835 480.78247611 -2.22117591 480.79307497 C-10.96794234 480.69867599 -18.76235949 477.98103841 -25.23431396 471.98226929 C-27.88005398 469.01931045 -29.80805679 465.7058932 -31.76556396 462.26742554 C-32.75556396 460.78242554 -32.75556396 460.78242554 -33.76556396 459.26742554 C-34.51579834 459.99187866 -35.26603271 460.71633179 -36.03900146 461.46273804 C-50.35722093 475.08153132 -63.66384685 480.92677134 -83.6317749 480.7215271 C-85.19017508 480.72039623 -86.74857737 480.72103714 -88.30697632 480.72329712 C-92.50053793 480.72443587 -96.69363365 480.70106405 -100.88708782 480.67300129 C-105.28326182 480.64784635 -109.67944873 480.6456346 -114.07568359 480.64089966 C-122.38397191 480.62851102 -130.69204747 480.59574561 -139.00024247 480.5555017 C-150.23880882 480.50225536 -161.47743413 480.48080526 -172.71609497 480.45749283 C-190.39941038 480.41998081 -208.08227703 480.34026287 -225.76556396 480.26742554 C-225.76556396 442.97742554 -225.76556396 405.68742554 -225.76556396 367.26742554 C-216.52556396 365.28742554 -207.28556396 363.30742554 -197.76556396 361.26742554 C-187.38276768 356.65284941 -182.02881183 353.42605822 -175.82806396 344.39242554 C-175.28013184 343.61431519 -174.73219971 342.83620483 -174.16766357 342.03451538 C-172.355042 339.45360182 -170.55997437 336.86102714 -168.76556396 334.26742554 C-167.46421279 332.40233114 -166.16211269 330.53775909 -164.85931396 328.67367554 C-159.53076216 321.03690612 -154.21822458 313.38946676 -148.95306396 305.70883179 C-140.14132952 292.89698739 -132.03553231 282.29423841 -118.89788818 273.68588257 C-114.4482478 270.72590883 -110.08469884 267.63921262 -105.70306396 264.57992554 C-103.7083759 263.19175583 -101.71358364 261.80373582 -99.71868896 260.41586304 C-92.57365953 255.43944533 -85.43945182 250.44762795 -78.30853271 245.45101929 C-77.56909424 244.93523315 -76.82965576 244.41944702 -76.06781006 243.88803101 C-74.44191761 242.74352686 -72.82592968 241.58488989 -71.21722412 240.41635132 C-70.36305908 239.80130737 -69.50889404 239.18626343 -68.62884521 238.55258179 C-67.48282837 237.71739014 -67.48282837 237.71739014 -66.31365967 236.86532593 C-58.98184838 232.26757707 -53.3731306 231.87306173 -44.82806396 232.07992554 C-43.76265381 232.09346069 -42.69724365 232.10699585 -41.59954834 232.12094116 C-38.98768808 232.1560783 -36.37689763 232.20527369 -33.76556396 232.26742554 C-33.76925114 231.20466715 -33.77293831 230.14190876 -33.77673721 229.04694557 C-33.86558286 203.1733473 -33.93128952 177.29976884 -33.97281265 151.42605019 C-33.99342727 138.91364746 -34.02152702 126.40134557 -34.06732178 113.88900757 C-34.10722301 102.98172607 -34.13300477 92.07451762 -34.14191794 81.16716516 C-34.14712707 75.39317746 -34.15934785 69.61939871 -34.18848419 63.84547806 C-34.21570502 58.40690867 -34.2239954 52.96863363 -34.21799469 47.53000259 C-34.21909194 45.53784077 -34.22700586 43.54566874 -34.24238586 41.55356598 C-34.33303188 29.20312918 -34.39655059 18.3578001 -25.46868896 8.79867554 C-17.82305805 1.92462206 -10.0635786 -0.03426932 0 0 Z M-39.18353271 291.79476929 C-40.56170166 292.60615356 -40.56170166 292.60615356 -41.9677124 293.43392944 C-42.95287842 294.01835815 -43.93804443 294.60278687 -44.95306396 295.20492554 C-46.44434814 296.08930298 -46.44434814 296.08930298 -47.96575928 296.99154663 C-53.68658594 300.3986538 -59.39175954 303.82698706 -65.01556396 307.39242554 C-66.09322021 308.07562866 -67.17087646 308.75883179 -68.28118896 309.46273804 C-71.10548408 311.51434864 -72.4796327 313.19018757 -73.38148499 316.58789062 C-73.79500826 319.4728443 -73.89989166 322.22535075 -73.91082764 325.13998413 C-73.91720749 326.298237 -73.92358734 327.45648987 -73.93016052 328.64984131 C-73.93127335 329.89262848 -73.93238617 331.13541565 -73.93353271 332.41586304 C-73.93686111 333.70175323 -73.94018951 334.98764343 -73.94361877 336.3125 C-73.94959375 339.03088216 -73.95146036 341.74923259 -73.9508667 344.46762085 C-73.95076517 347.93637593 -73.96441506 351.4049259 -73.98163891 354.87363243 C-73.99548763 358.20021213 -73.99484905 361.52675492 -73.99603271 364.85336304 C-74.00321823 366.09210175 -74.01040375 367.33084045 -74.01780701 368.6071167 C-74.08641422 378.98071014 -74.08641422 378.98071014 -69.64056396 388.07992554 C-66.22920442 390.67552519 -63.11589795 392.32763777 -58.76556396 392.26742554 C-52.70422838 390.30725615 -48.67916465 386.95263397 -44.01556396 382.70492554 C-42.70949104 381.5355941 -41.40224476 380.36757157 -40.09368896 379.20101929 C-39.52553467 378.68595825 -38.95738037 378.17089722 -38.37200928 377.64022827 C-36.76556396 376.26742554 -36.76556396 376.26742554 -33.76556396 374.26742554 C-33.47928094 371.51584884 -33.38729353 368.99021922 -33.42498779 366.23764038 C-33.42454971 365.40829483 -33.42411163 364.57894928 -33.42366028 363.72447205 C-33.42575499 360.97553186 -33.44911783 358.22719704 -33.47259521 355.47836304 C-33.47818875 353.57550388 -33.48245999 351.67264041 -33.48545837 349.76977539 C-33.49692624 344.75550459 -33.52641006 339.74149347 -33.55957031 334.72732544 C-33.59022942 329.61312371 -33.6039548 324.49888013 -33.61907959 319.38461304 C-33.65127795 309.34543629 -33.70249768 299.30645248 -33.76556396 289.26742554 C-35.73101419 289.26742554 -37.54818992 290.83146336 -39.18353271 291.79476929 Z " fill="#F5F7FE" transform="translate(241.76556396484375,15.732574462890625)"/>
<path d="M0 0 C0.97812346 -0.00453111 1.95624691 -0.00906223 2.96401048 -0.01373065 C6.23877078 -0.02638225 9.51336494 -0.02475376 12.78814697 -0.02310181 C15.13731093 -0.02908661 17.48647292 -0.03589204 19.83563232 -0.04345703 C26.21592079 -0.06112994 32.59615561 -0.06581299 38.97646618 -0.0670886 C43.63272544 -0.06874866 48.28897277 -0.07454809 52.94522782 -0.08076156 C65.47105775 -0.09736719 77.99685927 -0.10484666 90.5226998 -0.10342209 C91.23355909 -0.10334218 91.94441837 -0.10326227 92.67681885 -0.10317993 C93.744416 -0.10305729 93.744416 -0.10305729 94.83358076 -0.10293217 C106.36278305 -0.10211963 117.89185457 -0.12125039 129.42101905 -0.14945666 C141.27057663 -0.17821704 153.12007051 -0.1919952 164.96966386 -0.19026911 C171.61766058 -0.18960625 178.26553684 -0.19544412 184.91350555 -0.21662521 C191.168021 -0.23600845 197.42224735 -0.23613113 203.67677307 -0.22159195 C205.96886366 -0.21950283 208.26097233 -0.22421081 210.55303192 -0.23631287 C213.68933832 -0.25179639 216.8246518 -0.24243595 219.9609375 -0.22705078 C221.31184719 -0.24248147 221.31184719 -0.24248147 222.69004798 -0.25822389 C231.42692654 -0.16393163 239.25614393 2.5430065 245.70318604 8.56430054 C251.84904466 15.40000043 254.48177732 22.53137459 254.49170494 31.72448349 C254.49521102 32.45778802 254.49871709 33.19109256 254.50232941 33.94661844 C254.51163735 36.40517208 254.50672168 38.86348854 254.50186157 41.322052 C254.50559814 43.10201913 254.51019969 44.88198461 254.51559222 46.66194749 C254.52783687 51.55458394 254.52756002 56.44715208 254.52520347 61.33980036 C254.52479567 66.61601982 254.53583092 71.89221728 254.5453186 77.16842651 C254.56193773 87.50622282 254.56742857 97.84399632 254.56854336 108.18180487 C254.56949342 116.58451679 254.57360163 124.98722118 254.57994461 133.38993073 C254.59755969 157.2096413 254.60678309 181.02933384 254.60528366 204.84905097 C254.60520375 206.1334134 254.60512384 207.41777584 254.6050415 208.74105835 C254.60495974 210.02698782 254.60487798 211.31291729 254.60479374 212.63781431 C254.60398082 233.47878956 254.62311943 254.31969254 254.65131824 275.16064689 C254.68003962 296.55654507 254.69385893 317.95240801 254.69213068 339.34832597 C254.69146652 351.3618743 254.69697063 363.37534689 254.71848679 375.38887787 C254.73668876 385.6175658 254.74105398 395.84614364 254.72746794 406.07484075 C254.72093331 411.29328505 254.7208391 416.51151806 254.73817444 421.72994232 C254.75388813 426.50938124 254.7510588 431.28844107 254.73360617 436.06787065 C254.73053254 437.79464279 254.73418236 439.52144311 254.74532633 441.24818203 C254.81476421 452.77299153 254.19541257 462.89443551 245.93756104 471.73617554 C238.29193012 478.61022902 230.53245067 480.5691204 220.46887207 480.53485107 C219.49074861 480.53938219 218.51262516 480.5439133 217.50486159 480.54858172 C214.23010129 480.56123332 210.95550713 480.55960483 207.6807251 480.55795288 C205.33156114 480.56393768 202.98239915 480.57074311 200.63323975 480.57830811 C194.25295128 480.59598102 187.87271646 480.60066406 181.49240589 480.60193968 C176.83614663 480.60359974 172.1798993 480.60939916 167.52364425 480.61561263 C154.99781432 480.63221826 142.4720128 480.63969774 129.94617227 480.63827316 C129.23531298 480.63819325 128.5244537 480.63811334 127.79205322 480.63803101 C126.72445607 480.63790836 126.72445607 480.63790836 125.63529131 480.63778324 C114.10608903 480.6369707 102.5770175 480.65610147 91.04785302 480.68430774 C79.19829544 480.71306812 67.34880156 480.72684627 55.49920821 480.72512019 C48.85121149 480.72445732 42.20333523 480.73029519 35.55536652 480.75147629 C29.30085107 480.77085952 23.04662472 480.77098221 16.792099 480.75644302 C14.50000842 480.75435391 12.20789974 480.75906189 9.91584015 480.77116394 C6.77953375 480.78664747 3.64422027 480.77728702 0.50793457 480.76190186 C-0.39267189 480.77218898 -1.29327835 480.78247611 -2.22117591 480.79307497 C-10.96794234 480.69867599 -18.76235949 477.98103841 -25.23431396 471.98226929 C-27.88005398 469.01931045 -29.80805679 465.7058932 -31.76556396 462.26742554 C-32.75556396 460.78242554 -32.75556396 460.78242554 -33.76556396 459.26742554 C-34.51579834 459.99187866 -35.26603271 460.71633179 -36.03900146 461.46273804 C-50.35722093 475.08153132 -63.66384685 480.92677134 -83.6317749 480.7215271 C-85.19017508 480.72039623 -86.74857737 480.72103714 -88.30697632 480.72329712 C-92.50053793 480.72443587 -96.69363365 480.70106405 -100.88708782 480.67300129 C-105.28326182 480.64784635 -109.67944873 480.6456346 -114.07568359 480.64089966 C-122.38397191 480.62851102 -130.69204747 480.59574561 -139.00024247 480.5555017 C-150.23880882 480.50225536 -161.47743413 480.48080526 -172.71609497 480.45749283 C-190.39941038 480.41998081 -208.08227703 480.34026287 -225.76556396 480.26742554 C-225.76556396 442.97742554 -225.76556396 405.68742554 -225.76556396 367.26742554 C-216.52556396 365.28742554 -207.28556396 363.30742554 -197.76556396 361.26742554 C-187.38276768 356.65284941 -182.02881183 353.42605822 -175.82806396 344.39242554 C-175.28013184 343.61431519 -174.73219971 342.83620483 -174.16766357 342.03451538 C-172.355042 339.45360182 -170.55997437 336.86102714 -168.76556396 334.26742554 C-167.46421279 332.40233114 -166.16211269 330.53775909 -164.85931396 328.67367554 C-159.53076216 321.03690612 -154.21822458 313.38946676 -148.95306396 305.70883179 C-140.14132952 292.89698739 -132.03553231 282.29423841 -118.89788818 273.68588257 C-114.4482478 270.72590883 -110.08469884 267.63921262 -105.70306396 264.57992554 C-103.7083759 263.19175583 -101.71358364 261.80373582 -99.71868896 260.41586304 C-92.57365953 255.43944533 -85.43945182 250.44762795 -78.30853271 245.45101929 C-77.56909424 244.93523315 -76.82965576 244.41944702 -76.06781006 243.88803101 C-74.44191761 242.74352686 -72.82592968 241.58488989 -71.21722412 240.41635132 C-70.36305908 239.80130737 -69.50889404 239.18626343 -68.62884521 238.55258179 C-67.48282837 237.71739014 -67.48282837 237.71739014 -66.31365967 236.86532593 C-58.98184838 232.26757707 -53.3731306 231.87306173 -44.82806396 232.07992554 C-43.76265381 232.09346069 -42.69724365 232.10699585 -41.59954834 232.12094116 C-38.98768808 232.1560783 -36.37689763 232.20527369 -33.76556396 232.26742554 C-33.76925114 231.20466715 -33.77293831 230.14190876 -33.77673721 229.04694557 C-33.86558286 203.1733473 -33.93128952 177.29976884 -33.97281265 151.42605019 C-33.99342727 138.91364746 -34.02152702 126.40134557 -34.06732178 113.88900757 C-34.10722301 102.98172607 -34.13300477 92.07451762 -34.14191794 81.16716516 C-34.14712707 75.39317746 -34.15934785 69.61939871 -34.18848419 63.84547806 C-34.21570502 58.40690867 -34.2239954 52.96863363 -34.21799469 47.53000259 C-34.21909194 45.53784077 -34.22700586 43.54566874 -34.24238586 41.55356598 C-34.33303188 29.20312918 -34.39655059 18.3578001 -25.46868896 8.79867554 C-17.82305805 1.92462206 -10.0635786 -0.03426932 0 0 Z M-20.14056396 16.70492554 C-20.78767334 17.44613647 -21.43478271 18.18734741 -22.10150146 18.95101929 C-25.20160314 23.26641904 -26.01553118 26.93706476 -26.01165962 32.20818806 C-26.01564172 33.40598119 -26.01962382 34.60377432 -26.02372658 35.83786422 C-26.0179009 37.15011338 -26.01207522 38.46236254 -26.006073 39.81437683 C-26.00694521 41.22524982 -26.00869649 42.63612249 -26.01125133 44.04699343 C-26.01572576 47.92367483 -26.00771987 51.80024582 -25.99769521 55.67691314 C-25.9890644 59.85750505 -25.99198061 64.03809065 -25.99349976 68.21868896 C-25.99454884 75.4617695 -25.98826978 82.70481403 -25.97702408 89.94788551 C-25.96077523 100.42016723 -25.9555617 110.89243152 -25.9530481 121.36472448 C-25.94867003 138.35500645 -25.93535788 155.34526922 -25.91644287 172.33554077 C-25.89808697 188.84074813 -25.88392904 205.34595027 -25.87542725 221.85116577 C-25.8749018 222.86841765 -25.87437635 223.88566952 -25.87383498 224.93374721 C-25.87122492 230.0369623 -25.8686975 235.14017743 -25.86621118 240.24339259 C-25.84547519 282.5847502 -25.81024661 324.92608688 -25.76556396 367.26742554 C-24.50191754 366.32743149 -23.23935316 365.38598274 -21.97723389 364.44393921 C-21.27402512 363.91982956 -20.57081635 363.39571991 -19.84629822 362.85572815 C-16.82051369 360.54603316 -13.94731813 358.07944128 -11.07806396 355.57992554 C-9.85960371 354.52750665 -8.6408468 353.47543114 -7.42181396 352.42367554 C-6.50915771 351.63476929 -6.50915771 351.63476929 -5.57806396 350.82992554 C-0.67435583 346.60259094 4.27624525 342.4305988 9.23443604 338.26742554 C10.2051001 337.45015991 11.17576416 336.63289429 12.17584229 335.79086304 C29.93346591 321.02165729 29.93346591 321.02165729 39.28852844 321.01345825 C40.2824913 321.0078186 41.27645416 321.00217896 42.30053711 320.99636841 C43.3796637 321.00041687 44.45879028 321.00446533 45.57061768 321.00863647 C46.71584396 321.00513184 47.86107025 321.0016272 49.04100037 320.99801636 C52.8255927 320.9892155 56.60999805 320.99504214 60.39459229 321.00180054 C63.02345312 321.00045351 65.65231372 320.99851266 68.28117371 320.9960022 C73.78978502 320.99236684 79.29834264 320.99715087 84.8069458 321.00668335 C91.17300752 321.01757251 97.53894117 321.0140373 103.90499979 321.00303054 C110.03406475 320.99285831 116.16307298 320.99393817 122.29214287 320.99979401 C124.89850317 321.00112985 127.50486673 320.99948509 130.11122322 320.9948349 C133.75012045 320.98976702 137.38877018 320.99748366 141.02764893 321.00863647 C142.10879974 321.00458801 143.18995056 321.00053955 144.30386353 320.99636841 C145.29500656 321.00200806 146.2861496 321.00764771 147.30732727 321.01345825 C148.16731858 321.0142123 149.02730989 321.01496635 149.91336155 321.01574326 C152.46451256 321.29237355 154.07207981 321.90051096 156.23443604 323.26742554 C157.82932372 326.4572009 157.39744758 329.91248383 157.40240479 333.41586304 C157.40573318 334.22480011 157.40906158 335.03373718 157.41249084 335.8671875 C157.4175579 337.58034699 157.41989924 339.29351637 157.41973877 341.00668335 C157.42192152 343.62501362 157.44006897 346.24292007 157.45904541 348.86117554 C157.46198014 350.5252366 157.4639644 352.18929966 157.46490479 353.85336304 C157.4720903 354.63577362 157.47927582 355.4181842 157.48667908 356.2243042 C157.45678464 363.35640325 157.45678464 363.35640325 155.23443604 366.26742554 C151.36021591 367.55883224 147.7178776 367.37087846 143.6831665 367.32992554 C141.87244798 367.32047965 140.06172808 367.31129606 138.25100708 367.30233765 C137.29021114 367.2960434 136.32941521 367.28974915 135.33950424 367.28326416 C130.24719604 367.25627006 125.15492077 367.26617248 120.06256104 367.27133179 C113.58401166 367.27753531 107.10633399 367.27228102 100.62799072 367.21615601 C95.39151492 367.17176901 90.15664295 367.17140814 84.92007828 367.20028687 C82.92905856 367.20335933 80.93794589 367.19054726 78.94713974 367.16122437 C68.06452449 366.68984201 68.06452449 366.68984201 58.09631348 370.21908569 C55.85560426 372.45200223 54.07498161 374.70430866 52.23443604 377.26742554 C50.93360117 378.47022125 49.60407653 379.64360446 48.23443604 380.76742554 C44.44224844 384.01787204 40.96308073 387.52192123 37.45709229 391.07601929 C34.80742164 393.68843622 32.02270801 396.10045175 29.19927979 398.52133179 C26.41881772 400.99223943 23.84325386 403.64909494 21.23443604 406.29867554 C18.67138375 408.82168013 15.9609778 411.14305371 13.23443604 413.48617554 C11.15106525 415.34167764 9.19162397 417.27965654 7.23443604 419.26742554 C4.03414082 422.51772537 0.69219028 425.51466799 -2.76556396 428.48617554 C-5.55167492 430.96755561 -8.13728076 433.62926755 -10.75384521 436.28695679 C-12.75818213 438.26015837 -14.82605289 440.11524054 -16.95306396 441.95492554 C-17.60404053 442.52855835 -18.25501709 443.10219116 -18.92572021 443.69320679 C-20.5324916 445.06800268 -22.20695329 446.36288143 -23.89056396 447.64242554 C-25.98382722 450.5729941 -26.06804235 451.1052869 -25.57806396 454.51742554 C-23.7538675 460.69083617 -19.5275353 465.913093 -14.07676983 469.3243137 C-8.97121711 472.07558122 -4.94323411 472.84162604 0.81134033 472.76863098 C1.63740878 472.77416538 2.46347723 472.77969977 3.31457806 472.78540188 C6.06291631 472.79893771 8.81033522 472.78407798 11.55865479 472.76913452 C13.53698104 472.77292027 15.51530464 472.77842242 17.49362183 472.7855072 C22.85313162 472.79944561 28.2123198 472.78830322 33.57181168 472.77179599 C39.18681324 472.75792376 44.80179655 472.76440805 50.41680908 472.76792908 C59.84532846 472.77062947 69.27372042 472.75717018 78.70220947 472.73397827 C89.59496307 472.70736968 100.48750363 472.70562212 111.38027859 472.71736664 C121.86893368 472.72815468 132.35751189 472.72194926 142.84616089 472.70781136 C147.30530622 472.70206049 151.76439512 472.70212718 156.22354126 472.70687675 C161.47672978 472.71165736 166.72968574 472.70149985 171.98283005 472.6799221 C173.90808706 472.67436884 175.8333665 472.67387549 177.75862503 472.67887497 C180.39184997 472.68485417 183.02437015 472.67227244 185.65753174 472.65510559 C186.4147436 472.66111564 187.17195547 472.66712568 187.95211315 472.67331785 C194.87274112 472.5915849 201.15453296 470.77809754 206.48443604 466.14242554 C207.10834229 465.62422241 207.73224854 465.10601929 208.37506104 464.57211304 C215.29590962 455.9937503 214.80435697 446.51465642 214.74909973 436.04185486 C214.75442854 434.27991862 214.76149615 432.51798694 214.77014679 430.75606388 C214.78875662 425.92713406 214.78247482 421.09851128 214.77199376 416.2695688 C214.76499708 411.05678098 214.78100324 405.84405593 214.79399109 400.63128662 C214.81562837 390.4242168 214.81550488 380.21725848 214.80736554 370.01017327 C214.80106464 361.71383745 214.80220341 353.41753413 214.80863762 345.12119865 C214.80953927 343.94022604 214.81044093 342.75925343 214.81136991 341.54249377 C214.81322112 339.14332588 214.81508368 336.744158 214.81695747 334.34499013 C214.83353497 311.8491053 214.82481711 289.3532832 214.80797189 266.85740214 C214.79327477 246.27848806 214.80790364 225.69971998 214.83674205 205.1208247 C214.86613746 183.98698363 214.87710791 162.85320994 214.86755985 141.71934932 C214.8665373 139.32872229 214.86554269 136.93809524 214.86457634 134.54746819 C214.86409995 133.37125511 214.86362356 132.19504204 214.86313273 130.98318614 C214.86096881 122.69819738 214.87077154 114.41327242 214.88534737 106.12829781 C214.90286638 96.02957394 214.90275938 85.93103622 214.87999571 75.83231968 C214.86884978 70.68065138 214.86569921 65.52931111 214.88429642 60.37765694 C214.90111013 55.65931328 214.89473789 50.94158354 214.87007963 46.22327959 C214.8651989 44.51880861 214.86870506 42.81428802 214.88156707 41.10985858 C214.94484356 32.07051199 214.95757085 23.81048598 209.23443604 16.26742554 C202.26900961 9.62844956 195.53266987 7.95389116 186.11724854 8.07211304 C184.83151443 8.07635788 184.83151443 8.07635788 183.51980591 8.08068848 C180.79953672 8.09182555 178.07960463 8.11691794 175.35943604 8.14242554 C173.50787831 8.15246371 171.65631539 8.1615881 169.80474854 8.16976929 C165.28107871 8.19003663 160.75813185 8.22919712 156.23443604 8.26742554 C154.25443604 15.85742554 152.27443604 23.44742554 150.23443604 31.26742554 C113.27443604 31.26742554 76.31443604 31.26742554 38.23443604 31.26742554 C36.25443604 23.67742554 34.27443604 16.08742554 32.23443604 8.26742554 C26.68346217 8.17525069 21.13517676 8.09571914 15.58404541 8.04769897 C13.69853687 8.02766787 11.8130898 8.00043481 9.92779541 7.96566772 C7.20693741 7.91677281 4.48690547 7.89437172 1.76568604 7.87680054 C0.93202515 7.8561554 0.09836426 7.83551025 -0.76055908 7.8142395 C-8.8276175 7.8111938 -14.8705441 10.49920827 -20.14056396 16.70492554 Z M-39.18353271 291.79476929 C-40.56170166 292.60615356 -40.56170166 292.60615356 -41.9677124 293.43392944 C-42.95287842 294.01835815 -43.93804443 294.60278687 -44.95306396 295.20492554 C-46.44434814 296.08930298 -46.44434814 296.08930298 -47.96575928 296.99154663 C-53.68658594 300.3986538 -59.39175954 303.82698706 -65.01556396 307.39242554 C-66.09322021 308.07562866 -67.17087646 308.75883179 -68.28118896 309.46273804 C-71.10548408 311.51434864 -72.4796327 313.19018757 -73.38148499 316.58789062 C-73.79500826 319.4728443 -73.89989166 322.22535075 -73.91082764 325.13998413 C-73.91720749 326.298237 -73.92358734 327.45648987 -73.93016052 328.64984131 C-73.93127335 329.89262848 -73.93238617 331.13541565 -73.93353271 332.41586304 C-73.93686111 333.70175323 -73.94018951 334.98764343 -73.94361877 336.3125 C-73.94959375 339.03088216 -73.95146036 341.74923259 -73.9508667 344.46762085 C-73.95076517 347.93637593 -73.96441506 351.4049259 -73.98163891 354.87363243 C-73.99548763 358.20021213 -73.99484905 361.52675492 -73.99603271 364.85336304 C-74.00321823 366.09210175 -74.01040375 367.33084045 -74.01780701 368.6071167 C-74.08641422 378.98071014 -74.08641422 378.98071014 -69.64056396 388.07992554 C-66.22920442 390.67552519 -63.11589795 392.32763777 -58.76556396 392.26742554 C-52.70422838 390.30725615 -48.67916465 386.95263397 -44.01556396 382.70492554 C-42.70949104 381.5355941 -41.40224476 380.36757157 -40.09368896 379.20101929 C-39.52553467 378.68595825 -38.95738037 378.17089722 -38.37200928 377.64022827 C-36.76556396 376.26742554 -36.76556396 376.26742554 -33.76556396 374.26742554 C-33.47928094 371.51584884 -33.38729353 368.99021922 -33.42498779 366.23764038 C-33.42454971 365.40829483 -33.42411163 364.57894928 -33.42366028 363.72447205 C-33.42575499 360.97553186 -33.44911783 358.22719704 -33.47259521 355.47836304 C-33.47818875 353.57550388 -33.48245999 351.67264041 -33.48545837 349.76977539 C-33.49692624 344.75550459 -33.52641006 339.74149347 -33.55957031 334.72732544 C-33.59022942 329.61312371 -33.6039548 324.49888013 -33.61907959 319.38461304 C-33.65127795 309.34543629 -33.70249768 299.30645248 -33.76556396 289.26742554 C-35.73101419 289.26742554 -37.54818992 290.83146336 -39.18353271 291.79476929 Z " fill="#F4C7AD" transform="translate(241.76556396484375,15.732574462890625)"/>
<path d="M0 0 C0.97812346 -0.00453111 1.95624691 -0.00906223 2.96401048 -0.01373065 C6.23877078 -0.02638225 9.51336494 -0.02475376 12.78814697 -0.02310181 C15.13731093 -0.02908661 17.48647292 -0.03589204 19.83563232 -0.04345703 C26.21592079 -0.06112994 32.59615561 -0.06581299 38.97646618 -0.0670886 C43.63272544 -0.06874866 48.28897277 -0.07454809 52.94522782 -0.08076156 C65.47105775 -0.09736719 77.99685927 -0.10484666 90.5226998 -0.10342209 C91.23355909 -0.10334218 91.94441837 -0.10326227 92.67681885 -0.10317993 C93.744416 -0.10305729 93.744416 -0.10305729 94.83358076 -0.10293217 C106.36278305 -0.10211963 117.89185457 -0.12125039 129.42101905 -0.14945666 C141.27057663 -0.17821704 153.12007051 -0.1919952 164.96966386 -0.19026911 C171.61766058 -0.18960625 178.26553684 -0.19544412 184.91350555 -0.21662521 C191.168021 -0.23600845 197.42224735 -0.23613113 203.67677307 -0.22159195 C205.96886366 -0.21950283 208.26097233 -0.22421081 210.55303192 -0.23631287 C213.68933832 -0.25179639 216.8246518 -0.24243595 219.9609375 -0.22705078 C221.31184719 -0.24248147 221.31184719 -0.24248147 222.69004798 -0.25822389 C231.42692654 -0.16393163 239.25614393 2.5430065 245.70318604 8.56430054 C251.84904466 15.40000043 254.48177732 22.53137459 254.49170494 31.72448349 C254.49521102 32.45778802 254.49871709 33.19109256 254.50232941 33.94661844 C254.51163735 36.40517208 254.50672168 38.86348854 254.50186157 41.322052 C254.50559814 43.10201913 254.51019969 44.88198461 254.51559222 46.66194749 C254.52783687 51.55458394 254.52756002 56.44715208 254.52520347 61.33980036 C254.52479567 66.61601982 254.53583092 71.89221728 254.5453186 77.16842651 C254.56193773 87.50622282 254.56742857 97.84399632 254.56854336 108.18180487 C254.56949342 116.58451679 254.57360163 124.98722118 254.57994461 133.38993073 C254.59755969 157.2096413 254.60678309 181.02933384 254.60528366 204.84905097 C254.60520375 206.1334134 254.60512384 207.41777584 254.6050415 208.74105835 C254.60495974 210.02698782 254.60487798 211.31291729 254.60479374 212.63781431 C254.60398082 233.47878956 254.62311943 254.31969254 254.65131824 275.16064689 C254.68003962 296.55654507 254.69385893 317.95240801 254.69213068 339.34832597 C254.69146652 351.3618743 254.69697063 363.37534689 254.71848679 375.38887787 C254.73668876 385.6175658 254.74105398 395.84614364 254.72746794 406.07484075 C254.72093331 411.29328505 254.7208391 416.51151806 254.73817444 421.72994232 C254.75388813 426.50938124 254.7510588 431.28844107 254.73360617 436.06787065 C254.73053254 437.79464279 254.73418236 439.52144311 254.74532633 441.24818203 C254.81476421 452.77299153 254.19541257 462.89443551 245.93756104 471.73617554 C238.29193012 478.61022902 230.53245067 480.5691204 220.46887207 480.53485107 C219.49074861 480.53938219 218.51262516 480.5439133 217.50486159 480.54858172 C214.23010129 480.56123332 210.95550713 480.55960483 207.6807251 480.55795288 C205.33156114 480.56393768 202.98239915 480.57074311 200.63323975 480.57830811 C194.25295128 480.59598102 187.87271646 480.60066406 181.49240589 480.60193968 C176.83614663 480.60359974 172.1798993 480.60939916 167.52364425 480.61561263 C154.99781432 480.63221826 142.4720128 480.63969774 129.94617227 480.63827316 C129.23531298 480.63819325 128.5244537 480.63811334 127.79205322 480.63803101 C126.72445607 480.63790836 126.72445607 480.63790836 125.63529131 480.63778324 C114.10608903 480.6369707 102.5770175 480.65610147 91.04785302 480.68430774 C79.19829544 480.71306812 67.34880156 480.72684627 55.49920821 480.72512019 C48.85121149 480.72445732 42.20333523 480.73029519 35.55536652 480.75147629 C29.30085107 480.77085952 23.04662472 480.77098221 16.792099 480.75644302 C14.50000842 480.75435391 12.20789974 480.75906189 9.91584015 480.77116394 C6.77953375 480.78664747 3.64422027 480.77728702 0.50793457 480.76190186 C-0.39267189 480.77218898 -1.29327835 480.78247611 -2.22117591 480.79307497 C-10.95213808 480.69884656 -18.79286052 477.99719046 -25.23040771 471.97055054 C-29.45662266 467.28192531 -32.28491409 462.67609047 -32.76556396 456.26742554 C-30.45556396 454.61742554 -28.14556396 452.96742554 -25.76556396 451.26742554 C-25.54642334 451.8359021 -25.32728271 452.40437866 -25.10150146 452.99008179 C-21.742702 461.16862195 -18.01343921 466.48227355 -10.00572777 470.39996159 C-6.39117325 471.79963411 -3.0266559 471.81731482 0.81134033 471.76863098 C1.63740878 471.77416538 2.46347723 471.77969977 3.31457806 471.78540188 C6.06291631 471.79893771 8.81033522 471.78407798 11.55865479 471.76913452 C13.53698104 471.77292027 15.51530464 471.77842242 17.49362183 471.7855072 C22.85313162 471.79944561 28.2123198 471.78830322 33.57181168 471.77179599 C39.18681324 471.75792376 44.80179655 471.76440805 50.41680908 471.76792908 C59.84532846 471.77062947 69.27372042 471.75717018 78.70220947 471.73397827 C89.59496307 471.70736968 100.48750363 471.70562212 111.38027859 471.71736664 C121.86893368 471.72815468 132.35751189 471.72194926 142.84616089 471.70781136 C147.30530622 471.70206049 151.76439512 471.70212718 156.22354126 471.70687675 C161.47672978 471.71165736 166.72968574 471.70149985 171.98283005 471.6799221 C173.90808706 471.67436884 175.8333665 471.67387549 177.75862503 471.67887497 C180.39184997 471.68485417 183.02437015 471.67227244 185.65753174 471.65510559 C186.4147436 471.66111564 187.17195547 471.66712568 187.95211315 471.67331785 C195.42819158 471.58502501 202.12566134 469.39404034 207.57238394 464.09857565 C214.72844901 456.21444891 213.80164003 445.99972069 213.74909973 436.04185486 C213.75442854 434.27991862 213.76149615 432.51798694 213.77014679 430.75606388 C213.78875662 425.92713406 213.78247482 421.09851128 213.77199376 416.2695688 C213.76499708 411.05678098 213.78100324 405.84405593 213.79399109 400.63128662 C213.81562837 390.4242168 213.81550488 380.21725848 213.80736554 370.01017327 C213.80106464 361.71383745 213.80220341 353.41753413 213.80863762 345.12119865 C213.80953927 343.94022604 213.81044093 342.75925343 213.81136991 341.54249377 C213.81322112 339.14332588 213.81508368 336.744158 213.81695747 334.34499013 C213.83353497 311.8491053 213.82481711 289.3532832 213.80797189 266.85740214 C213.79327477 246.27848806 213.80790364 225.69971998 213.83674205 205.1208247 C213.86613746 183.98698363 213.87710791 162.85320994 213.86755985 141.71934932 C213.8665373 139.32872229 213.86554269 136.93809524 213.86457634 134.54746819 C213.86409995 133.37125511 213.86362356 132.19504204 213.86313273 130.98318614 C213.86096881 122.69819738 213.87077154 114.41327242 213.88534737 106.12829781 C213.90286638 96.02957394 213.90275938 85.93103622 213.87999571 75.83231968 C213.86884978 70.68065138 213.86569921 65.52931111 213.88429642 60.37765694 C213.90111013 55.65931328 213.89473789 50.94158354 213.87007963 46.22327959 C213.8651989 44.51880861 213.86870506 42.81428802 213.88156707 41.10985858 C213.94553915 31.97114438 213.81371893 23.99472359 208.23443604 16.26742554 C206.07295218 13.98255094 206.07295218 13.98255094 203.67193604 12.70492554 C202.92814697 12.24988647 202.18435791 11.79484741 201.41802979 11.32601929 C198.03879191 9.68778411 194.93527767 9.14699012 191.20025635 9.06210327 C190.02949554 9.03218544 190.02949554 9.03218544 188.83508301 9.00166321 C188.00265076 8.98495071 187.17021851 8.96823822 186.31256104 8.95101929 C185.45257507 8.93023819 184.59258911 8.90945709 183.70654297 8.88804626 C180.96592006 8.82278815 178.22520329 8.76377637 175.48443604 8.70492554 C173.62374934 8.66171773 171.76307205 8.61810272 169.90240479 8.57406616 C165.34651081 8.46713112 160.79052264 8.36579703 156.23443604 8.26742554 C156.10818848 8.98462769 155.98194092 9.70182983 155.85186768 10.44076538 C154.9257569 15.6302917 153.96063676 20.7781054 152.67193604 25.89242554 C152.42314697 26.89531616 152.17435791 27.89820679 151.91802979 28.93148804 C151.23443604 31.26742554 151.23443604 31.26742554 150.23443604 32.26742554 C148.77962108 32.36304163 147.32018118 32.38930905 145.86222839 32.38768005 C144.91846848 32.38905472 143.97470856 32.39042938 143.00234985 32.3918457 C141.95866241 32.38825043 140.91497498 32.38465515 139.83966064 32.38095093 C138.74711472 32.38109695 137.65456879 32.38124298 136.52891541 32.38139343 C132.89818371 32.38069376 129.26750258 32.37289882 125.63677979 32.36508179 C123.1271416 32.3632178 120.61750306 32.36179381 118.10786438 32.36079407 C112.1650901 32.35735902 106.2223322 32.34946826 100.27956635 32.33944458 C92.85241679 32.32718807 85.42526499 32.32180346 77.99810791 32.31625366 C64.7435413 32.30551364 51.48898982 32.28862636 38.23443604 32.26742554 C37.75316642 30.83857788 37.27319375 29.40929333 36.79376221 27.97982788 C36.52633713 27.18394257 36.25891205 26.38805725 35.98338318 25.5680542 C35.05053607 22.70251848 34.27232042 19.81699117 33.54693604 16.89242554 C33.29556885 15.89469116 33.04420166 14.89695679 32.78521729 13.86898804 C32.23443604 11.26742554 32.23443604 11.26742554 32.23443604 8.26742554 C26.68373224 8.31177 21.13414527 8.38180325 15.58404541 8.47494507 C13.6987195 8.50305051 11.81327804 8.52431659 9.92779541 8.53842163 C7.20649504 8.55999642 4.48656872 8.60671903 1.76568604 8.65805054 C0.93202515 8.65927917 0.09836426 8.66050781 -0.76055908 8.66177368 C-7.580671 8.8298303 -12.84370716 10.70698308 -18.00775146 15.23226929 C-18.54657959 15.88324585 -19.08540771 16.53422241 -19.64056396 17.20492554 C-20.47200928 18.17752319 -20.47200928 18.17752319 -21.32025146 19.16976929 C-24.24747094 23.41819323 -25.01511726 27.09072748 -25.0049305 32.20704556 C-25.0074624 33.40462189 -25.0099943 34.60219823 -25.01260293 35.83606476 C-25.00521123 37.14811215 -24.99781954 38.46015954 -24.99020386 39.81196594 C-24.98947797 41.22268661 -24.98965315 42.63340798 -24.99065197 44.04412848 C-24.99087165 47.1111573 -24.98470378 50.17808542 -24.97368431 53.2450943 C-24.95576852 58.2352744 -24.95154789 63.22541366 -24.94895935 68.21562195 C-24.9439465 75.46032695 -24.93254915 82.70499883 -24.91769791 89.94968987 C-24.89500141 101.39843283 -24.89522637 112.84712295 -24.89956665 124.29588318 C-24.90079888 128.21247385 -24.90193333 132.12906455 -24.90307426 136.04565525 C-24.90352086 137.51381755 -24.90352086 137.51381755 -24.90397648 139.0116397 C-24.90717933 150.15215933 -24.90692581 161.2926773 -24.90423584 172.43319702 C-24.90399697 173.4515859 -24.9037581 174.46997479 -24.90351199 175.51922394 C-24.89890459 192.03040565 -24.8718947 208.54149089 -24.83841802 225.05263584 C-24.80476837 242.00080161 -24.80160369 258.94879259 -24.82516372 275.89697558 C-24.83860213 286.35332689 -24.82718728 296.80906141 -24.78403465 307.26533497 C-24.75660949 314.42836403 -24.75819493 321.5910137 -24.78274913 328.75405186 C-24.7960139 332.8887904 -24.79614196 337.0224552 -24.76146126 341.15709305 C-24.72997864 344.94197134 -24.73526701 348.72494649 -24.76987956 352.50978095 C-24.77872578 354.52826193 -24.74807755 356.54679642 -24.71606457 358.56504291 C-24.84664962 367.18660607 -24.84664962 367.18660607 -27.61239791 370.43965638 C-29.60441648 371.95266633 -31.518163 373.17752544 -33.76556396 374.26742554 C-33.85713009 329.8497337 -33.92760808 285.43205185 -33.96982528 241.01428423 C-33.97482808 235.76972571 -33.98000537 230.52516737 -33.98529053 225.28060913 C-33.98633977 224.23651707 -33.98738901 223.192425 -33.98847005 222.11669378 C-34.00587274 205.21345384 -34.0374097 188.31026834 -34.07417515 171.4070607 C-34.11158832 154.06132546 -34.13380062 136.71561873 -34.14191794 119.36984479 C-34.14740493 108.66755807 -34.16473183 97.96542525 -34.19722983 87.2631859 C-34.21838233 79.92311098 -34.22476233 72.58311557 -34.21956947 65.24301238 C-34.21700885 61.00886085 -34.22091941 56.77497815 -34.24238586 52.54087448 C-34.26191493 48.66048868 -34.26279313 44.78055137 -34.24915954 40.9001445 C-34.24747565 39.50023596 -34.25249614 38.10029893 -34.26509669 36.70044608 C-34.35598935 25.97456283 -33.01234774 16.87572433 -25.46868896 8.79867554 C-17.82305805 1.92462206 -10.0635786 -0.03426932 0 0 Z " fill="#35383E" transform="translate(241.76556396484375,15.732574462890625)"/>
<path d="M0 0 C14.1254445 -0.07011102 28.25086198 -0.12279889 42.37644482 -0.15543652 C48.93535072 -0.17110002 55.49413983 -0.19235112 62.05297852 -0.22631836 C68.38125572 -0.25888688 74.7094205 -0.27684786 81.03777504 -0.28463173 C83.45353274 -0.2901797 85.86928422 -0.30101336 88.28499413 -0.31719017 C91.66563649 -0.33893064 95.04581278 -0.34196828 98.42651367 -0.34057617 C99.42776779 -0.351362 100.42902191 -0.36214783 101.46061707 -0.3732605 C110.04547795 -0.33494525 110.04547795 -0.33494525 114 3 C115.59006531 6.18013063 115.18417077 9.61970657 115.203125 13.11328125 C115.20882507 13.91984665 115.21452515 14.72641205 115.22039795 15.55741882 C115.22985195 17.26637458 115.23638352 18.9753486 115.24023438 20.68432617 C115.2499232 23.29183041 115.280935 25.89854078 115.3125 28.50585938 C115.31903185 30.16666199 115.32428161 31.82747024 115.328125 33.48828125 C115.3404718 34.26553055 115.3528186 35.04277985 115.36553955 35.84358215 C115.34694428 40.39115483 114.92350081 43.43896364 112 47 C108.12577988 48.29140671 104.48344157 48.10345292 100.44873047 48.0625 C98.63801195 48.05305412 96.82729204 48.04387053 95.01657104 48.03491211 C94.05577511 48.02861786 93.09497917 48.02232361 92.10506821 48.01583862 C87.01276001 47.98884452 81.92048474 47.99874695 76.828125 48.00390625 C70.34957562 48.01010977 63.87189795 48.00485549 57.39355469 47.94873047 C52.15707889 47.90434347 46.92220692 47.9039826 41.68564224 47.93286133 C39.69462252 47.93593379 37.70350986 47.92312173 35.7127037 47.89379883 C24.83008846 47.42241647 24.83008846 47.42241647 14.86187744 50.95166016 C12.62116822 53.18457669 10.84054557 55.43688312 9 58 C7.69916513 59.20279571 6.36964049 60.37617893 5 61.5 C1.20781241 64.75044651 -2.27135531 68.25449569 -5.77734375 71.80859375 C-8.4270144 74.42101068 -11.21172803 76.83302621 -14.03515625 79.25390625 C-16.81561832 81.72481389 -19.39118218 84.3816694 -22 87.03125 C-24.56305228 89.55425459 -27.27345824 91.87562817 -30 94.21875 C-32.08337078 96.0742521 -34.04281207 98.01223101 -36 100 C-39.20029522 103.25029983 -42.54224576 106.24724245 -46 109.21875 C-48.08337078 111.0742521 -50.04281207 113.01223101 -52 115 C-54.58009215 117.62040609 -57.21103607 120.10323412 -60 122.5 C-64.21583337 126.12777017 -68.10453673 130.03455835 -72 134 C-86.05344012 148.16863225 -99.29195636 160.30275016 -120.4483552 160.49970198 C-122.58790879 160.49761433 -124.72677658 160.47609216 -126.86621094 160.45410156 C-128.42461111 160.45297069 -129.98301341 160.45361161 -131.54141235 160.45587158 C-135.73497396 160.45701034 -139.92806968 160.43363851 -144.12152386 160.40557575 C-148.51769785 160.38042081 -152.91388476 160.37820906 -157.31011963 160.37347412 C-165.61840794 160.36108548 -173.9264835 160.32832007 -182.23467851 160.28807616 C-193.47324486 160.23482983 -204.71187016 160.21337972 -215.95053101 160.19006729 C-233.63384642 160.15255527 -251.31671306 160.07283734 -269 160 C-269 122.71 -269 85.42 -269 47 C-255.14 44.03 -255.14 44.03 -241 41 C-238.03 39.68 -235.06 38.36 -232 37 C-230.33805262 36.32165413 -228.67401097 35.64800425 -227 35 C-226.99453156 36.00905647 -226.99453156 36.00905647 -226.98895264 37.03849792 C-226.94685291 44.09656224 -226.87731778 51.1539928 -226.79248047 58.21166992 C-226.76440953 60.83888381 -226.74312667 63.46617997 -226.72900391 66.09350586 C-226.70738204 69.88958442 -226.66063158 73.684688 -226.609375 77.48046875 C-226.60814636 78.63830368 -226.60691772 79.79613861 -226.60565186 80.98905945 C-226.34175785 95.98040907 -221.3908472 108.98678041 -211.1484375 119.93359375 C-199.82771804 130.82206756 -185.88900716 133.79311201 -170.65234375 133.62890625 C-169.22375813 133.62973845 -167.79517265 133.63221095 -166.36659241 133.63621521 C-163.39733471 133.6390466 -160.42884243 133.62463617 -157.4597168 133.59692383 C-153.69215618 133.56281305 -149.92595818 133.56889471 -146.15833187 133.5875864 C-143.21620214 133.59825489 -140.27437869 133.58913103 -137.3322773 133.57420158 C-135.94469683 133.5690932 -134.55708338 133.56941 -133.16950798 133.57574654 C-106.33285833 133.6523595 -90.74992988 119.47233384 -72.3671875 102.15234375 C-69.31175115 99.27895839 -66.18985731 96.49864068 -63.01171875 93.76171875 C-60.3437331 91.4252886 -57.73485446 89.02583749 -55.125 86.625 C-48.98557735 80.97788501 -42.78833884 75.39728451 -36.578125 69.828125 C-31.4639096 65.23510352 -26.37512593 60.61653412 -21.33178711 55.94580078 C-18.52567291 53.35645038 -15.65555598 50.89970484 -12.6875 48.5 C-5.03640525 41.80330376 0.25307881 31.97333186 2 22 C2.43004397 15.00550017 2.25570914 7.99856241 2 1 C1.34 0.67 0.68 0.34 0 0 Z " fill="#F1B9A1" transform="translate(285,336)"/>
<path d="M0 0 C13.9820988 11.14243123 26.13833748 29.65872921 28.24755859 47.72021484 C29.70787872 67.46574 26.47186766 87.4067642 13.56396484 103.14990234 C10.93412536 106.16167063 8.12486086 108.94521666 5.24755859 111.72021484 C4.61462891 112.38408203 3.98169922 113.04794922 3.32958984 113.73193359 C-9.89691424 126.72485703 -29.48521256 131.03271484 -47.34936523 131.03271484 C-64.96146931 130.73611832 -81.87776962 122.77400668 -94.20947266 110.35693359 C-95.04865234 109.48681641 -95.88783203 108.61669922 -96.75244141 107.72021484 C-97.41630859 107.08728516 -98.08017578 106.45435547 -98.76416016 105.80224609 C-110.81068073 93.53915886 -116.06180954 74.88268225 -116.25244141 58.15771484 C-116.03081662 38.74130548 -108.05592932 20.78324446 -94.75244141 6.72021484 C-94.08986328 6.00478516 -93.42728516 5.28935547 -92.74462891 4.55224609 C-68.66665681 -19.11374549 -26.61581263 -19.43718164 0 0 Z " fill="#28D574" transform="translate(379.75244140625,109.27978515625)"/>
<path d="M0 0 C1.08809212 0.00424484 1.08809212 0.00424484 2.19816589 0.00857544 C4.50077243 0.01971451 6.80298102 0.04480684 9.10546875 0.0703125 C10.6725204 0.08035044 12.23957818 0.08947487 13.80664062 0.09765625 C17.63556853 0.1196332 21.46420131 0.15411911 25.29296875 0.1953125 C23.68229535 1.26909477 22.06134792 2.33086062 20.390625 3.30859375 C13.71257834 7.24364236 9.63615932 11.63995623 7.29296875 19.1953125 C6.88870489 22.31698132 6.89992473 25.39669666 6.9322052 28.54100037 C6.92836029 29.92204542 6.92836029 29.92204542 6.9244377 31.33099037 C6.91951043 34.40500385 6.93597547 37.47852227 6.95239258 40.55249023 C6.95323908 42.76039112 6.95276326 44.96829285 6.95106506 47.17619324 C6.95020458 53.1632652 6.96783912 59.15015672 6.98878694 65.13718677 C7.00754479 71.39654802 7.00930348 77.65591344 7.01286316 83.91529846 C7.02112707 94.41906646 7.03986381 104.92277869 7.06665039 115.42651367 C7.0942064 126.24324209 7.11543242 137.05995253 7.12817383 147.87670898 C7.12935608 148.8775809 7.12935608 148.8775809 7.13056222 149.89867245 C7.13447746 153.24620986 7.13826856 156.5937474 7.14199793 159.94128501 C7.17335288 187.69267355 7.22611855 215.44398837 7.29296875 243.1953125 C7.81454591 242.70816961 8.33612307 242.22102673 8.87350559 241.71912193 C12.07302856 239.70402067 14.23339951 239.81789656 18.00437927 239.81436157 C18.67805528 239.8096816 19.35173129 239.80500163 20.04582173 239.80017984 C22.30215135 239.78821825 24.5578749 239.79769121 26.81420898 239.80712891 C28.4322851 239.80306367 30.05035844 239.79772205 31.66842651 239.79119873 C36.06308244 239.77751251 40.45752726 239.78282943 44.85218692 239.79233599 C49.45029698 239.79992712 54.04838887 239.79288837 58.64649963 239.78817749 C66.36959073 239.7827178 74.09259579 239.78991658 81.81567383 239.80419922 C90.7441372 239.82052038 99.67239501 239.81524199 108.60085338 239.79872 C116.26551016 239.78510433 123.93010505 239.78318605 131.59477001 239.79103601 C136.17296503 239.79571282 140.75106344 239.79633726 145.32925224 239.78642654 C149.63438788 239.77775819 153.93925866 239.78377635 158.24436569 239.80110931 C159.82418312 239.80507511 161.40402285 239.8039385 162.98383141 239.79732132 C165.14104638 239.78911897 167.29741357 239.79941057 169.45457458 239.81436157 C171.26501833 239.81605819 171.26501833 239.81605819 173.11203671 239.81778908 C176.60636759 240.2325077 178.4952048 241.09716605 181.29296875 243.1953125 C182.69754612 246.00446724 182.54192032 248.08341784 182.29296875 251.1953125 C180.5131247 254.3312282 179.76988668 255.03633986 176.29296875 256.1953125 C174.09537797 256.29372495 171.89487018 256.3303411 169.69508362 256.33575439 C168.68479289 256.34021108 168.68479289 256.34021108 167.65409225 256.3447578 C165.39251057 256.35344392 163.13098182 256.35495295 160.86938477 256.35644531 C159.24983609 256.36107346 157.6302885 256.36609812 156.01074219 256.37149048 C151.60789953 256.38461475 147.20507212 256.39105922 142.80221295 256.39550114 C140.05282654 256.39843116 137.3034443 256.40253578 134.55405998 256.40700531 C125.95555724 256.42067886 117.35706404 256.43034683 108.75855118 256.4342072 C98.82550233 256.43869104 88.89259088 256.45625461 78.95958382 256.4852078 C71.2856361 256.50680169 63.61172711 256.51691021 55.93774933 256.51824832 C51.352286 256.51929778 46.76695186 256.52523571 42.18152046 256.54306793 C37.8698639 256.55950957 33.55843418 256.56172325 29.24675751 256.55292892 C27.66328513 256.55215651 26.07980075 256.55652811 24.49635887 256.56638718 C22.33657945 256.57904749 20.17761073 256.57326302 18.01783752 256.56280518 C16.80865441 256.56427174 15.5994713 256.5657383 14.35364628 256.5672493 C11.05715513 256.16665618 9.68745214 255.43417907 7.29296875 253.1953125 C7.33960159 254.63991852 7.33960159 254.63991852 7.38717651 256.1137085 C7.67218294 265.23313378 7.88139818 274.35164562 8.01833916 283.47452927 C8.09111925 288.16412024 8.18963112 292.85009086 8.34912109 297.53759766 C8.5023587 302.0702225 8.58516299 306.59939034 8.62125015 311.13440704 C8.64692779 312.85551639 8.69708043 314.57645648 8.77318954 316.29607391 C9.32880827 329.38205629 9.32880827 329.38205629 5.92057228 334.09177971 C2.619257 337.58464427 -1.09714645 340.38872414 -5.0722065 343.06883049 C-7.17941249 344.52080853 -9.06824392 346.16789003 -10.9609375 347.88671875 C-11.52490234 348.37591797 -12.08886719 348.86511719 -12.66992188 349.36914062 C-13.77378255 350.32743725 -14.87519991 351.28855308 -15.97460938 352.25195312 C-19.07237332 354.93041647 -22.17414599 357.13878999 -25.70703125 359.1953125 C-25.79857574 315.89012447 -25.86906438 272.58494667 -25.91129257 229.27968097 C-25.91629543 224.16773637 -25.92147271 219.05579197 -25.92675781 213.94384766 C-25.92780705 212.9261465 -25.9288563 211.90844535 -25.92993733 210.85990477 C-25.94734516 194.37887047 -25.97888495 177.89789194 -26.01564243 161.41689074 C-26.05304131 144.50735003 -26.07526488 127.59783854 -26.08338523 110.68825817 C-26.08887518 100.25313635 -26.10621818 89.81817219 -26.13869712 79.3830989 C-26.15983198 72.2285233 -26.16623362 65.07402927 -26.16103676 57.91942471 C-26.15847338 53.79083222 -26.16241803 49.66251534 -26.18385315 45.53397179 C-26.20334347 41.75237597 -26.20428545 37.97124066 -26.19062683 34.18962348 C-26.18814117 32.17738598 -26.2053709 30.16515376 -26.22335649 28.15299511 C-26.16778839 19.75402824 -25.24923948 14.18742553 -19.5234375 7.734375 C-18.40775391 6.78691406 -18.40775391 6.78691406 -17.26953125 5.8203125 C-16.52832031 5.17320313 -15.78710938 4.52609375 -15.0234375 3.859375 C-10.17686162 0.37768642 -5.84594777 -0.08669936 0 0 Z " fill="#E9EAEE" transform="translate(241.70703125,23.8046875)"/>
<path d="M0 0 C0.33 0 0.66 0 1 0 C1.09304872 8.0586841 1.16394017 16.11714038 1.20724869 24.17623043 C1.22804413 27.9191949 1.25621208 31.66178941 1.30175781 35.40454102 C1.34550624 39.02260999 1.36919746 42.64032514 1.37950897 46.25863838 C1.38684881 47.63284429 1.40118084 49.0070328 1.42292023 50.38108635 C1.56529553 59.76070974 1.00192488 67.15478596 -5.11328125 74.55859375 C-6.20189453 75.48865234 -6.20189453 75.48865234 -7.3125 76.4375 C-8.03050781 77.07558594 -8.74851562 77.71367187 -9.48828125 78.37109375 C-15.08509389 82.00075296 -21.00499142 82.29371346 -27.45664978 82.26742554 C-28.2818638 82.27195665 -29.10707783 82.27648776 -29.95729834 82.28115618 C-32.70848776 82.29376538 -35.45947833 82.29218208 -38.21069336 82.29052734 C-40.18887078 82.29651466 -42.16704587 82.30332068 -44.1452179 82.31088257 C-49.50881837 82.32852648 -54.87235501 82.3332372 -60.2359817 82.33451414 C-63.5884605 82.33593691 -66.94092313 82.34020885 -70.2933979 82.34550858 C-81.99305373 82.36400171 -93.69266402 82.37217986 -105.39233398 82.37060547 C-116.29246993 82.36940343 -127.19240807 82.39051986 -138.09249395 82.4220928 C-147.45744791 82.44825106 -156.82233723 82.45897299 -166.18732744 82.45769465 C-171.77780241 82.457185 -177.36810144 82.46287049 -182.95853996 82.48405075 C-188.21583744 82.50342609 -193.47279096 82.50356228 -198.73010063 82.48901749 C-200.65698245 82.48692761 -202.58388577 82.49164091 -204.51073074 82.5037384 C-207.14634535 82.51921136 -209.78077682 82.50986966 -212.41636658 82.49447632 C-213.17426056 82.50476344 -213.93215455 82.51505057 -214.71301502 82.52564943 C-221.34151927 82.4404126 -226.37931003 80.17558865 -231.4609375 75.95703125 C-238.68338274 67.86494465 -238.68338274 67.86494465 -239.53515625 62.390625 C-238.25537991 56.67366792 -232.27726582 52.63539928 -228 49 C-227.26136719 48.34902344 -226.52273437 47.69804687 -225.76171875 47.02734375 C-224.48099089 45.90061122 -223.19210125 44.78307622 -221.89453125 43.67578125 C-219.13339675 41.23345816 -216.58531189 38.59445739 -214 35.96875 C-211.43694772 33.44574541 -208.72654176 31.12437183 -206 28.78125 C-203.91662922 26.9257479 -201.95718793 24.98776899 -200 23 C-197.29873871 20.27746893 -194.57485158 17.59467848 -191.75 15 C-191.12609375 14.4225 -190.5021875 13.845 -189.859375 13.25 C-188 12 -188 12 -184 12 C-181.765625 13.6875 -181.765625 13.6875 -179.25 16 C-174.83084303 19.72664632 -170.45784801 22.68023226 -165.3125 25.3125 C-164.72694336 25.62509766 -164.14138672 25.93769531 -163.53808594 26.25976562 C-148.30180636 33.7540657 -132.32867959 33.59698094 -115.76171875 33.53125 C-113.34470972 33.53395075 -110.92770176 33.53783799 -108.51069641 33.54284668 C-103.47374 33.54870861 -98.4370694 33.54028207 -93.40014648 33.52148438 C-86.96690367 33.49863565 -80.53432637 33.51187707 -74.1011076 33.53577423 C-69.12090593 33.55026927 -64.1408606 33.5456102 -59.16065407 33.53526306 C-56.78894788 33.53260923 -54.41722714 33.53581782 -52.04553795 33.54518127 C-48.7274885 33.55541483 -45.41050029 33.53975262 -42.0925293 33.51757812 C-41.12863281 33.52567505 -40.16473633 33.53377197 -39.17163086 33.54211426 C-28.68276673 33.41317711 -19.04314727 29.78640551 -11 23 C-4.85146713 16.63187667 -1.54911731 8.63517866 0 0 Z " fill="#E9EAEE" transform="translate(455,406)"/>
<path d="M0 0 C0.93423645 3.01031744 1.04449911 3.86650268 0 7 C-1.23233985 22.0345462 2.06376422 34.25528616 12 46 C18.73976551 53.19200086 27.54084886 58.34106661 36.6875 61.875 C41.52047795 63.87698174 44.63629687 67.28532167 48.15234375 71.07421875 C50.37818783 73.39417885 51.45825389 73.90970898 54.625 74.4375 C58.85350098 73.88936098 60.7784534 72.21210693 63.97265625 69.5078125 C68.40211682 66.21345454 72.93808215 65.64200235 78.3125 64.875 C94.17698024 62.21649826 108.44989432 53.43217388 118.20703125 40.6953125 C122.68038969 33.97065602 126.15283989 26.62030394 126.09765625 18.453125 C126.09443359 17.60878906 126.09121094 16.76445312 126.08789062 15.89453125 C126.07951172 15.02183594 126.07113281 14.14914063 126.0625 13.25 C126.05573242 11.91775391 126.05573242 11.91775391 126.04882812 10.55859375 C126.037074 8.37232671 126.02064249 6.18619821 126 4 C129 5 129 5 130.5 7.8125 C131.02516984 9.19905953 131.52232487 10.59637 132 12 C132.28230469 12.79019531 132.56460938 13.58039063 132.85546875 14.39453125 C138.59472383 33.22898807 135.1184727 52.96507514 126.41601562 70.21191406 C122.64768538 77.15699458 117.65337499 82.5476339 112 88 C111.36707031 88.66386719 110.73414063 89.32773438 110.08203125 90.01171875 C96.85552716 103.00464219 77.26722885 107.3125 59.40307617 107.3125 C41.79097209 107.01590347 24.87467179 99.05379183 12.54296875 86.63671875 C11.70378906 85.76660156 10.86460937 84.89648438 10 84 C9.33613281 83.36707031 8.67226563 82.73414063 7.98828125 82.08203125 C-4.06034322 69.81680229 -9.30477691 51.16409528 -9.5 34.4375 C-9.38533553 21.76764355 -6.23097554 11.08296469 0 0 Z " fill="#1DB160" transform="translate(273,133)"/>
<path d="M0 0 C13.47352921 -0.06948231 26.94701585 -0.12280241 40.42068768 -0.15543652 C46.67692578 -0.17109851 52.93304138 -0.19234683 59.18920898 -0.22631836 C65.22571328 -0.25889231 71.26209968 -0.27684899 77.29868507 -0.28463173 C79.60280018 -0.29017873 81.90690877 -0.30101052 84.21097374 -0.31719017 C87.43595751 -0.33893792 90.66045286 -0.34196798 93.88549805 -0.34057617 C94.83999847 -0.351362 95.7944989 -0.36214783 96.77792358 -0.3732605 C101.64923753 -0.35048214 105.08373849 -0.25359862 109 3 C110.59006531 6.18013063 110.18417077 9.61970657 110.203125 13.11328125 C110.20882507 13.91984665 110.21452515 14.72641205 110.22039795 15.55741882 C110.22985195 17.26637458 110.23638352 18.9753486 110.24023438 20.68432617 C110.2499232 23.29183041 110.280935 25.89854078 110.3125 28.50585938 C110.31903185 30.16666199 110.32428161 31.82747024 110.328125 33.48828125 C110.3404718 34.26553055 110.3528186 35.04277985 110.36553955 35.84358215 C110.34694428 40.39115483 109.92350081 43.43896364 107 47 C103.11624284 48.29458572 99.44439883 48.13103781 95.39770508 48.11352539 C94.51944565 48.11367142 93.64118622 48.11381744 92.73631287 48.1139679 C89.83069395 48.11327072 86.92513898 48.10548739 84.01953125 48.09765625 C82.00599706 48.09579138 79.99246242 48.0943678 77.97892761 48.09336853 C72.67708078 48.08954879 67.37526131 48.07972312 62.07342529 48.06866455 C56.66418833 48.05843877 51.25494696 48.0538684 45.84570312 48.04882812 C35.23045673 48.03810039 24.61523064 48.02103046 14 48 C14.51904152 47.18786041 14.51904152 47.18786041 15.04856873 46.35931396 C15.5010347 45.64487122 15.95350067 44.93042847 16.41967773 44.19433594 C17.09340675 43.13469635 17.09340675 43.13469635 17.78074646 42.0536499 C21.69976169 35.45265595 21.83392549 28.46143859 21 21 C18.80183442 13.61825326 14.39995294 8.21203484 8 4 C5.34197605 2.73211805 2.83047742 1.85925207 0 1 C0 0.67 0 0.34 0 0 Z " fill="#26D573" transform="translate(290,336)"/>
<path d="M0 0 C0.67453043 -0.00638882 1.34906087 -0.01277764 2.04403162 -0.01936007 C4.29766372 -0.03458527 6.54953056 -0.01416828 8.80310059 0.00622559 C10.42132652 0.0027236 12.039549 -0.00293586 13.65776062 -0.0105896 C18.04838486 -0.02483627 22.43838272 -0.00777747 26.82894707 0.01569557 C31.42437378 0.03580428 36.01977448 0.029925 40.61523438 0.02758789 C48.33242115 0.02764146 56.04936309 0.04739822 63.76647949 0.07946777 C72.68759387 0.11636058 81.6083875 0.12514332 90.5295682 0.11817026 C99.11262625 0.11186423 107.69557436 0.12262141 116.27861023 0.14213562 C119.93081733 0.15030875 123.58296823 0.15301933 127.23518372 0.15144348 C131.53625924 0.1505643 135.83703013 0.16478968 140.13802528 0.19067001 C141.71622046 0.19782995 143.29444804 0.19991626 144.87265587 0.19655228 C147.02765731 0.19283514 149.18177086 0.20759174 151.33666992 0.22705078 C153.14516544 0.23264385 153.14516544 0.23264385 154.99019623 0.23834991 C158.47968144 0.65899135 160.37295768 1.52661727 163.16833496 3.62145996 C164.57291233 6.4306147 164.41728653 8.5095653 164.16833496 11.62145996 C162.38849091 14.75737566 161.64525289 15.46248732 158.16833496 16.62145996 C155.9730797 16.72404425 153.77480639 16.76521869 151.57717896 16.77536011 C150.90435737 16.77974236 150.23153579 16.78412462 149.53832567 16.78863966 C147.27908764 16.80201667 145.01988861 16.80820397 142.76062012 16.81433105 C141.14269332 16.82223272 139.52476828 16.83050171 137.90684509 16.83911133 C132.59037964 16.86531812 127.27390636 16.88063495 121.95739746 16.89489746 C120.12771983 16.90025719 118.29804225 16.9056347 116.46836472 16.91102982 C108.85925542 16.93265418 101.25014825 16.95139223 93.64101601 16.96265221 C82.73178044 16.97890168 71.82290044 17.01210862 60.91379893 17.06905305 C53.24493387 17.10772157 45.57616404 17.12728107 37.90720403 17.13257277 C33.32551335 17.13622971 28.74420202 17.14828759 24.16261673 17.18067551 C19.85331237 17.21070295 15.54461799 17.21708726 11.2352314 17.20529175 C9.65377468 17.20507058 8.07229008 17.21341129 6.49093056 17.23094559 C4.33103645 17.25359126 2.17336314 17.24536739 0.01345825 17.22946167 C-1.19480307 17.23277182 -2.40306438 17.23608196 -3.64793968 17.23949242 C-7.76363251 16.44054419 -9.25238403 14.85832424 -11.83166504 11.62145996 C-12.45666504 8.62145996 -12.45666504 8.62145996 -11.83166504 5.62145996 C-8.15131482 1.00611587 -5.84732703 -0.00345559 0 0 Z " fill="#26D573" transform="translate(259.8316650390625,263.3785400390625)"/>
<path d="M0 0 C0.33 0 0.66 0 1 0 C1.1959375 0.8971875 1.391875 1.794375 1.59375 2.71875 C6.26575717 22.21229714 15.61157417 39.06128701 33 50 C51.25969297 60.56765759 69.89419767 64.23972611 90.6640625 59.03515625 C109.4140456 53.21695306 124.2128281 42.48529841 134.2109375 25.4765625 C138.3506142 17.43221259 141.05982273 8.8189876 143 0 C143.33 0 143.66 0 144 0 C144.71116341 21.92753844 138.83611462 39.11229218 124.65625 55.75 C113.65412776 67.46654576 96.61885491 77.12567965 80.15625 77.98046875 C79.08890625 77.99013672 79.08890625 77.99013672 78 78 C77.0821875 78.03738281 76.164375 78.07476562 75.21875 78.11328125 C54.32251223 78.62491594 36.39415695 71.42501717 21.2109375 57.17578125 C8.73273735 44.89599771 0.3769555 28.0830576 -0.09765625 10.3515625 C-0.08605469 9.12179688 -0.07445312 7.89203125 -0.0625 6.625 C-0.05347656 5.37976563 -0.04445313 4.13453125 -0.03515625 2.8515625 C-0.02355469 1.91054687 -0.01195312 0.96953125 0 0 Z " fill="#E7EAED" transform="translate(264,178)"/>
<path d="M0 0 C3.89373193 0.95635521 5.33111278 1.57254692 7.5625 4.875 C7.97146169 8.40959748 7.9291447 10.27718913 6.05078125 13.33984375 C5.33277344 14.15582031 4.61476563 14.97179687 3.875 15.8125 C2.64136719 17.23949219 2.64136719 17.23949219 1.3828125 18.6953125 C0.92938477 19.20610352 0.47595703 19.71689453 0.00878906 20.24316406 C-1.51210205 21.95917287 -3.01163484 23.69210031 -4.5078125 25.4296875 C-6.70146365 27.97480393 -8.90218079 30.51349446 -11.109375 33.046875 C-15.74578259 38.37255108 -20.33258403 43.74053196 -24.92285156 49.10595703 C-26.5069211 50.9560808 -28.09304702 52.80442445 -29.6796875 54.65234375 C-30.21456787 55.2755249 -30.74944824 55.89870605 -31.30053711 56.54077148 C-32.31407391 57.7215285 -33.32788662 58.90204878 -34.34204102 60.08227539 C-34.80537842 60.62231201 -35.26871582 61.16234863 -35.74609375 61.71875 C-36.41680908 62.49992187 -36.41680908 62.49992187 -37.10107422 63.296875 C-38.47596339 64.92041969 -39.81712808 66.56881411 -41.16015625 68.21875 C-43.64738976 71.11981138 -44.40569385 71.67846549 -48.0625 72.375 C-56.57010908 71.11461347 -64.04847713 60.41455912 -69.875 54.5625 C-70.78443359 53.65693359 -71.69386719 52.75136719 -72.63085938 51.81835938 C-73.49388672 50.95404297 -74.35691406 50.08972656 -75.24609375 49.19921875 C-76.02782959 48.41635498 -76.80956543 47.63349121 -77.61499023 46.8269043 C-79.85840253 44.42421424 -80.37604388 43.33592093 -80.8125 40.0625 C-80.4375 36.875 -80.4375 36.875 -78.3125 34 C-75.4375 31.875 -75.4375 31.875 -72.625 31.125 C-67.66608374 32.29180383 -64.98906521 35.34101679 -61.4375 38.875 C-60.93250977 39.37306152 -60.42751953 39.87112305 -59.90722656 40.38427734 C-56.39003467 43.85461499 -52.90521952 47.35526469 -49.4375 50.875 C-41.3232715 42.84833511 -33.77279844 34.41065536 -26.6171875 25.5234375 C-23.7620776 22.05432548 -20.74047048 18.75404136 -17.7109375 15.4375 C-14.4632535 11.77688023 -11.42199588 7.9593819 -8.3828125 4.125 C-5.60877752 0.91647761 -4.31426335 -0.1568823 0 0 Z " fill="#F1F7FB" transform="translate(376.4375,136.125)"/>
<path d="M0 0 C14.85 0 29.7 0 45 0 C43.45620382 1.02919745 41.9083859 2.05484092 40.31640625 3.0078125 C35.42699836 6.12222376 32.6538708 9.39249724 31 15 C30.0855938 20.92950002 30.68342679 25.99727798 33.65625 31.2421875 C36.63162734 35.13439622 40.40220328 37.46740109 45 39 C46.35359799 39.10476966 47.71157377 39.15832021 49.0690918 39.17700195 C49.88391525 39.18983719 50.69873871 39.20267242 51.53825378 39.21589661 C52.41637222 39.22328354 53.29449066 39.23067047 54.19921875 39.23828125 C55.10823441 39.246353 56.01725006 39.25442474 56.95381165 39.26274109 C58.87958881 39.27657275 60.8053904 39.28729901 62.73120117 39.29516602 C65.65917251 39.3123339 68.5860012 39.35622265 71.51367188 39.40039062 C73.38801256 39.41052209 75.26236282 39.41903677 77.13671875 39.42578125 C78.00471603 39.44328934 78.87271332 39.46079742 79.76701355 39.47883606 C86.4184967 39.45540753 92.00149044 37.96031199 96.83984375 33.18359375 C97.20207031 32.60738281 97.56429687 32.03117187 97.9375 31.4375 C98.31777344 30.85871094 98.69804687 30.27992188 99.08984375 29.68359375 C101.88038579 24.5216898 101.95217995 18.31542176 100.3515625 12.7421875 C98.04380475 7.55466366 94.79397746 4.86971273 90 2 C89.01 1.34 88.02 0.68 87 0 C89.72977064 -0.08126109 92.4571017 -0.14061663 95.1875 -0.1875 C95.95642578 -0.21263672 96.72535156 -0.23777344 97.51757812 -0.26367188 C102.18534511 -0.32377188 105.20792877 -0.04102023 109 3 C110.59006531 6.18013063 110.18417077 9.61970657 110.203125 13.11328125 C110.20882507 13.91984665 110.21452515 14.72641205 110.22039795 15.55741882 C110.22985195 17.26637458 110.23638352 18.9753486 110.24023438 20.68432617 C110.2499232 23.29183041 110.280935 25.89854078 110.3125 28.50585938 C110.31903185 30.16666199 110.32428161 31.82747024 110.328125 33.48828125 C110.3404718 34.26553055 110.3528186 35.04277985 110.36553955 35.84358215 C110.34694428 40.39115483 109.92350081 43.43896364 107 47 C103.11624284 48.29458572 99.44439883 48.13103781 95.39770508 48.11352539 C94.51944565 48.11367142 93.64118622 48.11381744 92.73631287 48.1139679 C89.83069395 48.11327072 86.92513898 48.10548739 84.01953125 48.09765625 C82.00599706 48.09579138 79.99246242 48.0943678 77.97892761 48.09336853 C72.67708078 48.08954879 67.37526131 48.07972312 62.07342529 48.06866455 C56.66418833 48.05843877 51.25494696 48.0538684 45.84570312 48.04882812 C35.23045673 48.03810039 24.61523064 48.02103046 14 48 C14.51904152 47.18786041 14.51904152 47.18786041 15.04856873 46.35931396 C15.5010347 45.64487122 15.95350067 44.93042847 16.41967773 44.19433594 C17.09340675 43.13469635 17.09340675 43.13469635 17.78074646 42.0536499 C21.69976169 35.45265595 21.83392549 28.46143859 21 21 C18.80183442 13.61825326 14.39995294 8.21203484 8 4 C5.34197605 2.73211805 2.83047742 1.85925207 0 1 C0 0.67 0 0.34 0 0 Z " fill="#1CB15F" transform="translate(290,336)"/>
<path d="M0 0 C0.9778093 -0.00554901 1.95561859 -0.01109802 2.96305847 -0.01681519 C6.19136748 -0.02861436 9.41827378 -0.00433254 12.64648438 0.02148438 C14.89180436 0.02319546 17.13712635 0.02312982 19.38244629 0.0213623 C24.08670174 0.02301571 28.79048076 0.04171827 33.49462891 0.07324219 C39.52404007 0.11291941 45.55282712 0.11728746 51.58234406 0.10977936 C56.2183402 0.10670954 60.85419609 0.11883071 65.49015808 0.13591003 C67.71330383 0.14294039 69.93646548 0.14606452 72.15962219 0.1452179 C75.26686319 0.14701597 78.37335698 0.16839946 81.48046875 0.1953125 C82.39906174 0.1923819 83.31765472 0.18945129 84.26408386 0.18643188 C89.05386571 0.25042776 92.37603763 0.45115905 96.24023438 3.61523438 C97.64481174 6.42438911 97.48918595 8.50333972 97.24023438 11.61523438 C95.46039033 14.75115008 94.71715231 15.45626173 91.24023438 16.61523438 C89.8556056 16.71340306 88.46683048 16.75861896 87.07876587 16.76913452 C86.23203812 16.77773499 85.38531036 16.78633545 84.51292419 16.79519653 C83.58714066 16.79945648 82.66135712 16.80371643 81.70751953 16.80810547 C80.73000229 16.81628296 79.75248505 16.82446045 78.74534607 16.83288574 C75.50666925 16.85772336 72.26803614 16.87424961 69.02929688 16.88867188 C67.37135164 16.89665739 67.37135164 16.89665739 65.67991257 16.90480423 C59.83218835 16.93152579 53.98448543 16.95090589 48.13671875 16.96533203 C42.09147921 16.98199818 36.04678287 17.02679574 30.00174904 17.07770348 C25.35722206 17.11132053 20.71282508 17.12290327 16.06818771 17.12855911 C13.83940849 17.13528441 11.61063819 17.15053944 9.38197708 17.17444992 C6.2647765 17.20599122 3.14905587 17.20615475 0.03173828 17.19873047 C-0.8899968 17.2151358 -1.81173187 17.23154114 -2.76139832 17.2484436 C-7.25501196 17.20458923 -9.15962973 17.07398583 -12.83267212 14.26626587 C-14.75976562 11.61523438 -14.75976562 11.61523438 -15.38476562 8.61523438 C-13.61716022 0.13072844 -7.26442958 -0.10488857 0 0 Z " fill="#26D573" transform="translate(294.759765625,295.384765625)"/>
<path d="M0 0 C2.08142601 3.12213901 2.66828041 5.15478172 2.56665039 8.90063477 C0.72253096 15.73285493 -10.01543414 20.99447384 -15.5625 24.8125 C-16.43511475 25.41924561 -17.30772949 26.02599121 -18.20678711 26.65112305 C-22.83181091 29.85592726 -27.48925287 33.0034121 -32.19555664 36.08740234 C-45.12910396 44.57446138 -55.1164743 54.1518591 -65 66 C-66 67 -66 67 -69.8125 67.3125 C-72.9054069 67.26815725 -73.80755235 67.13323299 -76.4375 65.3125 C-78.19954487 62.70467359 -78.84670385 61.14257113 -79 58 C-73.89211571 42.41966953 -57.12592072 30.77736242 -44 22 C-43.05769531 21.36964844 -42.11539063 20.73929688 -41.14453125 20.08984375 C-39.2620677 18.83929321 -37.3765299 17.59336066 -35.48828125 16.3515625 C-32.61625402 14.43803845 -29.79704939 12.45507868 -26.98046875 10.4609375 C-26.08859863 9.83026367 -25.19672852 9.19958984 -24.27783203 8.54980469 C-22.49577597 7.28656696 -20.71669447 6.01912031 -18.94091797 4.74707031 C-18.1160791 4.16280273 -17.29124023 3.57853516 -16.44140625 2.9765625 C-15.70607666 2.45143066 -14.97074707 1.92629883 -14.21313477 1.38525391 C-8.87188626 -1.9579611 -5.98098738 -2.36982519 0 0 Z " fill="#F6F8FF" transform="translate(146,233)"/>
<path d="M0 0 C3.54835701 2.799053 6.22844163 5.67178877 7.66796875 10.015625 C8.12458503 14.39224896 6.65090527 16.94689301 3.9375 20.3125 C-2.07473547 26.50692442 -9.22928331 28.0979391 -17.6875 28.3125 C-25.92533392 28.20117792 -32.27717737 26.20329438 -38.125 20.25 C-40.71629707 16.91833234 -42.10862469 14.28233353 -41.671875 10.015625 C-39.95912862 4.87738587 -36.28097354 1.41962689 -31.765625 -1.390625 C-21.67866937 -6.07149983 -9.65754255 -5.46595413 0 0 Z " fill="#D1F6E1" transform="translate(353,108)"/>
<path d="M0 0 C0.66 0 1.32 0 2 0 C3.31922295 7.90470661 4.45940456 16.23645375 2 24 C-2.61556067 29.75272779 -9.67411145 32.68739381 -16.24169922 35.7109375 C-20.18258332 37.55266772 -23.89174589 39.71266001 -27.625 41.9375 C-28.23287354 42.26741943 -28.84074707 42.59733887 -29.46704102 42.93725586 C-33.58491025 45.27906813 -35.24948459 47.63612649 -37 52 C-37.33 52 -37.66 52 -38 52 C-38.08803772 48.50016197 -38.14073608 45.00061362 -38.1875 41.5 C-38.21263672 40.51773438 -38.23777344 39.53546875 -38.26367188 38.5234375 C-38.34288154 30.60247051 -37.55257863 24.53493468 -32.1796875 18.4609375 C-26.96383932 13.62921281 -20.44344185 10.74123833 -14.125 7.625 C-12.25494287 6.68660456 -10.3868415 5.74442148 -8.51925659 4.80111694 C-6.84299086 3.9569579 -5.16208791 3.12202575 -3.48095703 2.28759766 C-1.12021041 1.22083973 -1.12021041 1.22083973 0 0 Z " fill="#F2B9A1" transform="translate(206,281)"/>
<path d="M0 0 C2.93350708 0.09600569 4.03741536 0.32244921 6.625 1.875 C8.27710008 4.62850014 8.93649951 6.76390887 8.7578125 9.9921875 C7.47100855 14.8375604 4.30339593 18.69654527 1.36181641 22.68066406 C0.05492492 24.47099705 -1.20364889 26.28904449 -2.45703125 28.1171875 C-3.32480864 29.37028516 -4.19328602 30.6228984 -5.0625 31.875 C-5.46581543 32.4623291 -5.86913086 33.0496582 -6.28466797 33.65478516 C-8.78298391 37.18343965 -11.23479194 40.01378396 -14.875 42.375 C-17.72277454 42.79225634 -20.15419742 42.28193419 -22.875 41.375 C-25.59080559 39.16840796 -25.81918708 37.762233 -26.31640625 34.3125 C-25.69319324 28.75321933 -23.05529021 25.44684923 -19.8125 21 C-19.25111328 20.20078125 -18.68972656 19.4015625 -18.11132812 18.578125 C-5.32408752 0.51523428 -5.32408752 0.51523428 0 0 Z " fill="#F6F8FF" transform="translate(55.875,311.625)"/>
<path d="M0 0 C0.74056641 0.02255859 1.48113281 0.04511719 2.24414062 0.06835938 C4.05947357 0.1269185 5.87375681 0.21659114 7.6875 0.3125 C7.0378125 1.075625 6.388125 1.83875 5.71875 2.625 C3.47416309 5.16306329 3.47416309 5.16306329 3.1875 8.3125 C3.79686068 11.96866408 5.31951996 13.53106313 7.6875 16.3125 C5.12321485 16.44809675 2.56614784 16.54683188 0 16.625 C-0.72123047 16.66689453 -1.44246094 16.70878906 -2.18554688 16.75195312 C-6.37328338 16.84756355 -7.86459907 16.66295459 -11.29296875 13.98046875 C-13.3125 11.3125 -13.3125 11.3125 -13.9375 8.3125 C-12.30757636 0.48886654 -6.85065212 -0.39793779 0 0 Z " fill="#20B262" transform="translate(293.3125,295.6875)"/>
<path d="M0 0 C0.74056641 0.02255859 1.48113281 0.04511719 2.24414062 0.06835938 C4.05947357 0.1269185 5.87375681 0.21659114 7.6875 0.3125 C7.0378125 1.075625 6.388125 1.83875 5.71875 2.625 C3.47416309 5.16306329 3.47416309 5.16306329 3.1875 8.3125 C3.79686068 11.96866408 5.31951996 13.53106313 7.6875 16.3125 C5.12321485 16.44809675 2.56614784 16.54683188 0 16.625 C-0.72123047 16.66689453 -1.44246094 16.70878906 -2.18554688 16.75195312 C-6.37328338 16.84756355 -7.86459907 16.66295459 -11.29296875 13.98046875 C-13.3125 11.3125 -13.3125 11.3125 -13.9375 8.3125 C-12.30757636 0.48886654 -6.85065212 -0.39793779 0 0 Z " fill="#20B262" transform="translate(261.3125,263.6875)"/>
<path d="M0 0 C2.39652528 -0.08139142 4.79025436 -0.14067009 7.1875 -0.1875 C7.86103516 -0.21263672 8.53457031 -0.23777344 9.22851562 -0.26367188 C13.69751197 -0.32907182 16.45618488 0.24369935 20 3 C21.40457737 5.80915474 21.24895157 7.88810534 21 11 C19.22015595 14.1359157 18.47691793 14.84102736 15 16 C12.26134713 16.07051114 9.54972412 16.09357765 6.8125 16.0625 C6.06291016 16.05798828 5.31332031 16.05347656 4.54101562 16.04882812 C2.69397617 16.03706354 0.84697787 16.01912865 -1 16 C-0.18660156 15.236875 0.62679688 14.47375 1.46484375 13.6875 C4.23559615 11.23516125 4.23559615 11.23516125 4.5625 8 C3.88370011 4.37973389 2.35280228 2.76910328 0 0 Z " fill="#1FB261" transform="translate(371,296)"/>
<path d="M0 0 C2.39652528 -0.08139142 4.79025436 -0.14067009 7.1875 -0.1875 C7.86103516 -0.21263672 8.53457031 -0.23777344 9.22851562 -0.26367188 C13.69751197 -0.32907182 16.45618488 0.24369935 20 3 C21.40457737 5.80915474 21.24895157 7.88810534 21 11 C19.22015595 14.1359157 18.47691793 14.84102736 15 16 C12.26134713 16.07051114 9.54972412 16.09357765 6.8125 16.0625 C6.06291016 16.05798828 5.31332031 16.05347656 4.54101562 16.04882812 C2.69397617 16.03706354 0.84697787 16.01912865 -1 16 C-0.18660156 15.236875 0.62679688 14.47375 1.46484375 13.6875 C4.23559615 11.23516125 4.23559615 11.23516125 4.5625 8 C3.88370011 4.37973389 2.35280228 2.76910328 0 0 Z " fill="#1FB261" transform="translate(403,264)"/>
</svg>
