<svg xmlns="http://www.w3.org/2000/svg" width="512" height="512"><path fill="#F5F7FE" d="m241.766 15.733 2.964-.014c3.274-.013 6.549-.011 9.824-.01q3.523-.009 7.047-.02c6.38-.018 12.76-.022 19.141-.024q6.985-.003 13.969-.013a26106 26106 0 0 1 39.731-.023h2.157c11.53.001 23.058-.018 34.588-.046q17.775-.043 35.548-.04c6.648 0 13.296-.006 19.944-.027q9.382-.029 18.763-.005 3.438.003 6.877-.015c3.136-.015 6.271-.006 9.408.01l2.729-.032c8.736.095 16.566 2.802 23.013 8.823 6.146 6.836 8.778 13.967 8.788 23.16l.01 2.222c.01 2.459.005 4.917 0 7.376l.014 5.34c.012 4.892.012 9.785.01 14.677 0 5.277.01 10.553.02 15.829q.024 15.507.023 31.013.001 12.604.012 25.209.026 35.73.025 71.459v7.788c-.001 20.841.018 41.682.046 62.523q.043 32.094.04 64.188c0 12.013.006 24.027.027 36.04q.028 15.345.009 30.686c-.007 5.219-.007 10.437.01 15.656q.024 7.169-.004 14.337-.005 2.59.012 5.18c.07 11.526-.55 21.647-8.808 30.489-7.646 6.874-15.405 8.833-25.469 8.798l-2.964.014c-3.274.013-6.549.011-9.824.01q-3.524.008-7.047.02c-6.38.018-12.76.022-19.141.024q-6.985.003-13.969.013-18.788.025-37.577.023H367.4c-11.53-.001-23.058.018-34.588.046q-17.775.043-35.548.04c-6.648 0-13.296.006-19.944.027q-9.382.029-18.763.005-3.438-.003-6.877.015c-3.136.015-6.271.006-9.408-.01l-2.729.032c-8.746-.095-16.54-2.812-23.013-8.811-2.645-2.963-4.573-6.277-6.531-9.715l-2-3-2.273 2.195c-14.319 13.62-27.625 19.464-47.593 19.26q-2.338-.002-4.675 0c-4.194.002-8.387-.021-12.58-.05-4.397-.025-8.793-.027-13.19-.032-8.307-.012-16.615-.045-24.924-.085-11.238-.053-22.477-.075-33.716-.098-17.683-.037-35.366-.117-53.049-.19V383l28-6c10.383-4.615 15.737-7.841 21.938-16.875l1.66-2.358c1.813-2.58 3.608-5.173 5.402-7.767q1.951-2.798 3.906-5.594a3375 3375 0 0 0 15.907-22.965c8.811-12.811 16.917-23.414 30.055-32.023 4.45-2.96 8.813-6.046 13.195-9.105l5.984-4.165c7.145-4.976 14.28-9.968 21.41-14.964l2.24-1.563a401 401 0 0 0 4.851-3.472l2.589-1.864 2.315-1.687c7.332-4.598 12.94-4.992 21.486-4.785l3.228.04q3.918.054 7.834.147l-.011-3.22a42439 42439 0 0 1-.196-77.621q-.028-18.77-.095-37.537-.06-16.362-.074-32.722a4180 4180 0 0 0-.047-17.322q-.039-8.158-.03-16.315a834 834 0 0 0-.024-5.977c-.09-12.35-.154-23.196 8.774-32.755 7.646-6.874 15.405-8.833 25.469-8.798m-39.184 291.794-2.784 1.64-2.985 1.77-3.013 1.787c-5.721 3.407-11.426 6.836-17.05 10.401l-3.266 2.07c-2.824 2.052-4.198 3.728-5.1 7.125-.413 2.885-.518 5.638-.53 8.553l-.019 3.51-.003 3.765-.01 3.897q-.009 4.078-.007 8.155c0 3.469-.014 6.938-.031 10.406-.014 3.327-.013 6.653-.014 9.98l-.022 3.754c-.069 10.373-.069 10.373 4.377 19.473 3.411 2.595 6.525 4.247 10.875 4.187 6.061-1.96 10.086-5.315 14.75-9.562a2474 2474 0 0 1 3.922-3.504l1.722-1.561C205 392 205 392 208 390c.286-2.752.378-5.277.34-8.03l.002-2.513c-.002-2.749-.026-5.497-.049-8.246q-.009-2.854-.013-5.709c-.011-5.014-.04-10.028-.074-15.042-.03-5.114-.044-10.229-.06-15.343Q208.096 320.06 208 305c-1.965 0-3.783 1.564-5.418 2.527"/><path fill="#F4C7AD" d="m241.766 15.733 2.964-.014c3.274-.013 6.549-.011 9.824-.01q3.523-.009 7.047-.02c6.38-.018 12.76-.022 19.141-.024q6.985-.003 13.969-.013a26106 26106 0 0 1 39.731-.023h2.157c11.53.001 23.058-.018 34.588-.046q17.775-.043 35.548-.04c6.648 0 13.296-.006 19.944-.027q9.382-.029 18.763-.005 3.438.003 6.877-.015c3.136-.015 6.271-.006 9.408.01l2.729-.032c8.736.095 16.566 2.802 23.013 8.823 6.146 6.836 8.778 13.967 8.788 23.16l.01 2.222c.01 2.459.005 4.917 0 7.376l.014 5.34c.012 4.892.012 9.785.01 14.677 0 5.277.01 10.553.02 15.829q.024 15.507.023 31.013.001 12.604.012 25.209.026 35.73.025 71.459v7.788c-.001 20.841.018 41.682.046 62.523q.043 32.094.04 64.188c0 12.013.006 24.027.027 36.04q.028 15.345.009 30.686c-.007 5.219-.007 10.437.01 15.656q.024 7.169-.004 14.337-.005 2.59.012 5.18c.07 11.526-.55 21.647-8.808 30.489-7.646 6.874-15.405 8.833-25.469 8.798l-2.964.014c-3.274.013-6.549.011-9.824.01q-3.524.008-7.047.02c-6.38.018-12.76.022-19.141.024q-6.985.003-13.969.013-18.788.025-37.577.023H367.4c-11.53-.001-23.058.018-34.588.046q-17.775.043-35.548.04c-6.648 0-13.296.006-19.944.027q-9.382.029-18.763.005-3.438-.003-6.877.015c-3.136.015-6.271.006-9.408-.01l-2.729.032c-8.746-.095-16.54-2.812-23.013-8.811-2.645-2.963-4.573-6.277-6.531-9.715l-2-3-2.273 2.195c-14.319 13.62-27.625 19.464-47.593 19.26q-2.338-.002-4.675 0c-4.194.002-8.387-.021-12.58-.05-4.397-.025-8.793-.027-13.19-.032-8.307-.012-16.615-.045-24.924-.085-11.238-.053-22.477-.075-33.716-.098-17.683-.037-35.366-.117-53.049-.19V383l28-6c10.383-4.615 15.737-7.841 21.938-16.875l1.66-2.358c1.813-2.58 3.608-5.173 5.402-7.767q1.951-2.798 3.906-5.594a3375 3375 0 0 0 15.907-22.965c8.811-12.811 16.917-23.414 30.055-32.023 4.45-2.96 8.813-6.046 13.195-9.105l5.984-4.165c7.145-4.976 14.28-9.968 21.41-14.964l2.24-1.563a401 401 0 0 0 4.851-3.472l2.589-1.864 2.315-1.687c7.332-4.598 12.94-4.992 21.486-4.785l3.228.04q3.918.054 7.834.147l-.011-3.22a42439 42439 0 0 1-.196-77.621q-.028-18.77-.095-37.537-.06-16.362-.074-32.722a4180 4180 0 0 0-.047-17.322q-.039-8.158-.03-16.315a834 834 0 0 0-.024-5.977c-.09-12.35-.154-23.196 8.774-32.755 7.646-6.874 15.405-8.833 25.469-8.798m-20.141 16.705-1.96 2.246c-3.101 4.315-3.915 7.986-3.911 13.257l-.012 3.63.017 3.976q0 2.116-.005 4.233c-.004 3.876.004 7.753.014 11.63.008 4.18.006 8.36.004 12.541q-.001 10.864.017 21.73c.016 10.472.021 20.944.024 31.416q.007 25.485.036 50.971.028 24.757.041 49.516l.002 3.082.007 15.31q.032 63.512.101 127.024 1.895-1.41 3.788-2.823l2.131-1.589c3.026-2.31 5.9-4.776 8.769-7.275l3.656-3.157 1.844-1.593c4.903-4.228 9.854-8.4 14.812-12.563l2.941-2.477c17.758-14.769 17.758-14.769 27.113-14.777l3.012-.017 3.27.012 3.47-.01c3.785-.01 7.57-.003 11.354.003l7.887-.005q8.262-.005 16.526.01 9.549.015 19.098-.003 9.193-.014 18.387-.004 3.909.003 7.819-.005c3.639-.005 7.277.003 10.916.014l3.276-.012 3.004.017 2.606.002c2.551.277 4.159.885 6.321 2.252 1.595 3.19 1.163 6.645 1.168 10.148l.01 2.452q.007 2.57.007 5.14c.002 2.618.02 5.235.04 7.854q.005 2.496.005 4.992l.022 2.37c-.03 7.133-.03 7.133-2.252 10.044-3.874 1.291-7.517 1.103-11.551 1.063q-2.717-.015-5.432-.028l-2.912-.02c-5.092-.026-10.185-.016-15.277-.011-6.478.006-12.956 0-19.434-.055-5.237-.045-10.472-.045-15.708-.016q-2.986.005-5.973-.04c-10.883-.47-10.883-.47-20.851 3.059-2.24 2.233-4.021 4.485-5.862 7.048a90 90 0 0 1-4 3.5c-3.792 3.25-7.271 6.754-10.777 10.309-2.65 2.612-5.435 5.024-8.258 7.445-2.78 2.47-5.356 5.128-7.965 7.777-2.563 2.523-5.273 4.845-8 7.188-2.083 1.855-4.043 3.793-6 5.781-3.2 3.25-6.542 6.247-10 9.219-2.786 2.481-5.372 5.143-7.988 7.8-2.005 1.974-4.072 3.829-6.2 5.669l-1.972 1.738c-1.607 1.375-3.281 2.67-4.965 3.949-2.093 2.93-2.177 3.463-1.687 6.875 1.824 6.173 6.05 11.396 11.5 14.807 5.106 2.751 9.134 3.517 14.889 3.444l2.503.017c2.748.014 5.496-.001 8.244-.016q2.968.005 5.935.016c5.36.014 10.719.003 16.078-.014 5.615-.014 11.23-.007 16.845-.003q14.143.002 28.286-.034c10.893-.027 21.785-.029 32.678-.017q15.732.014 31.466-.01 6.689-.007 13.377 0 7.88.006 15.76-.028 2.888-.008 5.775 0c2.633.005 5.266-.007 7.9-.024l2.294.018c6.92-.082 13.202-1.895 18.532-6.531l1.89-1.57c6.921-8.579 6.43-18.058 6.375-28.53q.008-2.644.02-5.286c.02-4.83.013-9.658.003-14.487-.007-5.213.009-10.425.022-15.638.021-10.207.021-20.414.013-30.621q-.008-12.445.001-24.89l.003-3.578.006-7.197c.016-22.496.007-44.992-.01-67.488-.014-20.579 0-41.158.03-61.737a34407 34407 0 0 0 .026-74.137q-.002-12.427.022-24.855.027-15.148-.005-30.296c-.012-5.152-.015-10.303.004-15.455q.024-7.077-.014-14.154a491 491 0 0 1 .011-5.114c.063-9.039.076-17.299-5.647-24.842-6.965-6.639-13.702-8.314-23.117-8.195l-2.598.008c-2.72.011-5.44.036-8.16.062q-2.777.016-5.555.027c-4.523.02-9.046.06-13.57.098l-6 23H280l-6-23c-5.551-.092-11.1-.172-16.65-.22q-2.828-.03-5.657-.082c-2.72-.049-5.44-.071-8.162-.089l-2.526-.062c-8.067-.003-14.11 2.685-19.38 8.89m-19.043 275.09c-1.378.81-1.378.81-2.784 1.639l-2.985 1.77-3.013 1.787c-5.721 3.407-11.426 6.836-17.05 10.401l-3.266 2.07c-2.824 2.052-4.198 3.728-5.1 7.125-.413 2.885-.518 5.638-.53 8.553l-.019 3.51-.003 3.765-.01 3.897q-.009 4.078-.007 8.155c0 3.469-.014 6.938-.031 10.406-.014 3.327-.013 6.653-.014 9.98l-.022 3.754c-.069 10.373-.069 10.373 4.377 19.473 3.411 2.595 6.525 4.247 10.875 4.187 6.061-1.96 10.086-5.315 14.75-9.562a2474 2474 0 0 1 3.922-3.504l1.722-1.561C205 392 205 392 208 390c.286-2.752.378-5.277.34-8.03l.002-2.513c-.002-2.749-.026-5.497-.049-8.246q-.009-2.854-.013-5.709c-.011-5.014-.04-10.028-.074-15.042-.03-5.114-.044-10.229-.06-15.343Q208.096 320.06 208 305c-1.965 0-3.783 1.564-5.418 2.527"/><path fill="#35383E" d="m241.766 15.733 2.964-.014c3.274-.013 6.549-.011 9.824-.01q3.523-.009 7.047-.02c6.38-.018 12.76-.022 19.141-.024q6.985-.003 13.969-.013a26106 26106 0 0 1 39.731-.023h2.157c11.53.001 23.058-.018 34.588-.046q17.775-.043 35.548-.04c6.648 0 13.296-.006 19.944-.027q9.382-.029 18.763-.005 3.438.003 6.877-.015c3.136-.015 6.271-.006 9.408.01l2.729-.032c8.736.095 16.566 2.802 23.013 8.823 6.146 6.836 8.778 13.967 8.788 23.16l.01 2.222c.01 2.459.005 4.917 0 7.376l.014 5.34c.012 4.892.012 9.785.01 14.677 0 5.277.01 10.553.02 15.829q.024 15.507.023 31.013.001 12.604.012 25.209.026 35.73.025 71.459v7.788c-.001 20.841.018 41.682.046 62.523q.043 32.094.04 64.188c0 12.013.006 24.027.027 36.04q.028 15.345.009 30.686c-.007 5.219-.007 10.437.01 15.656q.024 7.169-.004 14.337-.005 2.59.012 5.18c.07 11.526-.55 21.647-8.808 30.489-7.646 6.874-15.405 8.833-25.469 8.798l-2.964.014c-3.274.013-6.549.011-9.824.01q-3.524.008-7.047.02c-6.38.018-12.76.022-19.141.024q-6.985.003-13.969.013-18.788.025-37.577.023H367.4c-11.53-.001-23.058.018-34.588.046q-17.775.043-35.548.04c-6.648 0-13.296.006-19.944.027q-9.382.029-18.763.005-3.438-.003-6.877.015c-3.136.015-6.271.006-9.408-.01l-2.729.032c-8.73-.095-16.571-2.796-23.009-8.823-4.226-4.689-7.054-9.294-7.535-15.703l7-5c.22.568.438 1.137.664 1.723 3.359 8.178 7.088 13.492 15.096 17.41 3.614 1.4 6.979 1.417 10.817 1.368l2.503.017c2.748.014 5.496-.001 8.244-.016q2.968.005 5.935.016c5.36.014 10.719.003 16.078-.014 5.615-.014 11.23-.007 16.845-.003q14.143.002 28.286-.034c10.893-.027 21.785-.029 32.678-.017q15.732.014 31.466-.01 6.689-.007 13.377 0 7.88.006 15.76-.028 2.888-.008 5.775 0c2.633.005 5.266-.007 7.9-.024l2.294.018c7.476-.088 14.173-2.28 19.62-7.575 7.156-7.884 6.23-18.099 6.177-28.057q.008-2.642.02-5.285c.02-4.83.013-9.658.003-14.487-.007-5.213.009-10.425.022-15.638.021-10.207.021-20.414.013-30.621q-.008-12.445.001-24.89l.003-3.578.006-7.197c.016-22.496.007-44.992-.01-67.488-.014-20.579 0-41.158.03-61.737a34407 34407 0 0 0 .026-74.137q-.002-12.427.022-24.855.027-15.148-.005-30.296c-.012-5.152-.015-10.303.004-15.455q.024-7.077-.014-14.154a491 491 0 0 1 .011-5.114c.064-9.138-.068-17.115-5.647-24.842-2.161-2.285-2.161-2.285-4.562-3.562l-2.254-1.38c-3.38-1.638-6.483-2.178-10.218-2.263l-2.365-.06-2.523-.051-2.606-.063q-4.11-.098-8.222-.183l-5.582-.131A7274 7274 0 0 0 398 24l-.383 2.173c-.926 5.19-1.89 10.338-3.18 15.452l-.753 3.04C393 47 393 47 392 48a66 66 0 0 1-4.372.12l-2.86.004-3.163-.01h-3.31c-3.631 0-7.262-.009-10.893-.016l-7.529-.005q-8.913-.005-17.828-.021-11.14-.017-22.281-.023Q299.88 48.033 280 48q-.721-2.143-1.44-4.288l-.811-2.411c-.933-2.866-1.711-5.751-2.436-8.676l-.762-3.023C274 27 274 27 274 24q-8.325.067-16.65.208-2.828.042-5.657.063c-2.72.022-5.44.068-8.162.12l-2.526.003c-6.82.168-12.083 2.046-17.247 6.57l-1.633 1.974-1.68 1.964c-2.927 4.249-3.695 7.921-3.684 13.038l-.008 3.629.022 3.976q0 2.115 0 4.232 0 4.6.017 9.2c.018 4.99.022 9.981.025 14.971q.008 10.868.03 21.734c.024 11.449.023 22.898.019 34.346l-.004 11.75v2.966q-.005 16.71 0 33.422v3.086c.005 16.511.032 33.022.065 49.533q.05 25.422.013 50.845c-.013 10.456-.002 20.912.042 31.368q.039 10.745 0 21.489c-.012 4.134-.013 8.268.022 12.403.032 3.785.026 7.568-.008 11.352-.01 2.019.021 4.037.053 6.056-.13 8.621-.13 8.621-2.896 11.874-1.992 1.513-3.906 2.738-6.153 3.828a119938 119938 0 0 1-.22-148.987l-.003-3.164c-.017-16.903-.049-33.806-.086-50.71q-.056-26.017-.067-52.037-.008-16.053-.056-32.106-.03-11.01-.022-22.02c.003-4.235-.001-8.468-.023-12.703q-.028-5.82-.007-11.64.003-2.1-.016-4.2c-.09-10.726 1.253-19.825 8.797-27.902 7.646-6.874 15.405-8.833 25.469-8.798"/><path fill="#F1B9A1" d="M285 336q21.187-.106 42.376-.155a7051 7051 0 0 0 19.677-.071c6.328-.033 12.656-.05 18.985-.059q3.623-.008 7.247-.032c3.38-.022 6.76-.025 10.142-.024l3.034-.032c8.584.038 8.584.038 12.539 3.373 1.59 3.18 1.184 6.62 1.203 10.113l.017 2.444q.014 2.564.02 5.127c.01 2.608.04 5.215.072 7.822q.01 2.49.016 4.982l.038 2.356c-.02 4.547-.442 7.595-3.366 11.156-3.874 1.291-7.517 1.103-11.551 1.063q-2.717-.015-5.432-.028l-2.912-.02c-5.092-.026-10.185-.016-15.277-.011-6.478.006-12.956 0-19.434-.055-5.237-.045-10.472-.045-15.708-.016q-2.986.005-5.973-.04c-10.883-.47-10.883-.47-20.851 3.059-2.24 2.233-4.021 4.485-5.862 7.048a90 90 0 0 1-4 3.5c-3.792 3.25-7.271 6.754-10.777 10.309-2.65 2.612-5.435 5.024-8.258 7.445-2.78 2.47-5.356 5.128-7.965 7.777-2.563 2.523-5.273 4.845-8 7.188-2.083 1.855-4.043 3.793-6 5.781-3.2 3.25-6.542 6.247-10 9.219-2.083 1.855-4.043 3.793-6 5.781a131 131 0 0 1-8 7.5c-4.216 3.628-8.105 7.535-12 11.5-14.053 14.169-27.292 26.303-48.448 26.5-2.14-.002-4.279-.024-6.418-.046q-2.338-.001-4.675.002c-4.194.001-8.387-.022-12.58-.05-4.397-.026-8.793-.028-13.19-.033-8.307-.012-16.615-.045-24.924-.085-11.238-.053-22.477-.075-33.716-.098-17.683-.037-35.366-.117-53.049-.19V383l28-6 9-4a296 296 0 0 1 5-2l.011 2.038c.042 7.059.112 14.116.197 21.174q.042 3.94.063 7.882c.022 3.796.068 7.59.12 11.386l.003 3.51c.264 14.99 5.215 27.997 15.458 38.944 11.32 10.888 25.259 13.86 40.496 13.695q2.143 0 4.285.007 4.454.004 8.907-.04c3.768-.033 7.534-.027 11.302-.008 2.942.01 5.884.001 8.826-.014a505 505 0 0 1 4.162.002c26.837.076 42.42-14.104 60.803-31.424a287 287 0 0 1 9.355-8.39c2.668-2.337 5.277-4.736 7.887-7.137 6.14-5.647 12.337-11.228 18.547-16.797a1348 1348 0 0 0 15.246-13.882 174 174 0 0 1 8.644-7.446c7.652-6.697 12.941-16.527 14.688-26.5.43-6.994.256-14.001 0-21z"/><path fill="#28D574" d="M379.752 109.28C393.735 120.422 405.891 138.939 408 157c1.46 19.746-1.776 39.687-14.684 55.43-2.63 3.011-5.439 5.795-8.316 8.57l-1.918 2.012c-13.226 12.993-32.815 17.3-50.679 17.3-17.612-.296-34.528-8.258-46.86-20.675L283 217l-2.012-1.918c-12.046-12.263-17.297-30.92-17.488-47.645.222-19.416 8.197-37.374 21.5-51.437l2.008-2.168c24.078-23.666 66.129-23.99 92.744-4.552"/><path fill="#E9EAEE" d="m241.707 23.805 2.198.008c2.303.011 4.605.036 6.907.062q2.352.016 4.702.027 5.743.035 11.486.098c-1.61 1.074-3.232 2.136-4.902 3.113C255.42 31.048 251.343 35.445 249 43c-.404 3.122-.393 6.201-.36 9.346l-.009 2.79c-.004 3.074.012 6.147.028 9.221v6.624c-.002 5.987.016 11.974.037 17.96.019 6.26.02 12.52.024 18.779q.013 15.756.054 31.511.041 16.226.061 32.45l.003 2.022.011 10.043c.031 27.751.084 55.503.151 83.254l1.58-1.476c3.2-2.015 5.36-1.901 9.131-1.905l2.042-.014c2.256-.012 4.512-.003 6.768.007q2.427-.006 4.854-.016c4.395-.014 8.79-.008 13.184.001 4.598.008 9.196 0 13.795-.004q11.585-.007 23.169.016c8.928.016 17.856.01 26.785-.006q11.498-.02 22.994-.007 6.867.008 13.734-.005 6.458-.013 12.915.015 2.37.006 4.74-.004c2.157-.008 4.313.002 6.47.017l3.658.003c3.494.415 5.383 1.28 8.181 3.378 1.405 2.81 1.249 4.888 1 8-1.78 3.136-2.523 3.841-6 5-2.198.098-4.398.135-6.598.14l-2.04.01q-3.393.01-6.786.011l-4.858.015q-6.604.019-13.209.024-4.125.004-8.248.012-12.898.02-25.795.027-14.9.007-29.8.05-11.51.033-23.021.034-6.879 0-13.756.025-6.468.023-12.935.01-2.376-.002-4.75.013c-2.16.013-4.32.007-6.48-.004l-3.663.005c-3.297-.4-4.667-1.133-7.061-3.372l.094 2.918q.427 13.678.631 27.361c.073 4.69.172 9.376.331 14.063.153 4.533.236 9.062.272 13.597q.039 2.582.152 5.162c.556 13.086.556 13.086-2.852 17.795-3.302 3.493-7.018 6.297-10.993 8.978-2.107 1.451-3.996 3.099-5.889 4.817l-1.709 1.483q-1.656 1.438-3.305 2.883A63 63 0 0 1 216 383a114081 114081 0 0 1-.22-145.251l-.003-3.084c-.017-16.481-.049-32.962-.086-49.443q-.056-25.365-.067-50.73-.008-15.652-.056-31.304-.03-10.733-.022-21.464c.003-4.128-.001-8.257-.023-12.385q-.028-5.673-.007-11.345c.003-2.012-.014-4.024-.032-6.036.055-8.4.974-13.966 6.7-20.419l2.254-1.914 2.246-1.96c4.846-3.483 9.177-3.947 15.023-3.86M455 406h1q.141 12.088.207 24.176c.021 3.743.05 7.486.095 11.229.044 3.618.067 7.235.078 10.854q.01 2.061.043 4.122c.142 9.38-.421 16.774-6.536 24.178l-2.2 1.878-2.175 1.934c-5.597 3.63-11.517 3.923-17.969 3.896l-2.5.014c-2.751.013-5.502.011-8.254.01q-2.967.009-5.934.02c-5.364.018-10.727.022-16.091.024q-5.028.001-10.057.01-17.55.028-35.1.026c-10.9-.002-21.8.02-32.7.051q-14.047.038-28.094.036c-5.59 0-11.181.005-16.772.026q-7.886.029-15.771.005a785 785 0 0 0-5.78.015c-2.636.015-5.27.006-7.906-.01l-2.297.032c-6.629-.086-11.666-2.35-16.748-6.569-7.222-8.092-7.222-8.092-8.074-13.566 1.28-5.717 7.258-9.756 11.535-13.391l2.238-1.973q1.922-1.69 3.867-3.351c2.762-2.443 5.31-5.082 7.895-7.707 2.563-2.523 5.273-4.845 8-7.188 2.083-1.855 4.043-3.793 6-5.781 2.701-2.723 5.425-5.405 8.25-8l1.89-1.75C267 418 267 418 271 418c2.234 1.688 2.234 1.688 4.75 4 4.42 3.727 8.792 6.68 13.938 9.313l1.774.947c15.236 7.494 31.21 7.337 47.776 7.271l7.251.012q7.556.008 15.11-.022c6.434-.022 12.867-.01 19.3.015 4.98.014 9.96.01 14.94 0q3.558-.005 7.115.01c3.319.01 6.635-.006 9.953-.028l2.921.024c10.49-.129 20.129-3.756 28.172-10.542 6.149-6.368 9.45-14.365 11-23"/><path fill="#1DB160" d="M273 133c.934 3.01 1.044 3.867 0 7-1.232 15.035 2.064 27.255 12 39 6.74 7.192 15.54 12.341 24.688 15.875 4.832 2.002 7.948 5.41 11.464 9.2 2.226 2.32 3.306 2.835 6.473 3.363 4.229-.549 6.153-2.226 9.348-4.93 4.43-3.295 8.965-3.866 14.34-4.633 15.864-2.659 30.137-11.443 39.894-24.18 4.473-6.724 7.946-14.075 7.89-22.242l-.01-2.558-.024-2.645-.014-2.691q-.018-3.28-.049-6.559c3 1 3 1 4.5 3.813A131 131 0 0 1 405 145l.855 2.395c5.74 18.834 2.263 38.57-6.439 55.817-3.768 6.945-8.763 12.336-14.416 17.788l-1.918 2.012c-13.226 12.993-32.815 17.3-50.679 17.3-17.612-.296-34.528-8.258-46.86-20.675L283 217l-2.012-1.918c-12.048-12.265-17.293-30.918-17.488-47.644.115-12.67 3.269-23.355 9.5-34.438"/><path fill="#26D573" d="M290 336q20.21-.106 40.42-.155a6413 6413 0 0 0 18.77-.071c6.036-.033 12.072-.05 18.109-.059q3.456-.008 6.912-.032c3.225-.022 6.45-.025 9.674-.024l2.893-.032c4.871.023 8.306.12 12.222 3.373 1.59 3.18 1.184 6.62 1.203 10.113l.017 2.444q.014 2.564.02 5.127c.01 2.608.04 5.215.072 7.822q.01 2.49.016 4.982l.038 2.356c-.02 4.547-.442 7.595-3.366 11.156-3.884 1.295-7.556 1.131-11.602 1.114h-2.662c-2.905 0-5.81-.009-8.716-.016l-6.041-.005q-7.953-.006-15.906-.024-8.113-.014-16.227-.02-15.923-.016-31.846-.049l1.049-1.64 1.37-2.166 1.362-2.14C311.7 371.453 311.834 364.46 311 357c-2.198-7.382-6.6-12.788-13-17-2.658-1.268-5.17-2.14-8-3zM259.832 263.379l2.044-.02c2.253-.015 4.505.005 6.759.026q2.427-.006 4.854-.017c4.391-.014 8.781.003 13.172.026 4.595.02 9.19.014 13.786.012q11.575.002 23.151.052c8.921.037 17.842.046 26.763.039 8.583-.007 17.166.004 25.75.024q5.477.011 10.956.009 6.45 0 12.903.04 2.367.01 4.734.005c2.155-.004 4.31.011 6.464.03l3.654.012c3.49.42 5.383 1.288 8.178 3.383 1.405 2.81 1.249 4.888 1 8-1.78 3.136-2.523 3.841-6 5a157 157 0 0 1-6.591.154l-2.039.013c-2.26.014-4.518.02-6.778.026l-4.853.025c-5.317.026-10.633.041-15.95.055l-5.489.017q-11.414.033-22.827.051-16.364.023-32.728.107-11.502.056-23.006.063c-4.582.004-9.163.016-13.745.048q-6.464.044-12.927.025-2.373 0-4.744.025c-2.16.023-4.318.015-6.478-.001l-3.661.01c-4.116-.799-5.605-2.381-8.184-5.618-.625-3-.625-3 0-6 3.68-4.615 5.984-5.625 11.832-5.621"/><path fill="#E7EAED" d="M264 178h1l.594 2.719C270.266 200.212 279.612 217.06 297 228c18.26 10.568 36.894 14.24 57.664 9.035 18.75-5.818 33.549-16.55 43.547-33.558 4.14-8.045 6.849-16.658 8.789-25.477h1c.711 21.928-5.164 39.112-19.344 55.75-11.002 11.717-28.037 21.376-44.5 22.23L342 256l-2.781.113c-20.896.512-38.825-6.688-54.008-20.937-12.478-12.28-20.834-29.093-21.309-46.824l.036-3.727.027-3.773z"/><path fill="#F1F7FB" d="M376.438 136.125c3.893.956 5.33 1.573 7.562 4.875.409 3.535.367 5.402-1.512 8.465l-2.175 2.472-2.493 2.883-1.374 1.548a481 481 0 0 0-4.516 5.187 1890 1890 0 0 1-6.602 7.617c-4.636 5.326-9.223 10.694-13.813 16.059q-2.376 2.774-4.757 5.546l-1.621 1.889-3.042 3.541-1.404 1.637-1.355 1.578c-1.374 1.623-2.716 3.272-4.059 4.922-2.487 2.9-3.245 3.46-6.902 4.156-8.508-1.26-15.986-11.96-21.812-17.812l-2.756-2.745-2.616-2.619-2.368-2.372c-2.244-2.403-2.762-3.491-3.198-6.764.375-3.188.375-3.188 2.5-6.063C301 168 301 168 303.813 167.25c4.958 1.167 7.635 4.216 11.187 7.75l1.53 1.51c3.517 3.47 7.002 6.97 10.47 10.49 8.114-8.027 15.665-16.464 22.82-25.352 2.855-3.469 5.877-6.769 8.907-10.085 3.247-3.661 6.289-7.479 9.328-11.313 2.774-3.209 4.068-4.282 8.382-4.125"/><path fill="#1CB15F" d="M290 336h45c-1.544 1.03-3.092 2.055-4.684 3.008-4.889 3.114-7.662 6.384-9.316 11.992-.914 5.93-.317 10.997 2.656 16.242 2.976 3.892 6.746 6.225 11.344 7.758 1.354.105 2.712.158 4.07.177l2.468.039 2.661.022 2.755.025q2.888.02 5.777.032c2.928.017 5.855.061 8.783.105q2.81.015 5.623.026l2.63.053c6.651-.024 12.234-1.519 17.073-6.295l1.098-1.747 1.152-1.753c2.79-5.162 2.862-11.369 1.262-16.942-2.308-5.187-5.558-7.872-10.352-10.742l-3-2c2.73-.081 5.457-.14 8.188-.187l2.33-.077c4.667-.06 7.69.223 11.482 3.264 1.59 3.18 1.184 6.62 1.203 10.113l.017 2.444q.014 2.564.02 5.127c.01 2.608.04 5.215.072 7.822q.01 2.49.016 4.982l.038 2.356c-.02 4.547-.442 7.595-3.366 11.156-3.884 1.295-7.556 1.131-11.602 1.114h-2.662c-2.905 0-5.81-.009-8.716-.016l-6.041-.005q-7.953-.006-15.906-.024-8.113-.014-16.227-.02-15.923-.016-31.846-.049l1.049-1.64 1.37-2.166 1.362-2.14C311.7 371.453 311.834 364.46 311 357c-2.198-7.382-6.6-12.788-13-17-2.658-1.268-5.17-2.14-8-3z"/><path fill="#26D573" d="m294.76 295.385 2.963-.017c3.228-.012 6.455.012 9.683.038q3.368.003 6.736 0 7.056.003 14.112.052c6.03.04 12.059.044 18.088.037 4.636-.004 9.272.009 13.908.026q3.334.01 6.67.009c3.107.002 6.213.023 9.32.05l2.784-.009c4.79.064 8.112.265 11.976 3.429 1.405 2.81 1.249 4.888 1 8-1.78 3.136-2.523 3.841-6 5a66 66 0 0 1-4.161.154l-2.566.026-2.806.013-2.962.025q-4.858.035-9.716.055l-3.35.017q-8.77.039-17.543.06c-6.045.017-12.09.062-18.134.112-4.645.034-9.29.046-13.934.051q-3.344.01-6.686.046c-3.117.032-6.233.032-9.35.024l-2.794.05c-4.493-.044-6.398-.174-10.07-2.982C280 307 280 307 279.374 304c1.768-8.485 8.12-8.72 15.385-8.615"/><path fill="#F6F8FF" d="M146 233c2.081 3.122 2.668 5.155 2.567 8.9-1.844 6.833-12.582 12.094-18.13 15.912l-2.644 1.84a652 652 0 0 1-13.989 9.435C100.871 277.574 90.884 287.152 81 299c-1 1-1 1-4.812 1.313-3.093-.045-3.996-.18-6.626-2-1.762-2.608-2.409-4.17-2.562-7.313 5.108-15.58 21.874-27.223 35-36l2.855-1.91q2.824-1.876 5.657-3.738c2.872-1.914 5.691-3.897 8.508-5.891l2.702-1.911q2.673-1.894 5.337-3.803l2.5-1.77 2.228-1.592c5.341-3.343 8.232-3.755 14.213-1.385"/><path fill="#D1F6E1" d="M353 108c3.548 2.8 6.228 5.672 7.668 10.016.457 4.376-1.017 6.93-3.73 10.296-6.013 6.195-13.167 7.786-21.625 8-8.238-.11-14.59-2.109-20.438-8.062-2.591-3.332-3.984-5.968-3.547-10.234 1.713-5.139 5.391-8.596 9.906-11.407 10.087-4.68 22.108-4.075 31.766 1.391"/><path fill="#F2B9A1" d="M206 281h2c1.32 7.905 2.46 16.236 0 24-4.616 5.753-11.674 8.687-18.242 11.71-3.94 1.843-7.65 4.003-11.383 6.228l-1.842 1c-4.118 2.341-5.782 4.698-7.533 9.062h-1c-.088-3.5-.14-7-.187-10.5l-.077-2.977c-.079-7.92.711-13.988 6.084-20.062 5.216-4.832 11.737-7.72 18.055-10.836q2.804-1.408 5.606-2.824c1.676-.844 3.357-1.679 5.038-2.513 2.36-1.067 2.36-1.067 3.481-2.288"/><path fill="#F6F8FF" d="M55.875 311.625c2.934.096 4.037.322 6.625 1.875 1.652 2.754 2.311 4.889 2.133 8.117-1.287 4.846-4.455 8.705-7.396 12.689a225 225 0 0 0-3.819 5.436l-2.605 3.758-1.223 1.78c-2.498 3.528-4.95 6.359-8.59 8.72-2.848.417-5.28-.093-8-1-2.716-2.207-2.944-3.613-3.441-7.062.623-5.56 3.26-8.866 6.503-13.313l1.702-2.422C50.55 312.14 50.55 312.14 55.875 311.625"/><path fill="#20B262" d="m293.313 295.688 2.244.068c1.815.058 3.63.148 5.443.244l-1.969 2.313c-2.244 2.538-2.244 2.538-2.531 5.687.61 3.656 2.132 5.219 4.5 8a343 343 0 0 1-7.687.313l-2.186.126c-4.188.096-5.68-.089-9.107-2.771C280 307 280 307 279.375 304c1.63-7.824 7.087-8.71 13.938-8.312M261.313 263.688l2.244.068c1.815.058 3.63.148 5.443.244l-1.969 2.313c-2.244 2.538-2.244 2.538-2.531 5.687.61 3.656 2.132 5.219 4.5 8a343 343 0 0 1-7.687.313l-2.186.126c-4.188.096-5.68-.089-9.107-2.771C248 275 248 275 247.375 272c1.63-7.824 7.087-8.71 13.938-8.312"/><path fill="#1FB261" d="M371 296c2.397-.081 4.79-.14 7.188-.187l2.04-.077c4.47-.065 7.228.508 10.772 3.264 1.405 2.81 1.249 4.888 1 8-1.78 3.136-2.523 3.841-6 5-2.739.07-5.45.094-8.187.063l-2.272-.014q-2.77-.02-5.541-.049l2.465-2.312c2.77-2.453 2.77-2.453 3.098-5.688-.68-3.62-2.21-5.23-4.563-8M403 264c2.397-.081 4.79-.14 7.188-.187l2.04-.077c4.47-.065 7.228.508 10.772 3.264 1.405 2.81 1.249 4.888 1 8-1.78 3.136-2.523 3.841-6 5-2.739.07-5.45.094-8.187.063l-2.272-.014q-2.77-.02-5.541-.049l2.465-2.312c2.77-2.453 2.77-2.453 3.098-5.688-.68-3.62-2.21-5.23-4.563-8"/></svg>