<?xml version="1.0" encoding="UTF-8"?>
<svg version="1.1" xmlns="http://www.w3.org/2000/svg" width="96" height="96">
<path d="M0 0 C10.56 0 21.12 0 32 0 C32 10.56 32 21.12 32 32 C21.44 32 10.88 32 0 32 C0 21.44 0 10.88 0 0 Z " fill="#3EDAB4" transform="translate(52,52)"/>
<path d="M0 0 C10.56 0 21.12 0 32 0 C32 10.56 32 21.12 32 32 C21.44 32 10.88 32 0 32 C0 21.44 0 10.88 0 0 Z " fill="#6D1AFF" transform="translate(12,52)"/>
<path d="M0 0 C10.56 0 21.12 0 32 0 C32 10.56 32 21.12 32 32 C21.44 32 10.88 32 0 32 C0 21.44 0 10.88 0 0 Z " fill="#F55376" transform="translate(52,12)"/>
<path d="M0 0 C10.56 0 21.12 0 32 0 C32 10.56 32 21.12 32 32 C21.44 32 10.88 32 0 32 C0 21.44 0 10.88 0 0 Z " fill="#3DD9EB" transform="translate(12,12)"/>
<path d="M0 0 C1.093125 0.45375 2.18625 0.9075 3.3125 1.375 C6.47271252 4.46171921 6.60757102 5.57528035 6.9375 9.875 C6.76650734 13.54684236 6.5398442 15.36220938 4.1484375 18.1875 C1.73721317 19.92938781 -0.13118426 21.18815707 -3 22 C-5.59375 21.21875 -5.59375 21.21875 -8 20 C-9.093125 19.54625 -10.18625 19.0925 -11.3125 18.625 C-14.47271252 15.53828079 -14.60757102 14.42471965 -14.9375 10.125 C-14.76650734 6.45315764 -14.5398442 4.63779062 -12.1484375 1.8125 C-7.499351 -1.5460374 -5.30228135 -2.68557107 0 0 Z " fill="#BFFEFE" transform="translate(32,18)"/>
<path d="M0 0 C3.68069887 1.53643852 5.98775204 3.78150945 8.75 6.625 C9.54921875 7.44226562 10.3484375 8.25953125 11.171875 9.1015625 C11.77515625 9.72804688 12.3784375 10.35453125 13 11 C11.46781315 14.63061667 9.2816856 16.9863773 6.5 19.75 C5.7059375 20.54921875 4.911875 21.3484375 4.09375 22.171875 C2 24 2 24 0 24 C-1.62109375 22.35546875 -1.62109375 22.35546875 -3.4375 20.1875 C-5.54463676 17.68897282 -7.65241398 15.2757944 -10 13 C-8.60366893 9.81440048 -6.95442507 7.76056155 -4.4375 5.375 C-1.85984611 2.95478041 -1.85984611 2.95478041 0 0 Z " fill="#D9B4FF" transform="translate(27,56)"/>
<path d="M0 0 C3.47969455 1.15989818 3.72259683 1.72701339 5.48046875 4.78125 C5.92197266 5.54050781 6.36347656 6.29976562 6.81835938 7.08203125 C7.49608398 8.27892578 7.49608398 8.27892578 8.1875 9.5 C8.65091797 10.29792969 9.11433594 11.09585937 9.59179688 11.91796875 C13 17.83087491 13 17.83087491 13 19 C5.08 19 -2.84 19 -11 19 C-7.51878051 12.52331258 -3.96989357 6.18836351 0 0 Z " fill="#F9C4D2" transform="translate(67,19)"/>
<path d="M0 0 C0.66 0 1.32 0 2 0 C2.66 1.98 3.32 3.96 4 6 C6.64 6.33 9.28 6.66 12 7 C10.700625 8.175625 10.700625 8.175625 9.375 9.375 C7.42007853 11.65300373 6.98182882 12.57892987 7.11328125 15.625 C7.63605805 18.12863856 8.24223957 20.55779124 9 23 C7.948125 22.29875 6.89625 21.5975 5.8125 20.875 C2.78188284 19.09533142 2.78188284 19.09533142 -0.6875 19.625 C-1.8321875 20.305625 -1.8321875 20.305625 -3 21 C-4.32992465 21.6734409 -5.6627486 22.34122773 -7 23 C-6.79761719 22.34773438 -6.59523437 21.69546875 -6.38671875 21.0234375 C-4.87097091 15.94867832 -4.87097091 15.94867832 -5.98046875 11 C-7.49458052 9.16671525 -7.49458052 9.16671525 -10 7 C-7.36 6.67 -4.72 6.34 -2 6 C-1.34 4.02 -0.68 2.04 0 0 Z " fill="#BAF3E7" transform="translate(67,57)"/>
</svg>
