<svg xmlns="http://www.w3.org/2000/svg" width="96" height="96"><path fill="#3EDAB4" d="M52 52h32v32H52z"/><path fill="#6D1AFF" d="M12 52h32v32H12z"/><path fill="#F55376" d="M52 12h32v32H52z"/><path fill="#3DD9EB" d="M12 12h32v32H12z"/><path fill="#BFFEFE" d="m32 18 3.313 1.375c3.16 3.087 3.295 4.2 3.624 8.5-.17 3.672-.397 5.487-2.789 8.313-2.41 1.741-4.28 3-7.148 3.812-2.594-.781-2.594-.781-5-2l-3.312-1.375c-3.16-3.087-3.296-4.2-3.625-8.5.17-3.672.397-5.487 2.789-8.312C24.5 16.454 26.698 15.314 32 18"/><path fill="#D9B4FF" d="M27 56c3.68 1.536 5.988 3.782 8.75 6.625l2.422 2.477L40 67c-1.532 3.63-3.718 5.986-6.5 8.75l-2.406 2.422C29 80 29 80 27 80c-1.621-1.645-1.621-1.645-3.437-3.812C21.455 73.689 19.348 71.276 17 69c1.396-3.186 3.046-5.24 5.563-7.625C25.14 58.955 25.14 58.955 27 56"/><path fill="#F9C4D2" d="M67 19c3.48 1.16 3.723 1.727 5.48 4.781l1.338 2.301 1.37 2.418 1.404 2.418C80 36.831 80 36.831 80 38H56c3.481-6.477 7.03-12.812 11-19"/><path fill="#BAF3E7" d="M67 57h2l2 6 8 1-2.625 2.375c-1.955 2.278-2.393 3.204-2.262 6.25A80 80 0 0 0 76 80l-3.187-2.125c-3.031-1.78-3.031-1.78-6.5-1.25L64 78a407 407 0 0 1-4 2l.613-1.977C62.13 72.95 62.13 72.95 61.02 68c-1.515-1.833-1.515-1.833-4.02-4l8-1z"/></svg>