<svg xmlns="http://www.w3.org/2000/svg" width="512" height="512"><path fill="#F34F50" d="m302 3 3.02.586C351.474 12.765 394.276 33.693 429 66a776 776 0 0 0 4.188 3.625C439.658 75.276 445.485 81.42 451 88l1.285 1.53C464.553 104.233 475.133 120.027 484 137l1.194 2.256C496.722 161.313 504.5 185.551 509 210l.487 2.426c5.492 28.078 5.247 61.564-.487 89.574l-.586 3.02C500.474 345.203 483.833 383.107 458 415l-2.129 2.71C433.814 445.416 406.301 467.549 375 484l-2.27 1.203C350.68 496.727 326.443 504.502 302 509l-2.426.487C271.496 514.98 238.01 514.734 210 509l-3.02-.586C166.797 500.474 128.893 483.833 97 458l-2.71-2.129C66.584 433.814 44.451 406.301 28 375l-1.203-2.27C15.273 350.68 7.498 326.443 3 302l-.487-2.426C-2.98 271.496-2.734 238.01 3 210l.586-3.02C12.766 160.524 33.694 117.727 66 83q1.788-2.056 3.563-4.125c6.02-6.874 12.475-12.89 19.609-18.602a233 233 0 0 0 5.344-4.421C107.442 44.868 121.989 35.842 137 28l2.256-1.194C161.313 15.278 185.551 7.5 210 3l2.426-.487C240.504-2.98 273.99-2.734 302 3"/><path fill="#CDE9FE" d="m115.97 115.866 3.05-.014h3.345l3.559-.01q4.89-.014 9.783-.017 5.275-.007 10.55-.022c8.496-.02 16.991-.03 25.486-.039q6.006-.007 12.01-.015a54435 54435 0 0 1 50.309-.044l2.602-.002c13.897-.008 27.794-.033 41.691-.066q21.417-.049 42.834-.054c8.012-.002 16.025-.01 24.037-.036q10.24-.034 20.48-.02c3.479.004 6.958.002 10.437-.017 3.783-.018 7.566-.01 11.35.002l3.284-.033c11.964.1 22.451 3.665 32.223 10.521l1.855 1.262C435.338 135.25 442.653 149.233 445 162c.267 3.58.254 7.142.227 10.73v3.167c0 3.43-.016 6.86-.032 10.29l-.008 7.163c-.008 6.267-.028 12.534-.05 18.8-.02 6.402-.03 12.804-.04 19.205Q445.067 250.178 445 269l-2.102 1.172-9.636 5.383-3.304 1.842a1141 1141 0 0 0-22.145 12.728 837 837 0 0 1-25.738 14.48c-7.984 4.32-15.864 8.81-23.735 13.333a2806 2806 0 0 1-19.598 11.125c-4.923 2.776-9.84 5.561-14.746 8.367C291.63 355.905 263.37 365.926 226 356c-17.35-4.823-32.925-14.87-48.414-23.797-6-3.452-12.041-6.83-18.086-10.203a2691 2691 0 0 1-25.692-14.533 3637 3637 0 0 0-19.183-10.904l-2.877-1.626q-7.422-4.194-14.857-8.367l-3.054-1.717q-2.841-1.597-5.686-3.189a188 188 0 0 1-5.149-3.003c-2.984-1.75-2.984-1.75-6.334-2.891-3.952-1.724-7.095-3.236-9.668-6.77-2.471-7.45-1.58-15.852-1.375-23.582q.025-3.509.034-7.016c.026-4.898.094-9.793.195-14.69.13-6.253.192-12.506.226-18.761.035-5.99.1-11.98.17-17.97l.035-3.432c.04-3.233.1-6.464.168-9.697l.03-2.845C66.877 155.56 73.223 141.074 84 130c8.804-7.719 20-14.11 31.97-14.134"/><path fill="#F8BB49" d="m302 3 3.02.586C351.474 12.765 394.276 33.693 429 66a776 776 0 0 0 4.188 3.625C439.658 75.276 445.485 81.42 451 88l1.285 1.53C464.553 104.233 475.133 120.027 484 137l1.194 2.256C496.722 161.313 504.5 185.551 509 210l.487 2.426c5.492 28.078 5.247 61.564-.487 89.574l-.586 3.02C503.71 328.825 496.016 351.385 485 373h-1l.03-1.942c.228-15.652.367-31.303.408-46.957.022-7.57.073-15.14.196-22.71q.164-9.905.14-19.812c-.006-3.493.014-6.981.103-10.473.874-15.962.874-15.962-5.335-30.044-3.238-3.3-6.742-6.047-10.555-8.651-3.054-2.168-5.657-4.7-8.362-7.286l-2.586-2.367-1.35-1.32c-1.742-1.57-1.742-1.57-4.233-2.907-3.983-2.656-6.905-5.062-7.989-9.916-.8-7.265-.531-14.572-.342-21.865q.107-6.539.133-13.078l.014-3.147c-.058-7.823-1.018-14.323-4.272-21.525l-.89-1.988c-7.346-14.843-18.53-23.68-34.11-29.012-3.422-.8-6.585-1.127-10.095-1.134l-3.058-.014h-3.34l-3.563-.01q-4.89-.014-9.781-.017-5.278-.007-10.555-.022c-8.495-.02-16.99-.03-25.485-.039l-12.01-.015a54466 54466 0 0 0-50.305-.044l-2.601-.002c-13.898-.008-27.796-.033-41.694-.066q-21.419-.049-42.837-.054c-8.013-.002-16.026-.01-24.038-.036q-10.239-.034-20.477-.02c-3.479.004-6.957.002-10.436-.017-3.782-.018-7.563-.01-11.344.002l-3.291-.033c-11.705.098-21.513 3.924-31.09 10.521l-1.86 1.227C76.887 135.894 69.88 150.62 68 163c-.136 3.617.025 7.202.184 10.816q.064 3.128.115 6.256c.057 3.24.137 6.47.3 9.708.903 18.927.903 18.927-5.253 26.102-3.503 3.508-7.27 6.577-11.25 9.526-3.07 2.331-5.803 4.936-8.596 7.592-5.327 4.878-5.327 4.878-7.713 6.565-3.547 2.682-6.304 4.84-7.622 9.192-.311 3.299-.344 6.496-.279 9.81l-.033 3.757c-.022 3.379-.004 6.753.033 10.132.028 3.538.005 7.076-.012 10.614-.025 6.69-.005 13.38.032 20.07.04 7.62.03 15.24.014 22.86-.03 15.668.004 31.333.08 47-14.668-19.233-20.555-47.68-25-71l-.496-2.448C-2.981 271.482-2.732 238 3 210l.586-3.02C12.766 160.524 33.694 117.727 66 83q1.788-2.056 3.563-4.125c6.02-6.874 12.475-12.89 19.609-18.602a233 233 0 0 0 5.344-4.421C107.442 44.868 121.989 35.842 137 28l2.256-1.194C161.313 15.278 185.551 7.5 210 3l2.426-.487C240.504-2.98 273.99-2.734 302 3"/><path fill="#232F7B" d="M161.016 139.582c5.886 1.24 9.643 5.722 12.984 10.418 4.397 8.161 3.774 15.79 1.205 24.424q-.69 2.22-1.426 4.423c-1.473 4.518-2.144 8.335-1.779 13.153 1.9 2.849 3.748 3.332 7 4 2.887.105 5.754.16 8.64.176q2.593.034 5.184.072c2.71.035 5.42.064 8.13.078 2.625.016 5.25.056 7.874.1l2.422-.006c6.532.14 11.857 1.958 16.75 6.393 1.477 3.23 1.37 5.678 1 9.187-1.825 4.13-4.384 6.361-8 9l2.875 1.813C227 225 227 225 229 228c.472 4.166.261 6.477-1.625 10.25-2.574 2.98-4.757 4.27-8.375 5.75l2.938 2.375c3.08 2.491 3.943 3.755 4.5 7.813-.58 5.054-2.505 7.655-6.438 10.812-2.393 1.08-4.389 1.53-7 2l2.5 1.625C218 271 218 271 218.563 274c-.695 3.701-1.55 4.78-4.563 7-4.08 1.6-7.536 2.26-11.907 2.306l-3.46.049-3.703.016c-1.273.01-2.546.018-3.857.027q-4.036.023-8.074.028c-3.416.005-6.83.042-10.246.088-3.295.038-6.59.039-9.886.045l-3.666.059c-8.406-.044-14.699-1.883-22.201-5.618-11.589-5.412-18.961-5.298-33-6v-70l18-1c7.125-1.331 11.005-2.825 15.473-8.574 5.998-9.527 8.84-20.602 10.199-31.676l.357-2.834q.341-2.806.618-5.619c.526-4.416.958-6.779 3.708-10.39 2.958-2.132 5.017-2.578 8.66-2.325"/><path fill="#AD3C3C" d="M296.824 74.781C303.332 79.356 309.19 84.584 315 90q1.528 1.41 3.059 2.816 3.274 3.015 6.539 6.04 3.53 3.267 7.086 6.507l1.809 1.655a1149 1149 0 0 0 3.457 3.15c3.938 3.607 3.938 3.607 5.05 5.832H170c3.862-4.506 7.234-8.304 11.563-12.187l3.156-2.848 1.633-1.47a432 432 0 0 0 4.93-4.554C205.157 81.952 218.191 70.84 237 66l3.836-1.082c17.862-4.4 40.6.158 55.988 9.863"/><path fill="#F25052" d="m279.87 168.482 3.93-.02c3.546-.019 7.09-.012 10.636 0 3.718.01 7.436.001 11.153-.005q9.366-.01 18.73.022c7.207.021 14.414.014 21.622-.008q9.297-.026 18.594-.01c3.697.006 7.395.007 11.092-.006 4.125-.014 8.248.005 12.373.027l3.692-.024c6.646.066 10.956.467 16.308 4.542 4.839 6.24 5.627 11.318 5 19-1.235 5.62-3.503 9.29-8 13-3.095 1.032-5.239 1.133-8.483 1.147l-3.454.022-3.793.008-3.992.02q-6.555.028-13.11.041l-4.516.013q-10.607.029-21.214.041-12.24.015-24.48.077-9.464.044-18.927.048c-3.767.002-7.534.011-11.302.036q-5.317.034-10.635.018c-1.916-.001-3.833.018-5.75.038-6.38-.039-10.55-.094-15.344-4.509-4.013-5.322-4.69-11.632-4.45-18.129.896-5.719 3.542-9.15 7.75-12.946 4.958-3.219 10.875-2.48 16.57-2.443"/><path fill="#F24F50" d="m268.61 248.712 2.868-.039 3.14-.011 3.312-.035c3.624-.034 7.247-.053 10.87-.068l3.748-.021q8.801-.05 17.603-.07 10.151-.02 20.301-.127c5.866-.058 11.732-.077 17.599-.083q3.74-.012 7.48-.06c3.488-.04 6.974-.038 10.462-.024l3.123-.067c6.831.09 6.831.09 9.86 2.401 5.486 6.173 5.52 12.605 5.38 20.512-.451 5.049-1.767 8.4-5.356 11.98-3.17 2.114-3.95 2.253-7.58 2.274l-2.845.03-3.117.002-3.288.026c-3.596.024-7.191.032-10.787.04l-7.485.026q-7.85.024-15.701.028-8.066.005-16.133.061-9.73.065-19.462.065-3.712.006-7.423.038c-3.46.027-6.918.022-10.378.01l-3.105.044c-6.953-.072-6.953-.072-10.76-3.003-5.57-7.598-6.013-14.399-4.936-23.641 2.33-6.134 5.741-10.227 12.61-10.288"/><path fill="#AE403F" d="M67 211v58l-11-6a4239 4239 0 0 0-5.676-3.07l-5.636-3.055-2.877-1.55C37.05 252.74 32.439 250.107 28 247c2.68-3.435 5.375-6.42 8.691-9.25 4.189-3.621 8.225-7.382 12.246-11.187C65.47 211 65.47 211 67 211M445 211c8.936 6.702 8.936 6.702 13 10.938 3.452 3.525 6.96 6.852 10.707 10.058 5.204 4.548 10.228 9.302 15.293 14.004-4.717 4.204-10.146 6.928-15.687 9.875-6.56 3.507-13.018 7.085-19.328 11.028C447 268 447 268 445 268z"/></svg>