<?xml version="1.0" encoding="UTF-8"?>
<svg version="1.1" xmlns="http://www.w3.org/2000/svg" width="100" height="100">
<path d="M0 0 C6.99167793 6.1204408 12.51564576 15.1095427 14.5078125 24.1953125 C14.7346875 25.1646875 14.9615625 26.1340625 15.1953125 27.1328125 C16.68345059 41.71656581 13.25804863 54.73876084 4.1953125 66.31640625 C-4.12334079 75.5786105 -15.738011 80.31712298 -27.921875 81.4140625 C-39.37488043 81.85315536 -51.37768839 78.38771291 -60.16015625 70.9296875 C-70.61242245 60.86339863 -76.20674591 50.21347598 -76.7421875 35.5703125 C-76.56576806 20.92749899 -70.65109857 10.26856665 -60.4921875 0.1953125 C-42.26520034 -15.40333168 -18.70731358 -13.54667535 0 0 Z " fill="#FCFBFB" transform="translate(80.4921875,14.8046875)"/>
<path d="M0 0 C7.95313861 4.64416853 13.21234729 11.46516688 16.140625 20.25 C16.77737334 28.95570678 16.92976837 36.67958393 12.140625 44.25 C11.70492187 44.95769531 11.26921875 45.66539063 10.8203125 46.39453125 C6.12302531 53.31212086 0.14502904 57.01462375 -7.859375 59.25 C-17.33820995 60.25054369 -24.90117656 59.6651651 -32.859375 54.25 C-33.44203125 53.86585937 -34.0246875 53.48171875 -34.625 53.0859375 C-40.54890978 48.68788327 -43.9260892 42.22515889 -45.859375 35.25 C-46.86106481 25.76030707 -46.26377575 18.2214911 -40.859375 10.25 C-40.1375 9.1775 -39.415625 8.105 -38.671875 7 C-28.25400513 -3.18636165 -13.39788141 -6.38839378 0 0 Z " fill="#FF5778" transform="translate(64.859375,21.75)"/>
<path d="M0 0 C6.99167793 6.1204408 12.51564576 15.1095427 14.5078125 24.1953125 C14.7346875 25.1646875 14.9615625 26.1340625 15.1953125 27.1328125 C16.68345059 41.71656581 13.25804863 54.73876084 4.1953125 66.31640625 C-4.12334079 75.5786105 -15.738011 80.31712298 -27.921875 81.4140625 C-39.37488043 81.85315536 -51.37768839 78.38771291 -60.16015625 70.9296875 C-70.61242245 60.86339863 -76.20674591 50.21347598 -76.7421875 35.5703125 C-76.56576806 20.92749899 -70.65109857 10.26856665 -60.4921875 0.1953125 C-42.26520034 -15.40333168 -18.70731358 -13.54667535 0 0 Z M-63.3046875 10.5078125 C-71.08797732 21.36821691 -71.79567112 32.13480597 -70.4921875 45.1953125 C-68.38558646 55.40422525 -61.147761 63.73069316 -52.8359375 69.6875 C-42.78592113 76.15301053 -32.17673405 76.50994662 -20.4921875 75.1953125 C-10.03906577 72.84222882 -1.43358952 66.02115246 4.4453125 57.1328125 C8.68511056 50.02349332 10.0436965 43.46759258 9.9453125 35.3203125 C9.93286499 33.99422974 9.93286499 33.99422974 9.92016602 32.64135742 C9.63712266 21.72756819 5.98562197 14.14602691 -1.4921875 6.1953125 C-11.1401971 -2.87883779 -20.16302498 -5.41809093 -33.16064453 -5.27539062 C-45.94998701 -4.82403031 -55.15081629 0.68846972 -63.3046875 10.5078125 Z " fill="#484F57" transform="translate(80.4921875,14.8046875)"/>
<path d="M0 0 C2 1.5 2 1.5 3 3 C5.6905528 1.77992056 5.6905528 1.77992056 8 0 C11.49225533 -0.26356644 14.17239929 -0.3395285 17.4375 1 C19.41010733 3.52493738 19.73951596 5.63754828 19.58203125 8.81640625 C18.42224171 13.16756296 15.12971347 15.92707569 12 19 C11.46375 19.61746094 10.9275 20.23492187 10.375 20.87109375 C8.875 22.5625 8.875 22.5625 6 25 C2.3086781 24.98757131 0.97366889 23.97758978 -1.859375 21.56640625 C-2.83336235 20.57526194 -3.79672848 19.57358448 -4.75 18.5625 C-5.24371094 18.05912109 -5.73742188 17.55574219 -6.24609375 17.03710938 C-9.68613057 13.48868784 -10.93164035 12.07666448 -11.25 7.0625 C-11.19620396 4.59236504 -11.11352032 3.22704063 -10 1 C-6.76507757 -0.61746122 -3.5365162 -0.57468388 0 0 Z " fill="#FFFAFB" transform="translate(46,40)"/>
</svg>
