<svg xmlns="http://www.w3.org/2000/svg" width="100" height="100"><path fill="#FCFBFB" d="M80.492 14.805C87.484 20.925 93.008 29.915 95 39l.688 2.938c1.488 14.583-1.938 27.605-11 39.183-8.32 9.262-19.934 14-32.118 15.098-11.453.439-23.456-3.027-32.238-10.485C9.88 75.668 4.285 65.018 3.75 50.375 3.926 35.732 9.841 25.073 20 15 38.227-.599 61.785 1.258 80.492 14.805"/><path fill="#FF5778" d="M64.86 21.75C72.812 26.394 78.071 33.215 81 42c.637 8.706.79 16.43-4 24l-1.32 2.145C70.982 75.062 65.004 78.765 57 81c-9.479 1-17.042.415-25-5l-1.766-1.164C24.31 70.438 20.934 63.976 19 57c-1.002-9.49-.404-17.029 5-25l2.188-3.25c10.417-10.186 25.273-13.388 38.671-7"/><path fill="#484F57" d="M80.492 14.805C87.484 20.925 93.008 29.915 95 39l.688 2.938c1.488 14.583-1.938 27.605-11 39.183-8.32 9.262-19.934 14-32.118 15.098-11.453.439-23.456-3.027-32.238-10.485C9.88 75.668 4.285 65.018 3.75 50.375 3.926 35.732 9.841 25.073 20 15 38.227-.599 61.785 1.258 80.492 14.805M17.187 25.313C9.404 36.173 8.698 46.939 10 60c2.107 10.209 9.344 18.535 17.656 24.492C37.706 90.958 48.316 91.315 60 90c10.453-2.353 19.059-9.174 24.938-18.062 4.24-7.11 5.598-13.666 5.5-21.813l-.026-2.679C90.13 36.532 86.478 28.951 79 21 69.352 11.926 60.33 9.387 47.332 9.53c-12.79.45-21.99 5.963-30.144 15.783"/><path fill="#FFFAFB" d="M46 40c2 1.5 2 1.5 3 3 2.69-1.22 2.69-1.22 5-3 3.492-.264 6.172-.34 9.438 1 1.972 2.525 2.302 4.638 2.144 7.816C64.422 53.168 61.13 55.927 58 59l-1.625 1.871c-1.5 1.691-1.5 1.691-4.375 4.129-3.691-.012-5.026-1.022-7.86-3.434a202 202 0 0 1-2.89-3.004l-1.496-1.525c-3.44-3.548-4.686-4.96-5.004-9.974.054-2.47.136-3.836 1.25-6.063 3.235-1.617 6.463-1.575 10-1"/></svg>