<?xml version="1.0" encoding="UTF-8"?>
<svg version="1.1" xmlns="http://www.w3.org/2000/svg" width="100" height="100">
<path d="M0 0 C0.79921875 0.00902344 1.5984375 0.01804687 2.421875 0.02734375 C3.02515625 0.03894531 3.6284375 0.05054687 4.25 0.0625 C4.745 2.0425 4.745 2.0425 5.25 4.0625 C6.36375 4.1553125 6.36375 4.1553125 7.5 4.25 C11.11782848 5.31890387 12.18843714 6.97015572 14.25 10.0625 C16.33843464 16.32780391 16.62056265 23.94385446 13.9453125 30.03125 C12.90540378 31.68316241 11.81424954 33.30464661 10.66015625 34.87890625 C9.10069355 37.29369752 8.64240181 39.23621356 8.25 42.0625 C12.705 44.0425 12.705 44.0425 17.25 46.0625 C18.178125 45.2375 19.10625 44.4125 20.0625 43.5625 C22.875 41.0625 22.875 41.0625 26.25 41.0625 C25.755 40.27875 25.26 39.495 24.75 38.6875 C23.25 36.0625 23.25 36.0625 23.25 34.0625 C22.59 34.0625 21.93 34.0625 21.25 34.0625 C19.28538285 30.1332657 20.45680921 25.25853985 21.25 21.0625 C23.3973382 17.48360299 24.3051632 16.3774456 28.25 15.0625 C33.94818352 14.52493552 36.80134467 15.46120759 41.25 19.0625 C43.33863088 23.23976175 42.69420449 28.513846 42.25 33.0625 C41.21731505 35.72496735 40.24642937 36.94863361 38.25 39.0625 C37.59 39.0625 36.93 39.0625 36.25 39.0625 C36.25 39.7225 36.25 40.3825 36.25 41.0625 C36.971875 41.145 37.69375 41.2275 38.4375 41.3125 C42.53848739 42.40609664 45.18463742 44.48982191 47.5625 48 C48.25 50.0625 48.25 50.0625 48.25 55.0625 C35.875 55.5575 35.875 55.5575 23.25 56.0625 C23.25 58.7025 23.25 61.3425 23.25 64.0625 C6.75 64.0625 -9.75 64.0625 -26.75 64.0625 C-26.75 61.4225 -26.75 58.7825 -26.75 56.0625 C-35 55.7325 -43.25 55.4025 -51.75 55.0625 C-50.58333333 46.89583333 -50.58333333 46.89583333 -46.75 43.0625 C-44.06591712 41.35444726 -42.98830467 41.0625 -39.75 41.0625 C-39.75 40.4025 -39.75 39.7425 -39.75 39.0625 C-40.41 39.0625 -41.07 39.0625 -41.75 39.0625 C-45.9274266 34.51647693 -46.3140242 30.71109684 -46.07421875 24.625 C-45.55804581 20.54536809 -44.28037389 18.25279081 -41.0625 15.75 C-37.582118 14.71529184 -34.37344134 14.94171862 -30.75 15.0625 C-30.75 15.7225 -30.75 16.3825 -30.75 17.0625 C-29.574375 17.371875 -29.574375 17.371875 -28.375 17.6875 C-25.75 19.0625 -25.75 19.0625 -24.4375 21.75 C-23.57398369 25.9105786 -22.79280959 30.14811917 -24.75 34.0625 C-25.41 34.0625 -26.07 34.0625 -26.75 34.0625 C-27.2140625 35.238125 -27.2140625 35.238125 -27.6875 36.4375 C-28.75 39.0625 -28.75 39.0625 -29.75 41.0625 C-29.028125 41.145 -28.30625 41.2275 -27.5625 41.3125 C-24.19686746 42.21000201 -22.33387184 43.7739278 -19.75 46.0625 C-17.11 44.7425 -14.47 43.4225 -11.75 42.0625 C-12.29233466 38.15769048 -13.33592594 36.12651707 -15.75 33.0625 C-18.38769469 28.56405535 -19.15922447 25.26461915 -19.125 20.0625 C-19.13660156 18.2990625 -19.13660156 18.2990625 -19.1484375 16.5 C-18.52153458 11.09142575 -16.50575437 7.21480484 -12.3125 3.75 C-11.44818359 3.01330078 -11.44818359 3.01330078 -10.56640625 2.26171875 C-7.17924412 0.02546332 -3.97734456 -0.05849036 0 0 Z " fill="#4EC2F6" transform="translate(51.75,17.9375)"/>
<path d="M0 0 C0.79921875 0.00902344 1.5984375 0.01804687 2.421875 0.02734375 C3.02515625 0.03894531 3.6284375 0.05054687 4.25 0.0625 C4.58 1.3825 4.91 2.7025 5.25 4.0625 C6.36375 4.1553125 6.36375 4.1553125 7.5 4.25 C11.11782848 5.31890387 12.18843714 6.97015572 14.25 10.0625 C16.29093917 16.18531751 16.64556852 23.79836825 14.0859375 29.78515625 C13.06593516 31.39362148 12.00637905 32.97763875 10.91015625 34.53515625 C8.41608538 38.33201238 6.94410163 42.46293407 5.328125 46.69140625 C4.25 49.0625 4.25 49.0625 2.25 50.0625 C-5.11863023 50.53034954 -5.11863023 50.53034954 -7.37890625 48.85546875 C-9.02107164 46.7080217 -9.83302881 44.66577435 -10.75 42.125 C-12.0320879 38.58323219 -13.48322952 36.0489701 -15.75 33.0625 C-18.41048448 28.56590652 -19.15930157 25.27633873 -19.125 20.0625 C-19.13273437 18.886875 -19.14046875 17.71125 -19.1484375 16.5 C-18.52153458 11.09142575 -16.50575437 7.21480484 -12.3125 3.75 C-11.73628906 3.25886719 -11.16007812 2.76773437 -10.56640625 2.26171875 C-7.17924412 0.02546332 -3.97734456 -0.05849036 0 0 Z " fill="#F7C327" transform="translate(51.75,17.9375)"/>
<path d="M0 0 C5.53846154 3.07692308 5.53846154 3.07692308 7 6 C8.02825282 17.26021125 8.02825282 17.26021125 5.125 21.75 C4.42375 22.4925 3.7225 23.235 3 24 C2.34 24 1.68 24 1 24 C0.67 25.65 0.34 27.3 0 29 C-3.1875 29.5 -3.1875 29.5 -7 29 C-9.55351065 26.23158994 -12 22.86112137 -12 19 C-12.66 19 -13.32 19 -14 19 C-15.96461715 15.0707657 -14.79319079 10.19603985 -14 6 C-10.45102005 0.08503342 -6.67788156 -0.56592217 0 0 Z " fill="#F7C426" transform="translate(87,33)"/>
<path d="M0 0 C0 0.66 0 1.32 0 2 C1.175625 2.309375 1.175625 2.309375 2.375 2.625 C5 4 5 4 6.3125 6.6875 C7.17601631 10.8480786 7.95719041 15.08561917 6 19 C5.34 19 4.68 19 4 19 C3.731875 19.721875 3.46375 20.44375 3.1875 21.1875 C0.8125 26.8125 0.8125 26.8125 -1 29 C-4.6875 29.3125 -4.6875 29.3125 -8 29 C-8.33 27.35 -8.66 25.7 -9 24 C-9.66 24 -10.32 24 -11 24 C-15.1774266 19.45397693 -15.5640242 15.64859684 -15.32421875 9.5625 C-14.80804581 5.48286809 -13.53037389 3.19029081 -10.3125 0.6875 C-6.832118 -0.34720816 -3.62344134 -0.12078138 0 0 Z " fill="#F7C426" transform="translate(21,33)"/>
<path d="M0 0 C0.79921875 0.00902344 1.5984375 0.01804687 2.421875 0.02734375 C3.02515625 0.03894531 3.6284375 0.05054687 4.25 0.0625 C4.58 1.3825 4.91 2.7025 5.25 4.0625 C6.36375 4.1553125 6.36375 4.1553125 7.5 4.25 C11.11782848 5.31890387 12.18843714 6.97015572 14.25 10.0625 C15.25496852 13.07740557 15.35335303 15.10431692 15.3125 18.25 C15.30347656 19.15105469 15.29445312 20.05210938 15.28515625 20.98046875 C15.27355469 21.66753906 15.26195312 22.35460937 15.25 23.0625 C13.93 23.3925 12.61 23.7225 11.25 24.0625 C11.188125 23.010625 11.12625 21.95875 11.0625 20.875 C10.11591384 16.4333265 8.65843742 14.94656243 5.25 12.0625 C4.56035156 12.25585938 3.87070312 12.44921875 3.16015625 12.6484375 C-2.78171334 14.29488147 -8.71970983 15.77735619 -14.75 17.0625 C-14.75 19.3725 -14.75 21.6825 -14.75 24.0625 C-16.07 23.7325 -17.39 23.4025 -18.75 23.0625 C-19.33243451 12.14724576 -19.33243451 12.14724576 -15.75 7.0625 C-10.76782857 1.94795204 -7.20343901 -0.10593293 0 0 Z " fill="#795547" transform="translate(51.75,17.9375)"/>
<path d="M0 0 C0.66 0.99 1.32 1.98 2 3 C5.56769552 3.73606499 5.56769552 3.73606499 9 4 C9 3.01 9 2.02 9 1 C13.86831281 1.45286631 16.48559226 2.58321469 20 6 C22.0855699 9.07869842 22.06615749 11.34930943 22 15 C17.5838301 15.17411103 13.16853997 15.28079762 8.75 15.375 C7.49574219 15.42527344 6.24148437 15.47554687 4.94921875 15.52734375 C-4.08639088 15.67230005 -4.08639088 15.67230005 -6.74975586 13.71240234 C-8.27262954 11.50458856 -8.98361477 9.55709798 -9.0625 6.875 C-6.97640147 3.19364966 -3.93492525 1.31164175 0 0 Z " fill="#2296F1" transform="translate(78,58)"/>
<path d="M0 0 C8.25278059 3.26996967 8.25278059 3.26996967 10 6 C9.76844946 9.47325809 8.08303552 12.27487787 6 15 C3.1809082 15.56762695 3.1809082 15.56762695 -0.19921875 15.48828125 C-2.01196289 15.46411133 -2.01196289 15.46411133 -3.86132812 15.43945312 C-5.7552832 15.37661133 -5.7552832 15.37661133 -7.6875 15.3125 C-9.59885742 15.27866211 -9.59885742 15.27866211 -11.54882812 15.24414062 C-14.7003896 15.18512262 -17.84961279 15.10282975 -21 15 C-20.38611852 9.72309964 -19.82616625 6.82616625 -16 3 C-12.94024557 0.99203616 -11.85514114 1 -8 1 C-8 1.99 -8 2.98 -8 4 C-4.535 3.505 -4.535 3.505 -1 3 C-0.67 2.01 -0.34 1.02 0 0 Z " fill="#2296F1" transform="translate(21,58)"/>
<path d="M0 0 C5.53846154 3.07692308 5.53846154 3.07692308 7 6 C7.06950541 7.54023996 7.08452357 9.08334988 7.0625 10.625 C7.05347656 11.44226562 7.04445313 12.25953125 7.03515625 13.1015625 C7.02355469 13.72804688 7.01195313 14.35453125 7 15 C6.01 15.495 6.01 15.495 5 16 C4.5359375 14.2984375 4.5359375 14.2984375 4.0625 12.5625 C3.37075469 9.21224901 3.37075469 9.21224901 2 8 C-2.70310404 8.47828177 -7.34297349 9.18502036 -12 10 C-12 12.31 -12 14.62 -12 17 C-12.33 16.34 -12.66 15.68 -13 15 C-13.66 15 -14.32 15 -15 15 C-14.74779531 9.21190227 -14.43487494 5.17399994 -10 1 C-6.38069302 -0.20643566 -3.80768995 -0.32268559 0 0 Z " fill="#454441" transform="translate(87,33)"/>
<path d="M0 0 C0 0.66 0 1.32 0 2 C1.175625 2.309375 1.175625 2.309375 2.375 2.625 C5 4 5 4 6.3125 6.8125 C6.94308915 9.7361406 7.41114621 12.03974732 7 15 C6.01 15.66 5.02 16.32 4 17 C3.87625 15.906875 3.7525 14.81375 3.625 13.6875 C3.24535199 9.92618198 3.24535199 9.92618198 1 7 C-0.79236067 7.47656412 -2.58386897 7.95633498 -4.375 8.4375 C-5.37273438 8.70433594 -6.37046875 8.97117187 -7.3984375 9.24609375 C-9.95417701 9.90184356 -9.95417701 9.90184356 -12 11 C-12.65555119 13.52733235 -12.65555119 13.52733235 -13 16 C-13.66 15.67 -14.32 15.34 -15 15 C-15.44811859 6.18700114 -15.44811859 6.18700114 -12 2 C-8.41196627 -0.7906929 -4.33960021 -0.14465334 0 0 Z " fill="#454442" transform="translate(21,33)"/>
<path d="M0 0 C0.85271484 0.24363281 0.85271484 0.24363281 1.72265625 0.4921875 C7.02361555 1.67421959 12.76032866 1.35217325 18 0 C17.10164835 7.78571429 17.10164835 7.78571429 15 11 C11.81654966 12.59172517 8.46529023 12.39135721 5 12 C1.9895291 10.09336843 1.05686793 7.33319886 0 4 C0 2.68 0 1.36 0 0 Z " fill="#EBB307" transform="translate(41,56)"/>
<path d="M0 0 C0.66 2.31 1.32 4.62 2 7 C5.96 7 9.92 7 14 7 C14.66 4.69 15.32 2.38 16 0 C18.475 0.495 18.475 0.495 21 1 C19.25038544 5.54899787 17.87333999 8.85291126 14 12 C9.54947906 13.48350698 5.71711356 13.67885885 1.3125 11.9375 C-1.84340754 9.29336125 -3.18465443 6.69792616 -5 3 C-5 2.34 -5 1.68 -5 1 C-2 0 -2 0 0 0 Z " fill="#10639D" transform="translate(42,60)"/>
<path d="M0 0 C0.33 0.66 0.66 1.32 1 2 C0.67 2.99 0.34 3.98 0 5 C-2.31 5 -4.62 5 -7 5 C-7.33 3.68 -7.66 2.36 -8 1 C-5.36 0.67 -2.72 0.34 0 0 Z " fill="#CB9E0F" transform="translate(87,57)"/>
<path d="M0 0 C0.5625 1.9375 0.5625 1.9375 1 4 C0 5 0 5 -3.5625 5.0625 C-4.696875 5.041875 -5.83125 5.02125 -7 5 C-7.33 3.68 -7.66 2.36 -8 1 C-5.36 0.67 -2.72 0.34 0 0 Z " fill="#CB9E0F" transform="translate(20,57)"/>
<path d="M0 0 C0.33 0 0.66 0 1 0 C1 2.97 1 5.94 1 9 C0.01 9 -0.98 9 -2 9 C-2.33 9.66 -2.66 10.32 -3 11 C-3.33 9.35 -3.66 7.7 -4 6 C-2.68 6.33 -1.36 6.66 0 7 C0 4.69 0 2.38 0 0 Z " fill="#D7A82F" transform="translate(37,35)"/>
<path d="M0 0 C0.33 0 0.66 0 1 0 C1 2.31 1 4.62 1 7 C2.32 6.67 3.64 6.34 5 6 C4.67 7.65 4.34 9.3 4 11 C3.67 10.01 3.34 9.02 3 8 C2.01 8 1.02 8 0 8 C0 5.36 0 2.72 0 0 Z " fill="#D3A530" transform="translate(62,35)"/>
</svg>
