<svg xmlns="http://www.w3.org/2000/svg" width="48" height="48"><path fill="#9fa8da" d="M45 45V25.9c0-1.8-.8-3.6-2.3-4.7L29.1 10.5c-.4-.3-.9-.3-1.2 0L14.3 21.2c-1.4 1.1-2.3 2.9-2.3 4.7V45c0 .6.4 1 1 1h31c.6 0 1-.4 1-1"/><path fill="none" stroke="#18193f" stroke-linecap="round" stroke-linejoin="round" stroke-miterlimit="10" stroke-width="3" d="m13.4 13.8-3.6 2.9c-1.4 1.1-2.3 2.9-2.3 4.7v18.1c0 1.1.9 2 2 2h20M35 41.5h3.5c1.1 0 2-.9 2-2V21.4c0-1.8-.8-3.6-2.3-4.7L24.6 6c-.4-.3-.9-.3-1.2 0l-4.6 3.6"/><path fill="none" stroke="#18193f" stroke-linecap="round" stroke-linejoin="round" stroke-miterlimit="10" stroke-width="3" d="M18.5 35.7v-8.2c0-.6.4-1 1-1h8.9c.6 0 1 .4 1 1v14"/></svg>