<?xml version="1.0" encoding="UTF-8"?>
<svg version="1.1" xmlns="http://www.w3.org/2000/svg" width="100" height="100">
<path d="M0 0 C6.28451725 1.89055962 11.48657479 5.02219634 17.07885742 8.39477539 C18.81907778 9.4414563 20.56818626 10.4720219 22.31835938 11.50195312 C23.41599609 12.16001953 24.51363281 12.81808594 25.64453125 13.49609375 C26.64846924 14.09607178 27.65240723 14.6960498 28.68676758 15.31420898 C31 17 31 17 32 20 C30.5625 23.1875 30.5625 23.1875 29 26 C30.32 27.32 31.64 28.64 33 30 C31.45872649 33.71268094 29.19156766 35.98115698 26.3125 38.75 C15.20413598 49.66656493 7.56695364 61.49855734 0 75 C-2.97 74.01 -2.97 74.01 -6 73 C-6.61875 73.7734375 -6.61875 73.7734375 -7.25 74.5625 C-9 76 -9 76 -11.0625 75.8125 C-13 75 -13 75 -15 73 C-17.26411418 73.21400945 -17.26411418 73.21400945 -20 74 C-21.3059146 74.32452063 -22.61191058 74.64871391 -23.91796875 74.97265625 C-26.0730959 75.52090784 -28.22725971 76.07273202 -30.38085938 76.62695312 C-35.78754579 78 -35.78754579 78 -38 78 C-37.67 79.65 -37.34 81.3 -37 83 C-39.24805002 83.67321284 -41.49852224 84.33834123 -43.75 85 C-45.00296875 85.37125 -46.2559375 85.7425 -47.546875 86.125 C-51 87 -51 87 -55 87 C-56.34252168 82.75284696 -57.67241974 78.50184488 -59 74.25 C-59.3815625 73.0434375 -59.763125 71.836875 -60.15625 70.59375 C-60.5171875 69.43359375 -60.878125 68.2734375 -61.25 67.078125 C-61.58515625 66.00981445 -61.9203125 64.94150391 -62.265625 63.84082031 C-63 61 -63 61 -63 57 C-60.94237091 56.29805625 -58.87863969 55.61398303 -56.8125 54.9375 C-55.66394531 54.55464844 -54.51539063 54.17179687 -53.33203125 53.77734375 C-50.02545492 53.00593849 -48.20917686 53.03906004 -45 54 C-44.33613281 52.91460937 -43.67226563 51.82921875 -42.98828125 50.7109375 C-42.09659913 49.26547386 -41.20465825 47.82016982 -40.3125 46.375 C-39.65991211 45.30572266 -39.65991211 45.30572266 -38.99414062 44.21484375 C-31.30909831 31.80492356 -31.30909831 31.80492356 -23.875 29.625 C-22.84117188 29.30789062 -21.80734375 28.99078125 -20.7421875 28.6640625 C-18 28 -18 28 -15 28 C-14.76023438 27.33742188 -14.52046875 26.67484375 -14.2734375 25.9921875 C-12.65989004 22.20084592 -10.6687742 18.69826536 -8.625 15.125 C-8.23828125 14.44308594 -7.8515625 13.76117188 -7.453125 13.05859375 C-6.30563711 11.03701274 -5.15361662 9.01808896 -4 7 C-3.41557129 5.97664551 -3.41557129 5.97664551 -2.81933594 4.93261719 C-1.87999996 3.28815852 -0.94006561 1.64404168 0 0 Z " fill="#FDB64D" transform="translate(65,5)"/>
<path d="M0 0 C4.06405122 0.32540103 6.89974062 1.92383746 10.3125 4.0625 C11.19550781 4.61035156 12.07851562 5.15820312 12.98828125 5.72265625 C13.65214844 6.14417969 14.31601563 6.56570312 15 7 C14.773125 7.9075 14.54625 8.815 14.3125 9.75 C13.65414813 12.98869914 13.65414813 12.98869914 15.48046875 15.203125 C15.98191406 15.79609375 16.48335937 16.3890625 17 17 C14.99233917 20.48330122 12.98425934 23.96636054 10.97583008 27.44921875 C9.96609926 29.20040015 8.95667793 30.95175998 7.94726562 32.703125 C6.62506588 34.99580633 5.29913133 37.28633782 3.96948242 39.57470703 C2.64482313 41.87853371 1.34497093 44.18388181 0.0715332 46.51513672 C-0.534729 47.60584473 -1.14099121 48.69655273 -1.765625 49.8203125 C-2.3009082 50.80273926 -2.83619141 51.78516602 -3.38769531 52.79736328 C-5 55 -5 55 -8.6875 55.625 C-9.780625 55.41875 -10.87375 55.2125 -12 55 C-14.35369807 55.88064927 -14.35369807 55.88064927 -16 57 C-16.66 56.34 -17.32 55.68 -18 55 C-17.14535156 54.01257813 -16.29070313 53.02515625 -15.41015625 52.0078125 C-14.2941626 50.71363499 -13.17828309 49.41935905 -12.0625 48.125 C-11.21655273 47.14853516 -11.21655273 47.14853516 -10.35351562 46.15234375 C-9.81533203 45.52714844 -9.27714844 44.90195312 -8.72265625 44.2578125 C-8.22515869 43.6817627 -7.72766113 43.10571289 -7.21508789 42.51220703 C-5.91115852 40.9986699 -5.91115852 40.9986699 -5 39 C-4.030625 38.54625 -3.06125 38.0925 -2.0625 37.625 C0.95547982 36.2778993 0.95547982 36.2778993 2.375 34.3125 C3.31887001 30.82018095 3.71042105 27.54507139 3 24 C0.08202904 20.39093066 -2.09721805 18.21622522 -6.75 17.6875 C-10.80901885 18.07779027 -12.83301684 19.49587378 -16 22 C-17.31417672 24.62835344 -16.88905705 26.3918988 -16.6875 29.3125 C-16.6406585 34.41153135 -16.6406585 34.41153135 -18.12109375 36.8359375 C-20.77975793 39.22528245 -22.84546607 39.9856913 -26.375 40.3125 C-27.24125 40.209375 -28.1075 40.10625 -29 40 C-28.40679542 35.75559446 -26.92265421 32.75255352 -24.76171875 29.0703125 C-24.10623047 27.94496094 -23.45074219 26.81960937 -22.77539062 25.66015625 C-22.07962623 24.48165324 -21.38366121 23.30326865 -20.6875 22.125 C-20.00259547 20.95481298 -19.31834449 19.78424317 -18.63476562 18.61328125 C-17.33249008 16.38553717 -16.02775836 14.15922652 -14.72021484 11.93457031 C-12.78741264 8.63734032 -10.88523011 5.32459603 -9 2 C-7.329375 2.061875 -7.329375 2.061875 -5.625 2.125 C-1.95633975 2.41121859 -1.95633975 2.41121859 0 0 Z " fill="#A2D3A3" transform="translate(72,14)"/>
<path d="M0 0 C6.28451725 1.89055962 11.48657479 5.02219634 17.07885742 8.39477539 C18.81907778 9.4414563 20.56818626 10.4720219 22.31835938 11.50195312 C23.41599609 12.16001953 24.51363281 12.81808594 25.64453125 13.49609375 C26.64846924 14.09607178 27.65240723 14.6960498 28.68676758 15.31420898 C31 17 31 17 32 20 C30.5625 23.1875 30.5625 23.1875 29 26 C30.32 27.32 31.64 28.64 33 30 C31.45872649 33.71268094 29.19156766 35.98115698 26.3125 38.75 C15.20413598 49.66656493 7.56695364 61.49855734 0 75 C-1.98 74.34 -3.96 73.68 -6 73 C-6.4125 73.515625 -6.825 74.03125 -7.25 74.5625 C-9 76 -9 76 -11 75.875 C-13.20700414 74.90943569 -14.42932829 73.80627247 -16 72 C-14.71107323 69.12470182 -13.50703617 66.94991702 -11 65 C-8.375 64.375 -8.375 64.375 -6 64 C-5.67 63.67 -5.34 63.34 -5 63 C-2.66055264 63.28730055 -0.3260857 63.61936779 2 64 C2.2475 63.15050781 2.495 62.30101562 2.75 61.42578125 C4.10446819 57.71369186 5.92079516 54.52114197 8 51.1875 C8.80161412 49.87811369 9.60235925 48.56819508 10.40234375 47.2578125 C10.82241699 46.57235352 11.24249023 45.88689453 11.67529297 45.18066406 C14.01287033 41.33266535 16.28566118 37.44663961 18.5625 33.5625 C19.00400391 32.81057373 19.44550781 32.05864746 19.90039062 31.28393555 C20.93423044 29.52299734 21.96721456 27.7615568 23 26 C22.484375 25.443125 21.96875 24.88625 21.4375 24.3125 C20 22 20 22 20.3125 19.25 C20.539375 18.5075 20.76625 17.765 21 17 C19.61133677 16.0106909 18.21370149 15.03396922 16.8125 14.0625 C16.03519531 13.51722656 15.25789063 12.97195312 14.45703125 12.41015625 C11.87910914 10.93061749 9.959426 10.23376978 7 10 C6.34 10.66 5.68 11.32 5 12 C1.375 11.625 1.375 11.625 -2 11 C-2.24621094 11.84691406 -2.49242188 12.69382812 -2.74609375 13.56640625 C-4.11744964 17.32161443 -5.96234796 20.56172666 -8.0625 23.9375 C-8.86476409 25.24988952 -9.66684152 26.56239316 -10.46875 27.875 C-10.88253906 28.54789063 -11.29632813 29.22078125 -11.72265625 29.9140625 C-13.8613537 33.4066143 -15.95995127 36.92311325 -18.0625 40.4375 C-18.82403549 41.70714119 -19.58573702 42.97668281 -20.34765625 44.24609375 C-21.16556641 45.60927734 -21.16556641 45.60927734 -22 47 C-23.21875 45.40625 -23.21875 45.40625 -24 43 C-22.94669427 40.62393824 -21.88467547 38.66963215 -20.5 36.5 C-19.73551664 35.23995443 -18.97383171 33.97820709 -18.21484375 32.71484375 C-17.83440918 32.08690918 -17.45397461 31.45897461 -17.06201172 30.81201172 C-15.58651077 28.29450183 -14.3225943 25.69334844 -13.0625 23.0625 C-10.02019487 16.83501906 -6.46682825 10.96254938 -2.85546875 5.0546875 C-1.85083235 3.40073873 -0.86542947 1.73085894 0 0 Z " fill="#3F9243" transform="translate(65,5)"/>
<path d="M0 0 C0.16604736 0.6297876 0.33209473 1.2595752 0.50317383 1.90844727 C1.26746376 4.79461602 2.0399133 7.6785416 2.8125 10.5625 C3.20405273 12.0484668 3.20405273 12.0484668 3.60351562 13.56445312 C5.04757656 18.93065488 6.647422 23.96279845 9 29 C6.05585347 30.96276436 3.94101364 31.71733962 0.5625 32.625 C-0.85869141 33.01558594 -0.85869141 33.01558594 -2.30859375 33.4140625 C-5 34 -5 34 -9 34 C-10.34252168 29.75284696 -11.67241974 25.50184488 -13 21.25 C-13.3815625 20.0434375 -13.763125 18.836875 -14.15625 17.59375 C-14.5171875 16.43359375 -14.878125 15.2734375 -15.25 14.078125 C-15.75273437 12.47565918 -15.75273437 12.47565918 -16.265625 10.84082031 C-17 8 -17 8 -17 4 C-14.91891315 3.32635339 -12.8350329 2.66133202 -10.75 2 C-9.58984375 1.62875 -8.4296875 1.2575 -7.234375 0.875 C-4 0 -4 0 0 0 Z " fill="#7986CA" transform="translate(19,58)"/>
<path d="M0 0 C3.6578218 2.03993908 5.66946174 3.50419262 8 7 C8.47595895 11.83891598 8.47140015 14.07403542 6.25 18.4375 C4.05564244 20.93662944 3.24889654 21.76793596 0 22 C-0.144375 20.865625 -0.28875 19.73125 -0.4375 18.5625 C-0.61171478 15.19222799 -0.61171478 15.19222799 -2 14 C-6.66478085 13.57592901 -9.18464006 14.30680475 -13 17 C-14.60306924 13.79386153 -14.48740461 10.47860003 -14 7 C-10.50204098 1.25335305 -6.69562884 -0.80347546 0 0 Z " fill="#3B8F3E" transform="translate(68,31)"/>
<path d="M0 0 C3.47899158 1.39159663 4.48052501 2.63251488 6 6 C5.21496094 6.7734375 4.42992188 7.546875 3.62109375 8.34375 C-2.14292673 14.04906626 -7.79548527 19.76924293 -13 26 C-13 21.74335437 -10.83483841 18.8314779 -8.75 15.25 C-8.35425781 14.5590625 -7.95851563 13.868125 -7.55078125 13.15625 C-6.76120574 11.7790232 -5.96891762 10.40334776 -5.17382812 9.02929688 C-3.43690995 6.02653817 -1.71936695 3.01283566 0 0 Z " fill="#1A5D1F" transform="translate(92,31)"/>
<path d="M0 0 C3.37462715 0.54723683 5.08235 1.0549 8 3 C7.04247992 5.47359354 6.50503355 6.73064878 4.125 8 C2 8 2 8 -0.25 6.0625 C-0.8275 5.381875 -1.405 4.70125 -2 4 C-1.34 2.68 -0.68 1.36 0 0 Z " fill="#1D5E20" transform="translate(51,73)"/>
<path d="M0 0 C2.625 0.375 2.625 0.375 5 1 C5 2.65 5 4.3 5 6 C3.68 6.33 2.36 6.66 1 7 C0.01 5.35 -0.98 3.7 -2 2 C-1.34 1.34 -0.68 0.68 0 0 Z " fill="#FFDCA9" transform="translate(61,46)"/>
<path d="M0 0 C1.65 0.33 3.3 0.66 5 1 C4.67 2.65 4.34 4.3 4 6 C2.35 5.67 0.7 5.34 -1 5 C-0.67 3.35 -0.34 1.7 0 0 Z " fill="#3F9243" transform="translate(73,23)"/>
</svg>
