<svg xmlns="http://www.w3.org/2000/svg" width="100" height="100"><path fill="#FDB64D" d="M65 5c6.285 1.89 11.487 5.022 17.079 8.395 1.74 1.046 3.49 2.077 5.24 3.107l3.326 1.994 3.042 1.818C96 22 96 22 97 25c-1.437 3.188-1.437 3.188-3 6l4 4c-1.541 3.713-3.808 5.981-6.687 8.75C80.204 54.667 72.567 66.499 65 80l-6-2-1.25 1.563C56 81 56 81 53.938 80.813 52 80 52 80 50 78c-2.264.214-2.264.214-5 1l-3.918.973q-3.233.822-6.463 1.654C29.212 83 29.212 83 27 83l1 5a1371 1371 0 0 1-6.75 2l-3.797 1.125C14 92 14 92 10 92a3801 3801 0 0 1-4-12.75l-1.156-3.656-1.094-3.516-1.016-3.237C2 66 2 66 2 62a528 528 0 0 1 6.188-2.062l3.48-1.16c3.307-.772 5.123-.739 8.332.222l2.012-3.29 2.675-4.335 1.319-2.16c7.685-12.41 7.685-12.41 15.119-14.59l3.133-.96C47 33 47 33 50 33l.727-2.008c1.613-3.791 3.604-7.294 5.648-10.867l1.172-2.066Q59.269 15.027 61 12l1.18-2.067z"/><path fill="#A2D3A3" d="M72 14c4.064.325 6.9 1.924 10.313 4.063l2.675 1.66L87 21l-.687 2.75c-.659 3.239-.659 3.239 1.167 5.453L89 31l-9.053 15.703a2441 2441 0 0 1-3.978 6.872 364 364 0 0 0-3.897 6.94l-1.838 3.305-1.622 2.977C67 69 67 69 63.312 69.625L60 69c-2.354.88-2.354.88-4 2l-2-2 2.59-2.992 3.347-3.883 1.71-1.973 1.63-1.894 1.508-1.746C66.089 55 66.089 55 67 53l2.938-1.375c3.017-1.347 3.017-1.347 4.437-3.312C75.319 44.82 75.71 41.545 75 38c-2.918-3.61-5.097-5.784-9.75-6.312-4.059.39-6.083 1.808-9.25 4.312-1.314 2.628-.89 4.392-.687 7.313.046 5.099.046 5.099-1.434 7.523-2.659 2.39-4.724 3.15-8.254 3.477L43 54c.593-4.244 2.077-7.247 4.238-10.93l1.987-3.41 2.087-3.535q1.028-1.755 2.053-3.512a3271 3271 0 0 1 3.915-6.678A798 798 0 0 0 63 16l3.375.125c3.669.286 3.669.286 5.625-2.125"/><path fill="#3F9243" d="M65 5c6.285 1.89 11.487 5.022 17.079 8.395 1.74 1.046 3.49 2.077 5.24 3.107l3.326 1.994 3.042 1.818C96 22 96 22 97 25c-1.437 3.188-1.437 3.188-3 6l4 4c-1.541 3.713-3.808 5.981-6.687 8.75C80.204 54.667 72.567 66.499 65 80l-6-2-1.25 1.563C56 81 56 81 54 80.875c-2.207-.966-3.43-2.069-5-3.875 1.289-2.875 2.493-5.05 5-7 2.625-.625 2.625-.625 5-1l1-1q3.51.43 7 1l.75-2.574c1.354-3.712 3.17-6.905 5.25-10.239q1.203-1.963 2.402-3.93l1.273-2.076c2.338-3.848 4.61-7.734 6.888-11.618l1.337-2.28Q86.45 33.644 88 31l-1.562-1.687C85 27 85 27 85.312 24.25L86 22a400 400 0 0 0-4.187-2.937l-2.356-1.653C76.879 15.93 74.959 15.234 72 15l-2 2c-3.625-.375-3.625-.375-7-1l-.746 2.566c-1.371 3.756-3.216 6.996-5.316 10.372l-2.407 3.937-1.254 2.04c-2.138 3.492-4.237 7.008-6.34 10.523l-2.285 3.808L43 52c-1.219-1.594-1.219-1.594-2-4a47 47 0 0 1 3.5-6.5q1.146-1.89 2.285-3.785l1.153-1.903c1.475-2.517 2.74-5.119 4-7.75 3.042-6.227 6.595-12.1 10.207-18.007C63.149 8.4 64.135 6.73 65 5"/><path fill="#7986CA" d="m19 58 .503 1.908c.764 2.887 1.537 5.77 2.31 8.654l.79 3.002C24.049 76.931 25.648 81.963 28 87c-2.944 1.963-5.059 2.717-8.437 3.625-1.422.39-1.422.39-2.872.79C14 92 14 92 10 92a3801 3801 0 0 1-4-12.75l-1.156-3.656-1.094-3.516-1.016-3.237C2 66 2 66 2 62q3.122-1.01 6.25-2l3.516-1.125C15 58 15 58 19 58"/><path fill="#3B8F3E" d="M68 31c3.658 2.04 5.67 3.504 8 7 .476 4.839.471 7.074-1.75 11.438-2.194 2.499-3.001 3.33-6.25 3.562l-.437-3.437c-.175-3.37-.175-3.37-1.563-4.563-4.665-.424-7.185.307-11 3-1.603-3.206-1.487-6.521-1-10 3.498-5.747 7.304-7.803 14-7"/><path fill="#1A5D1F" d="M92 31c3.479 1.392 4.48 2.633 6 6l-2.379 2.344C89.857 45.049 84.205 50.769 79 57c0-4.257 2.165-7.169 4.25-10.75l1.2-2.094q1.184-2.066 2.376-4.127C88.563 37.027 90.281 34.013 92 31"/><path fill="#1D5E20" d="M51 73c3.375.547 5.082 1.055 8 3-.958 2.474-1.495 3.73-3.875 5C53 81 53 81 50.75 79.063L49 77z"/><path fill="#FFDCA9" d="M61 46c2.625.375 2.625.375 5 1v5l-4 1-3-5z"/><path fill="#3F9243" d="m73 23 5 1-1 5-5-1z"/></svg>