<?xml version="1.0" encoding="UTF-8"?>
<svg version="1.1" xmlns="http://www.w3.org/2000/svg" width="100" height="100">
<path d="M0 0 C1.26811523 -0.01260864 2.53623047 -0.02521729 3.84277344 -0.03820801 C5.22331295 -0.03104817 6.60384739 -0.02284418 7.984375 -0.01367188 C9.40397406 -0.0163675 10.82357131 -0.02025051 12.24316406 -0.02526855 C15.21567394 -0.03116045 18.18770241 -0.02261142 21.16015625 -0.00390625 C24.96696287 0.01888413 28.77264149 0.00575925 32.57940674 -0.01819611 C35.51001456 -0.03266301 38.44035574 -0.02804423 41.37097168 -0.01768494 C42.77437474 -0.01502007 44.17780215 -0.01827905 45.58117676 -0.02760315 C47.54369635 -0.03778128 49.50630102 -0.01951228 51.46875 0 C52.58475586 0.00318237 53.70076172 0.00636475 54.85058594 0.00964355 C57.734375 0.51757812 57.734375 0.51757812 60.09362793 2.1583252 C62.21628961 5.21052982 62.24139082 7.07917501 62.25195312 10.78320312 C62.26456177 12.05131836 62.27717041 13.31943359 62.29016113 14.62597656 C62.2830013 16.00651608 62.27479731 17.38705051 62.265625 18.76757812 C62.26832062 20.18717718 62.27220363 21.60677444 62.27722168 23.02636719 C62.28311358 25.99887707 62.27456454 28.97090554 62.25585938 31.94335938 C62.233069 35.75016599 62.24619388 39.55584462 62.27014923 43.36260986 C62.28461614 46.29321769 62.27999735 49.22355887 62.26963806 52.1541748 C62.26697319 53.55757786 62.27023217 54.96100527 62.27955627 56.36437988 C62.28973441 58.32689947 62.2714654 60.28950414 62.25195312 62.25195312 C62.24877075 63.36795898 62.24558838 64.48396484 62.24230957 65.63378906 C61.734375 68.51757812 61.734375 68.51757812 60.09362793 70.87683105 C57.0414233 72.99949274 55.17277811 73.02459394 51.46875 73.03515625 C49.56657715 73.05406921 49.56657715 73.05406921 47.62597656 73.07336426 C46.24543705 73.06620442 44.86490261 73.05800043 43.484375 73.04882812 C42.06477594 73.05152375 40.64517869 73.05540676 39.22558594 73.0604248 C36.25307606 73.0663167 33.28104759 73.05776767 30.30859375 73.0390625 C26.50178713 73.01627212 22.69610851 73.029397 18.88934326 73.05335236 C15.95873544 73.06781926 13.02839426 73.06320048 10.09777832 73.05284119 C8.69437526 73.05017632 7.29094785 73.0534353 5.88757324 73.0627594 C3.92505365 73.07293753 1.96244898 73.05466853 0 73.03515625 C-1.11600586 73.03197388 -2.23201172 73.0287915 -3.38183594 73.0255127 C-6.265625 72.51757812 -6.265625 72.51757812 -8.62487793 70.87683105 C-10.74753961 67.82462643 -10.77264082 65.95598124 -10.78320312 62.25195312 C-10.79581177 60.98383789 -10.80842041 59.71572266 -10.82141113 58.40917969 C-10.8142513 57.02864017 -10.80604731 55.64810574 -10.796875 54.26757812 C-10.79957062 52.84797907 -10.80345363 51.42838181 -10.80847168 50.00878906 C-10.81436358 47.03627918 -10.80581454 44.06425071 -10.78710938 41.09179688 C-10.764319 37.28499026 -10.77744388 33.47931163 -10.80139923 29.67254639 C-10.81586614 26.74193856 -10.81124735 23.81159738 -10.80088806 20.88098145 C-10.79822319 19.47757839 -10.80148217 18.07415098 -10.81080627 16.67077637 C-10.82098441 14.70825678 -10.8027154 12.74565211 -10.78320312 10.78320312 C-10.78002075 9.66719727 -10.77683838 8.55119141 -10.77355957 7.40136719 C-10.265625 4.51757812 -10.265625 4.51757812 -8.62487793 2.1583252 C-5.5726733 0.03566351 -3.70402811 0.01056231 0 0 Z M-6.265625 6.51757812 C-6.57272843 9.13316281 -6.57272843 9.13316281 -6.52441406 12.22070312 C-6.53071838 13.4153418 -6.53702271 14.60998047 -6.54351807 15.84082031 C-6.5394696 17.13665039 -6.53542114 18.43248047 -6.53125 19.76757812 C-6.53259678 21.10514395 -6.53453743 22.44270929 -6.53704834 23.78027344 C-6.539999 26.58468279 -6.53570394 29.38896481 -6.52636719 32.19335938 C-6.51497254 35.79162735 -6.52153234 39.38959698 -6.53351212 42.987854 C-6.54073236 45.75018571 -6.53844206 48.51244645 -6.53325653 51.27478027 C-6.53126975 53.24796746 -6.53735342 55.22115738 -6.54351807 57.19433594 C-6.53721375 58.38897461 -6.53090942 59.58361328 -6.52441406 60.81445312 C-6.52282288 61.86987305 -6.52123169 62.92529297 -6.51959229 64.01269531 C-6.51479029 66.68986152 -6.51479029 66.68986152 -4.265625 68.51757812 C-1.65004032 68.82468155 -1.65004032 68.82468155 1.4375 68.77636719 C2.63213867 68.78267151 3.82677734 68.78897583 5.05761719 68.79547119 C6.35344727 68.79142273 7.64927734 68.78737427 8.984375 68.78320312 C10.32194082 68.78454991 11.65950617 68.78649055 12.99707031 68.78900146 C15.80147966 68.79195213 18.60576169 68.78765706 21.41015625 68.77832031 C25.00842422 68.76692566 28.60639386 68.77348546 32.20465088 68.78546524 C34.96698258 68.79268549 37.72924333 68.79039519 40.49157715 68.78520966 C42.46476433 68.78322287 44.43795426 68.78930654 46.41113281 68.79547119 C47.60577148 68.78916687 48.80041016 68.78286255 50.03125 68.77636719 C51.08666992 68.774776 52.14208984 68.77318481 53.22949219 68.77154541 C55.9066584 68.76674342 55.9066584 68.76674342 57.734375 66.51757812 C58.04147843 63.90199344 58.04147843 63.90199344 57.99316406 60.81445312 C58.00262054 59.02249512 58.00262054 59.02249512 58.01226807 57.19433594 C58.0082196 55.89850586 58.00417114 54.60267578 58 53.26757812 C58.00134678 51.9300123 58.00328743 50.59244696 58.00579834 49.25488281 C58.008749 46.45047346 58.00445394 43.64619144 57.99511719 40.84179688 C57.98372254 37.2435289 57.99028234 33.64555927 58.00226212 30.04730225 C58.00948236 27.28497054 58.00719206 24.5227098 58.00200653 21.76037598 C58.00001975 19.78718879 58.00610342 17.81399887 58.01226807 15.84082031 C58.00596375 14.64618164 57.99965942 13.45154297 57.99316406 12.22070312 C57.99157288 11.1652832 57.98998169 10.10986328 57.98834229 9.02246094 C57.98354029 6.34529473 57.98354029 6.34529473 55.734375 4.51757812 C53.11879032 4.2104747 53.11879032 4.2104747 50.03125 4.25878906 C48.83661133 4.25248474 47.64197266 4.24618042 46.41113281 4.23968506 C45.11530273 4.24373352 43.81947266 4.24778198 42.484375 4.25195312 C41.14680918 4.25060634 39.80924383 4.2486657 38.47167969 4.24615479 C35.66727034 4.24320412 32.86298831 4.24749919 30.05859375 4.25683594 C26.46032578 4.26823059 22.86235614 4.26167079 19.26409912 4.24969101 C16.50176742 4.24247076 13.73950667 4.24476106 10.97717285 4.24994659 C9.00398567 4.25193338 7.03079574 4.24584971 5.05761719 4.23968506 C3.86297852 4.24598938 2.66833984 4.2522937 1.4375 4.25878906 C-0.14562988 4.26117584 -0.14562988 4.26117584 -1.76074219 4.26361084 C-4.4379084 4.26841283 -4.4379084 4.26841283 -6.265625 6.51757812 Z " fill="#7B42FF" transform="translate(24.265625,13.482421875)"/>
<path d="M0 0 C4.20735993 0.54255493 5.63913235 2.03916177 8.5859375 5.0390625 C9.89691406 6.32683594 9.89691406 6.32683594 11.234375 7.640625 C13.57088343 10.91912497 13.8281313 12.47268452 13.2109375 16.4140625 C10.7109375 19.2890625 10.7109375 19.2890625 8.2109375 21.4140625 C9.62081341 26.5836075 13.07415795 30.16747602 17.2109375 33.4140625 C19.21259835 34.36371821 19.21259835 34.36371821 21.2109375 34.4140625 C21.9946875 33.6096875 22.7784375 32.8053125 23.5859375 31.9765625 C26.2109375 29.4140625 26.2109375 29.4140625 29.07421875 28.99609375 C33.01263933 29.52088952 34.28399578 30.71095061 37.0234375 33.5390625 C38.17779297 34.68761719 38.17779297 34.68761719 39.35546875 35.859375 C41.53772728 38.86400043 42.15714009 40.70693159 42.2109375 44.4140625 C40.0014942 48.39380509 36.61937648 51.48745791 32.8359375 53.9765625 C27.18209324 54.91886988 23.23564952 54.66352294 18.2421875 51.58203125 C15.14316216 49.28515262 12.16636021 46.89241287 9.2109375 44.4140625 C8.46457031 43.81980469 7.71820313 43.22554687 6.94921875 42.61328125 C1.56569752 38.18165965 -2.65310352 33.00510299 -6.7890625 27.4140625 C-7.32144531 26.72054687 -7.85382812 26.02703125 -8.40234375 25.3125 C-11.29323667 21.22453311 -12.68491656 17.71932233 -12.421875 12.66015625 C-11.19656103 8.31104804 -8.00048856 5.44384682 -4.7890625 2.4140625 C-2.7890625 0.4140625 -2.7890625 0.4140625 0 0 Z M-6.4140625 9.9765625 C-7.91743469 12.64163139 -8.2087121 14.28775248 -7.62109375 17.296875 C-5.67653128 22.24501049 -2.08383984 26.30303834 1.2109375 30.4140625 C1.74847656 31.11789063 2.28601563 31.82171875 2.83984375 32.546875 C8.35084389 39.37001803 16.95345119 47.20082326 25.2109375 50.4140625 C29.76671017 50.13513764 30.88418348 49.74081652 34.2109375 46.4140625 C31.2409375 43.4440625 28.2709375 40.4740625 25.2109375 37.4140625 C24.2209375 37.9090625 24.2209375 37.9090625 23.2109375 38.4140625 C19.00326264 39.11534164 16.619404 38.34028831 13.2109375 35.9765625 C9.06658576 32.59227527 5.03330528 28.52350488 3.2109375 23.4140625 C4.0625 20.1328125 4.0625 20.1328125 5.2109375 17.4140625 C3.73479765 15.91108374 2.25494593 14.41174965 0.7734375 12.9140625 C-0.05027344 12.07875 -0.87398437 11.2434375 -1.72265625 10.3828125 C-4.12023641 7.82655633 -4.12023641 7.82655633 -6.4140625 9.9765625 Z " fill="#833FFF" transform="translate(34.7890625,22.5859375)"/>
<path d="M0 0 C4.05726008 1.56048464 7.47623615 4.4835557 10 8 C10 9.32 10 10.64 10 12 C5.94273992 10.43951536 2.52376385 7.5164443 0 4 C0 2.68 0 1.36 0 0 Z " fill="#9BA9FF" transform="translate(34,26)"/>
<path d="M0 0 C3.2548802 0.58021778 4.93652408 1.52647141 7.25 3.875 C7.77078125 4.38804688 8.2915625 4.90109375 8.828125 5.4296875 C10 7 10 7 10 10 C6.7451198 9.41978222 5.06347592 8.47352859 2.75 6.125 C2.22921875 5.61195312 1.7084375 5.09890625 1.171875 4.5703125 C0 3 0 3 0 0 Z " fill="#A8ACFF" transform="translate(63,56)"/>
</svg>
