<svg xmlns="http://www.w3.org/2000/svg" width="100" height="100"><path fill="#7B42FF" d="m24.266 13.482 3.842-.038q2.07.011 4.142.025 2.13-.004 4.259-.012 4.458-.008 8.917.022c3.807.022 7.612.01 11.419-.015 2.93-.014 5.861-.01 8.792 0q2.104.005 4.21-.01c1.962-.01 3.925.009 5.887.028l3.382.01C82 14 82 14 84.36 15.641c2.123 3.052 2.148 4.92 2.159 8.625l.038 3.842q-.011 2.07-.025 4.142.005 2.13.012 4.259.008 4.458-.022 8.917c-.022 3.807-.01 7.612.015 11.419.014 2.93.01 5.861 0 8.792q-.005 2.104.01 4.21a389 389 0 0 1-.028 5.887l-.01 3.382C86 82 86 82 84.359 84.36c-3.052 2.123-4.92 2.148-8.625 2.159l-3.842.038q-2.07-.011-4.142-.025-2.13.005-4.259.012-4.458.008-8.917-.022c-3.807-.022-7.612-.01-11.419.015-2.93.014-5.861.01-8.792 0q-2.104-.005-4.21.01a389 389 0 0 1-5.887-.028l-3.382-.01C18 86 18 86 15.64 84.359c-2.123-3.052-2.148-4.92-2.159-8.625l-.038-3.842q.011-2.07.025-4.142-.005-2.13-.012-4.259-.008-4.458.022-8.917c.022-3.807.01-7.612-.015-11.419-.014-2.93-.01-5.861 0-8.792q.005-2.104-.01-4.21c-.01-1.962.009-3.925.028-5.887l.01-3.382C14 18 14 18 15.641 15.64c3.052-2.123 4.92-2.148 8.625-2.159M18 20c-.307 2.616-.307 2.616-.259 5.703l-.019 3.62.012 3.927-.005 4.013q-.005 4.206.01 8.413c.012 3.598.005 7.196-.007 10.794q-.009 4.144 0 8.287.001 2.96-.01 5.92l.02 3.62c0 1.055.002 2.11.004 3.198.005 2.677.005 2.677 2.254 4.505 2.616.307 2.616.307 5.703.259l3.62.019 3.927-.012 4.013.005q4.206.005 8.413-.01c3.598-.012 7.196-.005 10.794.007q4.144.009 8.287 0c1.973-.002 3.947.004 5.92.01l3.62-.02c1.055 0 2.11-.002 3.198-.004 2.677-.005 2.677-.005 4.505-2.254.307-2.616.307-2.616.259-5.703l.019-3.62-.012-3.927.005-4.013q.005-4.206-.01-8.413c-.012-3.598-.005-7.196.007-10.794q.009-4.144 0-8.287c-.002-1.973.004-3.947.01-5.92l-.02-3.62c0-1.055-.002-2.11-.004-3.198-.005-2.677-.005-2.677-2.254-4.505-2.616-.307-2.616-.307-5.703-.259l-3.62-.019-3.927.012-4.013-.005q-4.206-.005-8.413.01c-3.598.012-7.196.005-10.794-.007q-4.144-.009-8.287 0c-1.973.002-3.947-.004-5.92-.01l-3.62.02-3.198.004c-2.677.005-2.677.005-4.505 2.254"/><path fill="#833FFF" d="M34.79 22.586c4.206.542 5.638 2.04 8.585 5.039l2.648 2.602C48.36 33.505 48.617 35.059 48 39c-2.5 2.875-2.5 2.875-5 5 1.41 5.17 4.863 8.753 9 12 2.002.95 2.002.95 4 1l2.375-2.437C61 52 61 52 63.863 51.582c3.939.525 5.21 1.715 7.95 4.543l2.332 2.32C76.327 61.45 76.946 63.293 77 67c-2.21 3.98-5.592 7.073-9.375 9.563-5.654.942-9.6.686-14.594-2.395C49.932 71.871 46.955 69.478 44 67l-2.262-1.8C36.355 60.767 32.136 55.59 28 50l-1.613-2.102c-2.891-4.088-4.283-7.593-4.02-12.652C23.593 30.897 26.79 28.03 30 25c2-2 2-2 4.79-2.414m-6.415 9.977c-1.503 2.665-1.795 4.31-1.207 7.32C29.113 44.83 32.705 48.889 36 53l1.629 2.133C43.139 61.956 51.743 69.787 60 73c4.556-.279 5.673-.673 9-4l-9-9-2 1c-4.208.701-6.592-.074-10-2.437-4.144-3.385-8.178-7.454-10-12.563.852-3.281.852-3.281 2-6a1766 1766 0 0 0-4.437-4.5l-2.497-2.531c-2.397-2.557-2.397-2.557-4.691-.407"/><path fill="#9BA9FF" d="M34 26c4.057 1.56 7.476 4.484 10 8v4c-4.057-1.56-7.476-4.484-10-8z"/><path fill="#A8ACFF" d="M63 56c3.255.58 4.937 1.526 7.25 3.875l1.578 1.555C73 63 73 63 73 66c-3.255-.58-4.937-1.526-7.25-3.875l-1.578-1.555C63 59 63 59 63 56"/></svg>