<?xml version="1.0" encoding="UTF-8"?>
<svg version="1.1" xmlns="http://www.w3.org/2000/svg" width="100" height="100">
<path d="M0 0 C27.72 0 55.44 0 84 0 C84 15.51 84 31.02 84 47 C72.45 47 60.9 47 49 47 C49 51.29 49 55.58 49 60 C52.96 60 56.92 60 61 60 C59.39254041 63.21491917 58.25436423 65.05070641 55.9375 67.625 C55.32648437 68.30820313 54.71546875 68.99140625 54.0859375 69.6953125 C53.39757813 70.45585938 52.70921875 71.21640625 52 72 C51.18789063 72.90492187 50.37578125 73.80984375 49.5390625 74.7421875 C47.36330206 77.16503746 45.18333356 79.58397556 43 82 C40.03173763 80.67550679 38.0629199 79.27446824 35.87109375 76.8828125 C35.31099609 76.27566406 34.75089844 75.66851562 34.17382812 75.04296875 C33.60083984 74.41003906 33.02785156 73.77710937 32.4375 73.125 C31.86064453 72.49980469 31.28378906 71.87460938 30.68945312 71.23046875 C23 62.84036188 23 62.84036188 23 60 C26.96 60 30.92 60 35 60 C35 55.71 35 51.42 35 47 C23.45 47 11.9 47 0 47 C0 31.49 0 15.98 0 0 Z " fill="#A2D4A4" transform="translate(8,12)"/>
<path d="M0 0 C27.72 0 55.44 0 84 0 C84 15.51 84 31.02 84 47 C72.45 47 60.9 47 49 47 C49 51.29 49 55.58 49 60 C52.96 60 56.92 60 61 60 C59.39254041 63.21491917 58.25436423 65.05070641 55.9375 67.625 C55.32648437 68.30820313 54.71546875 68.99140625 54.0859375 69.6953125 C53.39757813 70.45585938 52.70921875 71.21640625 52 72 C51.18789063 72.90492187 50.37578125 73.80984375 49.5390625 74.7421875 C47.36330206 77.16503746 45.18333356 79.58397556 43 82 C40.03173763 80.67550679 38.0629199 79.27446824 35.87109375 76.8828125 C35.31099609 76.27566406 34.75089844 75.66851562 34.17382812 75.04296875 C33.60083984 74.41003906 33.02785156 73.77710937 32.4375 73.125 C31.86064453 72.49980469 31.28378906 71.87460938 30.68945312 71.23046875 C23 62.84036188 23 62.84036188 23 60 C26.96 60 30.92 60 35 60 C35 55.71 35 51.42 35 47 C23.45 47 11.9 47 0 47 C0 31.49 0 15.98 0 0 Z M13 5 C12.34 6.98 11.68 8.96 11 11 C8.69 11.66 6.38 12.32 4 13 C4 19.93 4 26.86 4 34 C6.31 34.66 8.62 35.32 11 36 C11.66 37.98 12.32 39.96 13 42 C32.14 42 51.28 42 71 42 C71.99 39.69 72.98 37.38 74 35 C75.98 34.67 77.96 34.34 80 34 C80 27.07 80 20.14 80 13 C77.69 12.34 75.38 11.68 73 11 C72.01 8.03 72.01 8.03 71 5 C51.86 5 32.72 5 13 5 Z " fill="#419343" transform="translate(8,12)"/>
<path d="M0 0 C3.95583124 2.06172561 6.45483962 4.08792055 7.96875 8.2734375 C8.67160664 12.89938172 9.04965194 17.24494486 6.796875 21.47265625 C2.97038105 26.1768769 -0.43064756 27.98973542 -6.46875 28.6484375 C-11.77456945 28.08993019 -14.48177158 25.61903718 -18.40625 22.2109375 C-20.92009544 17.66667844 -20.76878515 13.34678538 -20.03125 8.2734375 C-16.03258108 -0.02009804 -8.7247978 -3.12079306 0 0 Z " fill="#398E3D" transform="translate(56.03125,21.7265625)"/>
<path d="M0 0 C4.62 0 9.24 0 14 0 C14 4.29 14 8.58 14 13 C17.96 13 21.92 13 26 13 C24.39254041 16.21491917 23.25436423 18.05070641 20.9375 20.625 C20.32648437 21.30820313 19.71546875 21.99140625 19.0859375 22.6953125 C18.39757812 23.45585938 17.70921875 24.21640625 17 25 C16.18789063 25.90492187 15.37578125 26.80984375 14.5390625 27.7421875 C12.36330206 30.16503746 10.18333356 32.58397556 8 35 C5.03173763 33.67550679 3.0629199 32.27446824 0.87109375 29.8828125 C0.03094727 28.97208984 0.03094727 28.97208984 -0.82617188 28.04296875 C-1.39916016 27.41003906 -1.97214844 26.77710937 -2.5625 26.125 C-3.13935547 25.49980469 -3.71621094 24.87460938 -4.31054688 24.23046875 C-12 15.84036188 -12 15.84036188 -12 13 C-8.04 13 -4.08 13 0 13 C0 8.71 0 4.42 0 0 Z " fill="#FFC400" transform="translate(43,59)"/>
<path d="M0 0 C4.55555556 0.55555556 4.55555556 0.55555556 6 2 C6.125 4.5 6.125 4.5 6 7 C5 8 5 8 2 8.125 C-1 8 -1 8 -2 7 C-2.1875 4.5625 -2.1875 4.5625 -2 2 C-1.34 1.34 -0.68 0.68 0 0 Z " fill="#409344" transform="translate(73,31)"/>
<path d="M0 0 C4.55555556 0.55555556 4.55555556 0.55555556 6 2 C6.125 4.5 6.125 4.5 6 7 C5 8 5 8 2 8.125 C-1 8 -1 8 -2 7 C-2.1875 4.5625 -2.1875 4.5625 -2 2 C-1.34 1.34 -0.68 0.68 0 0 Z " fill="#409344" transform="translate(23,31)"/>
</svg>
