<svg xmlns="http://www.w3.org/2000/svg" width="100" height="100"><path fill="#A2D4A4" d="M8 12h84v47H57v13h12c-1.607 3.215-2.746 5.05-5.062 7.625l-1.852 2.07L60 84l-2.46 2.742A3120 3120 0 0 1 51 94c-2.968-1.324-4.937-2.726-7.129-5.117l-1.697-1.84-1.736-1.918-1.749-1.895C31 74.84 31 74.84 31 72h12V59H8z"/><path fill="#419343" d="M8 12h84v47H57v13h12c-1.607 3.215-2.746 5.05-5.062 7.625l-1.852 2.07L60 84l-2.46 2.742A3120 3120 0 0 1 51 94c-2.968-1.324-4.937-2.726-7.129-5.117l-1.697-1.84-1.736-1.918-1.749-1.895C31 74.84 31 74.84 31 72h12V59H8zm13 5-2 6-7 2v21l7 2 2 6h58l3-7 6-1V25l-7-2-2-6z"/><path fill="#398E3D" d="M56.031 21.727C59.987 23.788 62.486 25.814 64 30c.703 4.626 1.08 8.972-1.172 13.2-3.826 4.703-7.227 6.516-13.266 7.175-5.305-.559-8.013-3.03-11.937-6.437C35.111 39.393 35.262 35.073 36 30c3.999-8.294 11.306-11.394 20.031-8.273"/><path fill="#FFC400" d="M43 59h14v13h12c-1.607 3.215-2.746 5.05-5.062 7.625l-1.852 2.07L60 84l-2.46 2.742A3120 3120 0 0 1 51 94c-2.968-1.324-4.937-2.726-7.129-5.117l-1.697-1.84-1.736-1.918-1.749-1.895C31 74.84 31 74.84 31 72h12z"/><path fill="#409344" d="M73 31c4.556.556 4.556.556 6 2 .125 2.5.125 2.5 0 5-1 1-1 1-4 1.125C72 39 72 39 71 38c-.187-2.437-.187-2.437 0-5zM23 31c4.556.556 4.556.556 6 2 .125 2.5.125 2.5 0 5-1 1-1 1-4 1.125C22 39 22 39 21 38c-.187-2.437-.187-2.437 0-5z"/></svg>