<?xml version="1.0" encoding="UTF-8"?>
<svg version="1.1" xmlns="http://www.w3.org/2000/svg" width="100" height="100">
<path d="M0 0 C2 1.3125 2 1.3125 3 3 C3 3.99 3 4.98 3 6 C4.9914056 6.38133299 6.99279077 6.71325582 9 7 C9.33 6.67 9.66 6.34 10 6 C12.25 5.625 12.25 5.625 15 6 C18.07049 8.38815889 19.82705277 9.76054488 20.375 13.6875 C20 16 20 16 19 18 C19.27942455 19.67654729 19.60828247 21.34608154 20 23 C20.804375 23.12375 21.60875 23.2475 22.4375 23.375 C23.7059375 23.684375 23.7059375 23.684375 25 24 C26.58931152 27.17862304 26.40341627 30.53911302 26 34 C24.6875 36 24.6875 36 23 37 C22.01 37 21.02 37 20 37 C19.61866701 38.9914056 19.28674418 40.99279077 19 43 C19.33 43.33 19.66 43.66 20 44 C20.375 46.25 20.375 46.25 20 49 C17.61184111 52.07049 16.23945512 53.82705277 12.3125 54.375 C10 54 10 54 8 53 C6.32345271 53.27942455 4.65391846 53.60828247 3 54 C2.814375 55.2065625 2.814375 55.2065625 2.625 56.4375 C2.41875 57.283125 2.2125 58.12875 2 59 C-1.17862304 60.58931152 -4.53911302 60.40341627 -8 60 C-10 58.6875 -10 58.6875 -11 57 C-11 56.01 -11 55.02 -11 54 C-12.9914056 53.61866701 -14.99279077 53.28674418 -17 53 C-17.33 53.33 -17.66 53.66 -18 54 C-20.25 54.375 -20.25 54.375 -23 54 C-26.07049 51.61184111 -27.82705277 50.23945512 -28.375 46.3125 C-28 44 -28 44 -27 42 C-27.27942455 40.32345271 -27.60828247 38.65391846 -28 37 C-29.2065625 36.814375 -29.2065625 36.814375 -30.4375 36.625 C-31.283125 36.41875 -32.12875 36.2125 -33 36 C-34.58931152 32.82137696 -34.40341627 29.46088698 -34 26 C-32.6875 24 -32.6875 24 -31 23 C-30.01 23 -29.02 23 -28 23 C-27.61866701 21.0085944 -27.28674418 19.00720923 -27 17 C-27.33 16.67 -27.66 16.34 -28 16 C-28.375 13.75 -28.375 13.75 -28 11 C-25.61184111 7.92951 -24.23945512 6.17294723 -20.3125 5.625 C-18 6 -18 6 -16 7 C-14.32345271 6.72057545 -12.65391846 6.39171753 -11 6 C-10.87625 5.195625 -10.7525 4.39125 -10.625 3.5625 C-10.315625 2.2940625 -10.315625 2.2940625 -10 1 C-6.82137696 -0.58931152 -3.46088698 -0.40341627 0 0 Z M-8 15 C-8 16.32 -8 17.64 -8 19 C-7.11248047 19.02126953 -7.11248047 19.02126953 -6.20703125 19.04296875 C-1.78774477 19.30971198 0.43540412 19.55302826 4 22.375 C6 25 6 25 7 28 C8.32 28 9.64 28 11 28 C9.52735979 22.24331556 6.96653252 19.14817872 2.1875 15.6875 C-1.22532024 14.61489935 -4.43420254 14.88114008 -8 15 Z M-14 18 C-17.31743624 22.45484295 -19.84701987 26.27006615 -19.5078125 31.96875 C-18.55109783 35.79560868 -16.33081745 38.87004514 -14 42 C-13.34 40.68 -12.68 39.36 -12 38 C-12.66 37.01 -13.32 36.02 -14 35 C-14.60253551 29.77211838 -14.51783476 24.72094018 -12 20 C-12.66 19.34 -13.32 18.68 -14 18 Z M-5 24 C-4.34 25.32 -3.68 26.64 -3 28 C-1.68 27.67 -0.36 27.34 1 27 C-1.67247634 24.65712582 -1.67247634 24.65712582 -5 24 Z M-9 27 C-9.6814823 28.89179203 -9.6814823 28.89179203 -10 31 C-9.34 31.66 -8.68 32.32 -8 33 C-7.67 31.35 -7.34 29.7 -7 28 C-7.66 27.67 -8.32 27.34 -9 27 Z M-3 32 C-3.66 33.32 -4.32 34.64 -5 36 C-1.27385847 34.88145414 -1.27385847 34.88145414 1 32 C-0.32 32 -1.64 32 -3 32 Z M7 32 C6.3503125 33.423125 6.3503125 33.423125 5.6875 34.875 C4 38 4 38 1 40 C-1.26171875 40.4140625 -1.26171875 40.4140625 -3.6875 40.625 C-4.49574219 40.69976562 -5.30398437 40.77453125 -6.13671875 40.8515625 C-7.05904297 40.92503906 -7.05904297 40.92503906 -8 41 C-8 42.32 -8 43.64 -8 45 C-2.71466343 45.37090081 0.93491367 45.2347748 5.45703125 42.34765625 C8.1991506 39.95264062 9.47628411 37.29122632 11 34 C11 33.34 11 32.68 11 32 C9.68 32 8.36 32 7 32 Z " fill="#724BFF" transform="translate(54,20)"/>
<path d="M0 0 C1.26811523 -0.01260864 2.53623047 -0.02521729 3.84277344 -0.03820801 C5.22331295 -0.03104817 6.60384739 -0.02284418 7.984375 -0.01367188 C9.40397406 -0.0163675 10.82357131 -0.02025051 12.24316406 -0.02526855 C15.21567394 -0.03116045 18.18770241 -0.02261142 21.16015625 -0.00390625 C24.96696287 0.01888413 28.77264149 0.00575925 32.57940674 -0.01819611 C35.51001456 -0.03266301 38.44035574 -0.02804423 41.37097168 -0.01768494 C42.77437474 -0.01502007 44.17780215 -0.01827905 45.58117676 -0.02760315 C47.54369635 -0.03778128 49.50630102 -0.01951228 51.46875 0 C52.58475586 0.00318237 53.70076172 0.00636475 54.85058594 0.00964355 C57.734375 0.51757812 57.734375 0.51757812 60.09362793 2.1583252 C62.21628961 5.21052982 62.24139082 7.07917501 62.25195312 10.78320312 C62.26456177 12.05131836 62.27717041 13.31943359 62.29016113 14.62597656 C62.2830013 16.00651608 62.27479731 17.38705051 62.265625 18.76757812 C62.26832062 20.18717718 62.27220363 21.60677444 62.27722168 23.02636719 C62.28311358 25.99887707 62.27456454 28.97090554 62.25585938 31.94335938 C62.233069 35.75016599 62.24619388 39.55584462 62.27014923 43.36260986 C62.28461614 46.29321769 62.27999735 49.22355887 62.26963806 52.1541748 C62.26697319 53.55757786 62.27023217 54.96100527 62.27955627 56.36437988 C62.28973441 58.32689947 62.2714654 60.28950414 62.25195312 62.25195312 C62.24877075 63.36795898 62.24558838 64.48396484 62.24230957 65.63378906 C61.734375 68.51757812 61.734375 68.51757812 60.09362793 70.87683105 C57.0414233 72.99949274 55.17277811 73.02459394 51.46875 73.03515625 C49.56657715 73.05406921 49.56657715 73.05406921 47.62597656 73.07336426 C46.24543705 73.06620442 44.86490261 73.05800043 43.484375 73.04882812 C42.06477594 73.05152375 40.64517869 73.05540676 39.22558594 73.0604248 C36.25307606 73.0663167 33.28104759 73.05776767 30.30859375 73.0390625 C26.50178713 73.01627212 22.69610851 73.029397 18.88934326 73.05335236 C15.95873544 73.06781926 13.02839426 73.06320048 10.09777832 73.05284119 C8.69437526 73.05017632 7.29094785 73.0534353 5.88757324 73.0627594 C3.92505365 73.07293753 1.96244898 73.05466853 0 73.03515625 C-1.11600586 73.03197388 -2.23201172 73.0287915 -3.38183594 73.0255127 C-6.265625 72.51757812 -6.265625 72.51757812 -8.62487793 70.87683105 C-10.74753961 67.82462643 -10.77264082 65.95598124 -10.78320312 62.25195312 C-10.79581177 60.98383789 -10.80842041 59.71572266 -10.82141113 58.40917969 C-10.8142513 57.02864017 -10.80604731 55.64810574 -10.796875 54.26757812 C-10.79957062 52.84797907 -10.80345363 51.42838181 -10.80847168 50.00878906 C-10.81436358 47.03627918 -10.80581454 44.06425071 -10.78710938 41.09179688 C-10.764319 37.28499026 -10.77744388 33.47931163 -10.80139923 29.67254639 C-10.81586614 26.74193856 -10.81124735 23.81159738 -10.80088806 20.88098145 C-10.79822319 19.47757839 -10.80148217 18.07415098 -10.81080627 16.67077637 C-10.82098441 14.70825678 -10.8027154 12.74565211 -10.78320312 10.78320312 C-10.78002075 9.66719727 -10.77683838 8.55119141 -10.77355957 7.40136719 C-10.265625 4.51757812 -10.265625 4.51757812 -8.62487793 2.1583252 C-5.5726733 0.03566351 -3.70402811 0.01056231 0 0 Z M-6.265625 6.51757812 C-6.57272843 9.13316281 -6.57272843 9.13316281 -6.52441406 12.22070312 C-6.53071838 13.4153418 -6.53702271 14.60998047 -6.54351807 15.84082031 C-6.5394696 17.13665039 -6.53542114 18.43248047 -6.53125 19.76757812 C-6.53259678 21.10514395 -6.53453743 22.44270929 -6.53704834 23.78027344 C-6.539999 26.58468279 -6.53570394 29.38896481 -6.52636719 32.19335938 C-6.51497254 35.79162735 -6.52153234 39.38959698 -6.53351212 42.987854 C-6.54073236 45.75018571 -6.53844206 48.51244645 -6.53325653 51.27478027 C-6.53126975 53.24796746 -6.53735342 55.22115738 -6.54351807 57.19433594 C-6.53721375 58.38897461 -6.53090942 59.58361328 -6.52441406 60.81445312 C-6.52282288 61.86987305 -6.52123169 62.92529297 -6.51959229 64.01269531 C-6.51479029 66.68986152 -6.51479029 66.68986152 -4.265625 68.51757812 C-1.65004032 68.82468155 -1.65004032 68.82468155 1.4375 68.77636719 C2.63213867 68.78267151 3.82677734 68.78897583 5.05761719 68.79547119 C6.35344727 68.79142273 7.64927734 68.78737427 8.984375 68.78320312 C10.32194082 68.78454991 11.65950617 68.78649055 12.99707031 68.78900146 C15.80147966 68.79195213 18.60576169 68.78765706 21.41015625 68.77832031 C25.00842422 68.76692566 28.60639386 68.77348546 32.20465088 68.78546524 C34.96698258 68.79268549 37.72924333 68.79039519 40.49157715 68.78520966 C42.46476433 68.78322287 44.43795426 68.78930654 46.41113281 68.79547119 C47.60577148 68.78916687 48.80041016 68.78286255 50.03125 68.77636719 C51.08666992 68.774776 52.14208984 68.77318481 53.22949219 68.77154541 C55.9066584 68.76674342 55.9066584 68.76674342 57.734375 66.51757812 C58.04147843 63.90199344 58.04147843 63.90199344 57.99316406 60.81445312 C58.00262054 59.02249512 58.00262054 59.02249512 58.01226807 57.19433594 C58.0082196 55.89850586 58.00417114 54.60267578 58 53.26757812 C58.00134678 51.9300123 58.00328743 50.59244696 58.00579834 49.25488281 C58.008749 46.45047346 58.00445394 43.64619144 57.99511719 40.84179688 C57.98372254 37.2435289 57.99028234 33.64555927 58.00226212 30.04730225 C58.00948236 27.28497054 58.00719206 24.5227098 58.00200653 21.76037598 C58.00001975 19.78718879 58.00610342 17.81399887 58.01226807 15.84082031 C58.00596375 14.64618164 57.99965942 13.45154297 57.99316406 12.22070312 C57.99157288 11.1652832 57.98998169 10.10986328 57.98834229 9.02246094 C57.98354029 6.34529473 57.98354029 6.34529473 55.734375 4.51757812 C53.11879032 4.2104747 53.11879032 4.2104747 50.03125 4.25878906 C48.83661133 4.25248474 47.64197266 4.24618042 46.41113281 4.23968506 C45.11530273 4.24373352 43.81947266 4.24778198 42.484375 4.25195312 C41.14680918 4.25060634 39.80924383 4.2486657 38.47167969 4.24615479 C35.66727034 4.24320412 32.86298831 4.24749919 30.05859375 4.25683594 C26.46032578 4.26823059 22.86235614 4.26167079 19.26409912 4.24969101 C16.50176742 4.24247076 13.73950667 4.24476106 10.97717285 4.24994659 C9.00398567 4.25193338 7.03079574 4.24584971 5.05761719 4.23968506 C3.86297852 4.24598938 2.66833984 4.2522937 1.4375 4.25878906 C-0.14562988 4.26117584 -0.14562988 4.26117584 -1.76074219 4.26361084 C-4.4379084 4.26841283 -4.4379084 4.26841283 -6.265625 6.51757812 Z " fill="#7047FF" transform="translate(24.265625,13.482421875)"/>
<path d="M0 0 C2 1.3125 2 1.3125 3 3 C3 3.99 3 4.98 3 6 C4.9914056 6.38133299 6.99279077 6.71325582 9 7 C9.33 6.67 9.66 6.34 10 6 C12.25 5.625 12.25 5.625 15 6 C18.07049 8.38815889 19.82705277 9.76054488 20.375 13.6875 C20 16 20 16 19 18 C19.27942455 19.67654729 19.60828247 21.34608154 20 23 C20.804375 23.12375 21.60875 23.2475 22.4375 23.375 C23.7059375 23.684375 23.7059375 23.684375 25 24 C26.58931152 27.17862304 26.40341627 30.53911302 26 34 C24.6875 36 24.6875 36 23 37 C22.01 37 21.02 37 20 37 C19.61866701 38.9914056 19.28674418 40.99279077 19 43 C19.33 43.33 19.66 43.66 20 44 C20.375 46.25 20.375 46.25 20 49 C17.61184111 52.07049 16.23945512 53.82705277 12.3125 54.375 C10 54 10 54 8 53 C6.32345271 53.27942455 4.65391846 53.60828247 3 54 C2.814375 55.2065625 2.814375 55.2065625 2.625 56.4375 C2.41875 57.283125 2.2125 58.12875 2 59 C-1.17862304 60.58931152 -4.53911302 60.40341627 -8 60 C-10 58.6875 -10 58.6875 -11 57 C-11 56.01 -11 55.02 -11 54 C-12.9914056 53.61866701 -14.99279077 53.28674418 -17 53 C-17.33 53.33 -17.66 53.66 -18 54 C-20.25 54.375 -20.25 54.375 -23 54 C-26.07049 51.61184111 -27.82705277 50.23945512 -28.375 46.3125 C-28 44 -28 44 -27 42 C-27.27942455 40.32345271 -27.60828247 38.65391846 -28 37 C-29.2065625 36.814375 -29.2065625 36.814375 -30.4375 36.625 C-31.283125 36.41875 -32.12875 36.2125 -33 36 C-34.58931152 32.82137696 -34.40341627 29.46088698 -34 26 C-32.6875 24 -32.6875 24 -31 23 C-30.01 23 -29.02 23 -28 23 C-27.61866701 21.0085944 -27.28674418 19.00720923 -27 17 C-27.33 16.67 -27.66 16.34 -28 16 C-28.375 13.75 -28.375 13.75 -28 11 C-25.61184111 7.92951 -24.23945512 6.17294723 -20.3125 5.625 C-18 6 -18 6 -16 7 C-14.32345271 6.72057545 -12.65391846 6.39171753 -11 6 C-10.87625 5.195625 -10.7525 4.39125 -10.625 3.5625 C-10.315625 2.2940625 -10.315625 2.2940625 -10 1 C-6.82137696 -0.58931152 -3.46088698 -0.40341627 0 0 Z M-7 4 C-7.020625 4.598125 -7.04125 5.19625 -7.0625 5.8125 C-8 8 -8 8 -11.125 9.8125 C-14.96955114 11.302759 -17.9670364 10.71169946 -22 10 C-22.66 10.66 -23.32 11.32 -24 12 C-23.814375 13.051875 -23.62875 14.10375 -23.4375 15.1875 C-22.90763298 19.8049126 -23.65839338 22.01926874 -26 26 C-28.6875 27.4375 -28.6875 27.4375 -31 28 C-30.67 29.65 -30.34 31.3 -30 33 C-29.06607422 33.09861328 -29.06607422 33.09861328 -28.11328125 33.19921875 C-26 34 -26 34 -24.91796875 36.14453125 C-24.67691406 37.02496094 -24.43585937 37.90539063 -24.1875 38.8125 C-23.93355469 39.68519531 -23.67960937 40.55789062 -23.41796875 41.45703125 C-23 44 -23 44 -23.55078125 46.19921875 C-23.69902344 46.79347656 -23.84726562 47.38773438 -24 48 C-23.34 48.66 -22.68 49.32 -22 50 C-20.948125 49.814375 -19.89625 49.62875 -18.8125 49.4375 C-13.97895527 48.88283093 -12.16548422 49.58401915 -8 52 C-7.0625 54.1875 -7.0625 54.1875 -7 56 C-5.02 56 -3.04 56 -1 56 C-0.90138672 55.06607422 -0.90138672 55.06607422 -0.80078125 54.11328125 C0 52 0 52 2.14453125 50.91796875 C3.02496094 50.67691406 3.90539063 50.43585938 4.8125 50.1875 C5.68519531 49.93355469 6.55789062 49.67960937 7.45703125 49.41796875 C10 49 10 49 12.19921875 49.55078125 C12.79347656 49.69902344 13.38773438 49.84726563 14 50 C14.66 49.34 15.32 48.68 16 48 C15.814375 47.13375 15.62875 46.2675 15.4375 45.375 C14.86946956 40.99305089 15.70389141 37.77774848 18 34 C20.6875 32.5 20.6875 32.5 23 32 C22.67 30.35 22.34 28.7 22 27 C21.401875 26.979375 20.80375 26.95875 20.1875 26.9375 C18 26 18 26 16.1875 22.875 C14.697241 19.03044886 15.28830054 16.0329636 16 12 C15.34 11.34 14.68 10.68 14 10 C12.948125 10.185625 11.89625 10.37125 10.8125 10.5625 C5.97895527 11.11716907 4.16548422 10.41598085 0 8 C-0.9375 5.8125 -0.9375 5.8125 -1 4 C-2.98 4 -4.96 4 -7 4 Z " fill="#724BFF" transform="translate(54,20)"/>
<path d="M0 0 C1.98 0 3.96 0 6 0 C6.020625 0.598125 6.04125 1.19625 6.0625 1.8125 C6.89405911 4.35440624 6.89405911 4.35440624 10.125 5.8125 C13.96955114 7.302759 16.9670364 6.71169946 21 6 C21.66 6.66 22.32 7.32 23 8 C22.7215625 9.5778125 22.7215625 9.5778125 22.4375 11.1875 C21.90763298 15.8049126 22.65839338 18.01926874 25 22 C27.54368999 23.50452457 27.54368999 23.50452457 30 24 C29.505 26.475 29.505 26.475 29 29 C28.37738281 29.06574219 27.75476563 29.13148437 27.11328125 29.19921875 C24.79530324 29.80558398 24.79530324 29.80558398 23.91796875 32.14453125 C23.67691406 33.02496094 23.43585938 33.90539063 23.1875 34.8125 C22.80658203 36.12154297 22.80658203 36.12154297 22.41796875 37.45703125 C21.83437003 39.95620684 21.83437003 39.95620684 22.55078125 42.19921875 C22.69902344 42.79347656 22.84726563 43.38773438 23 44 C22.34 44.66 21.68 45.32 21 46 C19.700625 45.7215625 19.700625 45.7215625 18.375 45.4375 C14.14815469 44.88957561 10.59534812 45.62312308 7 48 C6.21846165 50.04458259 6.21846165 50.04458259 6 52 C4.02 52 2.04 52 0 52 C-0.020625 51.401875 -0.04125 50.80375 -0.0625 50.1875 C-0.89405911 47.64559376 -0.89405911 47.64559376 -4.125 46.1875 C-7.96955114 44.697241 -10.9670364 45.28830054 -15 46 C-15.66 45.34 -16.32 44.68 -17 44 C-16.814375 43.13375 -16.62875 42.2675 -16.4375 41.375 C-15.86946956 36.99305089 -16.70389141 33.77774848 -19 30 C-21.53044606 28.41622598 -21.53044606 28.41622598 -24 28 C-23.67 26.35 -23.34 24.7 -23 23 C-22.1028125 22.9690625 -22.1028125 22.9690625 -21.1875 22.9375 C-18.64559376 22.10594089 -18.64559376 22.10594089 -17.1875 18.875 C-15.697241 15.03044886 -16.28830054 12.0329636 -17 8 C-16.34 7.34 -15.68 6.68 -15 6 C-13.948125 6.185625 -12.89625 6.37125 -11.8125 6.5625 C-6.97895527 7.11716907 -5.16548422 6.41598085 -1 4 C0.04289755 1.93109581 0.04289755 1.93109581 0 0 Z M-12.375 14.5 C-15.55987949 19.39981461 -16.58864986 23.11350137 -16 29 C-14.35798095 34.95491717 -11.64991204 39.4868803 -6.4765625 42.96484375 C-0.90033892 45.29559966 5.54055908 45.13512905 11.25 43.26171875 C15.93155636 40.8099554 18.78405021 37.24950712 21.25 32.6875 C23.02062105 26.34277457 22.4177476 21.49958698 19.2734375 15.82421875 C16.42854368 11.74886472 12.56549197 8.93610678 8 7 C-0.70138803 5.5941635 -6.43649264 8.24893962 -12.375 14.5 Z " fill="#A8B3FF" transform="translate(47,24)"/>
<path d="M0 0 C2.0625 1.625 2.0625 1.625 4 4 C3.6875 7 3.6875 7 3 10 C3.226875 10.70125 3.45375 11.4025 3.6875 12.125 C3.790625 12.74375 3.89375 13.3625 4 14 C2.0625 16.25 2.0625 16.25 0 18 C-2.6646869 14.95464354 -3.41194472 13.03928889 -3.375 9 C-3.38273437 8.154375 -3.39046875 7.30875 -3.3984375 6.4375 C-2.9291142 3.56634568 -1.89489101 2.16558973 0 0 Z " fill="#A9B9FF" transform="translate(42,41)"/>
<path d="M0 0 C1.4540625 0.0309375 1.4540625 0.0309375 2.9375 0.0625 C2.66358098 3.3495282 2.11918017 4.85243231 -0.0625 7.375 C-4.13344368 9.66490582 -7.49631483 9.42063217 -12.0625 9.0625 C-11.4375 6.75 -11.4375 6.75 -10.0625 4.0625 C-7 2.3125 -7 2.3125 -4.0625 1.0625 C-3.0625 0.0625 -3.0625 0.0625 0 0 Z " fill="#CDACFF" transform="translate(58.0625,51.9375)"/>
<path d="M0 0 C4.56618517 -0.35813217 7.92905632 -0.60240582 12 1.6875 C14.18168017 4.21006769 14.72608098 5.7129718 15 9 C10.45430898 9.30993348 8.434771 8.97680153 5 6 C4.278125 5.690625 3.55625 5.38125 2.8125 5.0625 C1 4 1 4 0.38671875 1.93359375 C0.25910156 1.29550781 0.13148437 0.65742187 0 0 Z " fill="#8CBFFF" transform="translate(46,39)"/>
<path d="M0 0 C1.4370809 -0.05422947 2.87475462 -0.09289723 4.3125 -0.125 C5.11300781 -0.14820313 5.91351563 -0.17140625 6.73828125 -0.1953125 C9 0 9 0 12 2 C11.67 2.66 11.34 3.32 11 4 C7.7 4 4.4 4 1 4 C0.67 2.68 0.34 1.36 0 0 Z " fill="#73C0FF" transform="translate(46,39)"/>
<path d="M0 0 C-0.66 1.65 -1.32 3.3 -2 5 C-2.99 5 -3.98 5 -5 5 C-5.66 3.35 -6.32 1.7 -7 0 C-2.25 -1.125 -2.25 -1.125 0 0 Z " fill="#C0ACFF" transform="translate(46,53)"/>
<path d="M0 0 C1.37562854 1.28965176 2.70766393 2.62689293 4 4 C4 4.66 4 5.32 4 6 C1.69 6 -0.62 6 -3 6 C-1.125 1.125 -1.125 1.125 0 0 Z " fill="#8ABBFF" transform="translate(42,41)"/>
<path d="M0 0 C0 0.66 0 1.32 0 2 C-2.40545638 3.20272819 -3.94996953 3.10071472 -6.625 3.0625 C-7.85089844 3.04896484 -7.85089844 3.04896484 -9.1015625 3.03515625 C-10.04128906 3.01775391 -10.04128906 3.01775391 -11 3 C-7.65817252 -1.0165182 -4.96805907 -0.24433077 0 0 Z " fill="#DFACFF" transform="translate(57,58)"/>
<path d="M0 0 C1.98 0 3.96 0 6 0 C5.67 1.65 5.34 3.3 5 5 C4.67 4.34 4.34 3.68 4 3 C2.02 3.33 0.04 3.66 -2 4 C-1.34 2.68 -0.68 1.36 0 0 Z " fill="#BDB2FF" transform="translate(55,52)"/>
</svg>
