<svg xmlns="http://www.w3.org/2000/svg" width="100" height="100"><path fill="#B8B4FE" d="M82 51c2.147 2.463 3 3.74 3 7l3.188-.812C92 57 92 57 94.812 59.125c2.932 3.852 4.33 6.106 3.938 11C98 73 98 73 96 76l1.563 1.563C99 80 99 80 99.063 83.313 97.719 87.976 95.37 90.609 92 94l-3.375-1c-3.32-1.089-3.32-1.089-5.625-1l.125 2.875C83 98 83 98 81 100c-3.04.195-3.04.195-6.625.125l-3.602-.055L68 100l-3-6-3.25.25c-4.425-.295-4.856-1.164-7.75-4.25-2.585-.5-2.585-.5-5 0l-2 2c-8.68.452-17.566-2.072-24.437-7.437-4.74-4.74-6.153-8.51-6.625-15.126.09-3.517.995-5.612 3.062-8.437 3.754-2.746 6.34-3.364 10.957-3.293l3.37.03 3.486.075 3.544.042A935 935 0 0 1 49 58l1 3c3.795-.968 3.795-.968 7-3 3.438-.187 3.438-.187 7 0l2 2 .375-2.25c.59-2.599 1.188-4.514 2.625-6.75 4.405-1.468 8.512-1.126 13 0"/><path fill="#8352FD" d="M60.375 9.5C65.518 12.496 69.135 17.406 71 23c.12 1.977.175 3.957.188 5.938l.042 3.152c-.228 2.89-.624 4.52-2.23 6.91a206 206 0 0 1-5 2 381 381 0 0 0-6 5 174 174 0 0 1-4 2l-1 2c-6.475.597-10.944.268-16.312-3.574-4.628-3.91-7.308-8.218-8.024-14.258C28.578 25.629 28.785 20.242 33 15c7.634-7.02 17.41-9.875 27.375-5.5"/><path fill="#EFEEFE" d="m29.957 57.707 3.37.03 3.486.075 3.544.042A935 935 0 0 1 49 58l1 3h5l-1 2.688c-.921 3.051-1.35 5.167-1 8.312l2 2c-.312 1.75-.312 1.75-1 4-.859 4.036-1.06 6.997 0 11l-2.937.938c-2.904.757-2.904.757-4.063 2.062-8.834.08-17.389-1.934-24.437-7.437-4.74-4.74-6.153-8.51-6.625-15.126.09-3.517.995-5.612 3.062-8.437 3.754-2.746 6.34-3.364 10.957-3.293"/><path fill="#DCDAFE" d="M48 17c2.856 2.036 5.223 4.574 7.688 7.063l2.048 1.95C62.208 30.478 64.03 33.742 65 40c-7.114 6.704-7.114 6.704-12 7l-1-2-3.625-.75c-5.766-1.317-9.686-4.645-12.875-9.562-.87-4.679-.87-9.383 1.617-13.567C40.697 16.727 42.553 15.42 48 17"/><path fill="#8554FD" d="m29.957 57.707 3.37.03 3.486.075 3.544.042A935 935 0 0 1 49 58c.625 2.375.625 2.375 1 5-2.56 2.56-3.634 2.285-7.191 2.379l-3.112.103-3.26.08q-3.189.09-6.378.192l-2.866.072C25.024 65.76 25.024 65.76 24 67c-.34 3.938-.072 7.551 2.324 10.79C32.434 82.956 40.38 84.312 48 86c.625 1.875.625 1.875 1 4-2 2-2 2-4.25 2.117C35.151 91.272 26.93 88.93 20 82c-3.625-4.375-4.142-9.46-4-15 1.204-3.679 2.132-5.365 5.245-7.642 3.174-1.564 5.192-1.705 8.712-1.651"/><path fill="#8354FE" d="M82 51c2.147 2.463 3 3.74 3 7l3.188-.812C92 57 92 57 94.812 59.125c2.932 3.852 4.33 6.106 3.938 11C98 73 98 73 96 76l1.563 1.563C99 80 99 80 99.063 83.313 97.719 87.976 95.37 90.609 92 94l-7-2c.25-2.375.25-2.375 1-5 2.063-1.312 2.063-1.312 4-2l-.437-2.062L89 80l-.687-3.562c-.321-3.526-.078-4.53 1.687-7.438v-3l-1.863-.332-2.45-.48-2.425-.458C80.716 63.908 79.596 63.133 78 61v-3H68l-1-5c4.624-3.853 9.442-3.612 15-2"/><path fill="#8353FD" d="M60.75 57.625 64 58l1 5-2.437 1.313C59.722 65.805 59.722 65.805 59 69l2 3c.266 1.938.266 1.938.25 4l.016 2.063C61 80 61 80 59 83c.308 2.153.308 2.153 1 4l3.75-.25c3.23-.006 4.03.09 6.75 2.063C72 91 72 91 72 94h10l1 4c-2 2-2 2-5.04 2.195l-3.585-.07-3.602-.055L68 100l-3-6-3.25.25C58 94 58 94 55.688 92.375c-2.703-3.804-3.844-6.816-3.376-11.5.412-1.72.859-3.433 1.376-5.125L54 74l-2-2c.22-6.602 1.03-13.603 8.75-14.375"/><path fill="#8455FE" d="m79 67 3 2v2h2c.44 4.4.251 6.568-2 10.438-3.506 2.994-3.506 2.994-7.062 3.187C71 84 71 84 68.5 82.563 66.264 78.743 66.24 75.315 67 71c2.95-5.04 6.694-4.505 12-4"/><path fill="#A7A3FE" d="M45 15c5.446-.445 9.845-.43 14.488 2.688C62.27 20.102 64.053 22.48 65 26c.02 3.735-.388 7.32-1 11h-1l-.562-2.547C60.516 29.837 57.588 27.15 54 23.75l-1.945-1.89a601 601 0 0 0-3.575-3.443A223 223 0 0 1 45 15"/><path fill="#8F87FE" d="M52 15c5.76 1.473 8.986 4.026 12.313 8.938.913 2.739.817 5.197.687 8.062h-1l-.68-2.668c-1.54-3.886-3.412-5.798-6.445-8.644A406 406 0 0 1 52 16z"/><path fill="#B9B4FF" d="m74 73 3 1v4h-4z"/></svg>