<?xml version="1.0" encoding="UTF-8"?>
<svg version="1.1" xmlns="http://www.w3.org/2000/svg" width="100" height="100">
<path d="M0 0 C2.14713594 2.46289123 3 3.74033028 3 7 C4.051875 6.731875 5.10375 6.46375 6.1875 6.1875 C10 6 10 6 12.8125 8.125 C15.74365991 11.97738159 17.14153766 14.23077926 16.75 19.125 C16 22 16 22 14 25 C14.515625 25.515625 15.03125 26.03125 15.5625 26.5625 C17 29 17 29 17.0625 32.3125 C15.71879196 36.97595733 13.37012374 39.60926389 10 43 C8.329375 42.505 8.329375 42.505 6.625 42 C3.30540283 40.911357 3.30540283 40.911357 1 41 C1.04125 41.94875 1.0825 42.8975 1.125 43.875 C1 47 1 47 -1 49 C-4.0390625 49.1953125 -4.0390625 49.1953125 -7.625 49.125 C-9.40777344 49.09792969 -9.40777344 49.09792969 -11.2265625 49.0703125 C-12.59941406 49.03550781 -12.59941406 49.03550781 -14 49 C-14.99 47.02 -15.98 45.04 -17 43 C-18.0725 43.0825 -19.145 43.165 -20.25 43.25 C-24.67497033 42.95500198 -25.10647222 42.08642963 -28 39 C-30.58517587 38.49940084 -30.58517587 38.49940084 -33 39 C-33.66 39.66 -34.32 40.32 -35 41 C-43.67981124 41.4520735 -52.56560982 38.9279906 -59.4375 33.5625 C-64.17616722 28.82383278 -65.58994811 25.05322652 -66.0625 18.4375 C-65.9723132 14.92021475 -65.06728687 12.82529205 -63 10 C-59.24596993 7.25439345 -56.65968485 6.63600485 -52.04296875 6.70703125 C-50.93115234 6.71669922 -49.81933594 6.72636719 -48.67382812 6.73632812 C-47.52333984 6.76146484 -46.37285156 6.78660156 -45.1875 6.8125 C-44.01767578 6.82603516 -42.84785156 6.83957031 -41.64257812 6.85351562 C-38.761248 6.88879722 -35.88086096 6.9380972 -33 7 C-32.505 8.485 -32.505 8.485 -32 10 C-28.20452079 9.03223902 -28.20452079 9.03223902 -25 7 C-21.5625 6.8125 -21.5625 6.8125 -18 7 C-17.34 7.66 -16.68 8.32 -16 9 C-15.814375 7.88625 -15.814375 7.88625 -15.625 6.75 C-15.03438237 4.15128245 -14.43713552 2.23554414 -13 0 C-8.5948454 -1.46838487 -4.48830818 -1.12585508 0 0 Z " fill="#B8B4FE" transform="translate(82,51)"/>
<path d="M0 0 C5.14338337 2.9958329 8.76038445 7.90615335 10.625 13.5 C10.74453769 15.47654185 10.80026196 17.45738456 10.8125 19.4375 C10.82667969 20.47777344 10.84085938 21.51804687 10.85546875 22.58984375 C10.62651171 25.4809115 10.23149904 27.10970732 8.625 29.5 C6.96802621 30.19040574 5.2994239 30.8530635 3.625 31.5 C1.6082342 33.14633943 -0.39239574 34.81267723 -2.375 36.5 C-3.70108822 37.18096422 -5.03186601 37.85330586 -6.375 38.5 C-6.705 39.16 -7.035 39.82 -7.375 40.5 C-13.8502807 41.0971058 -18.31945352 40.76783065 -23.6875 36.92578125 C-28.31471237 33.01621525 -30.9945155 28.70757279 -31.7109375 22.66796875 C-31.79663684 16.12910939 -31.58958757 10.74196625 -27.375 5.5 C-19.74088781 -1.51969673 -9.9653111 -4.37548476 0 0 Z " fill="#8352FD" transform="translate(60.375,9.5)"/>
<path d="M0 0 C1.11181641 0.00966797 2.22363281 0.01933594 3.36914062 0.02929688 C4.51962891 0.05443359 5.67011719 0.07957031 6.85546875 0.10546875 C8.02529297 0.11900391 9.19511719 0.13253906 10.40039062 0.14648438 C13.28172075 0.18176597 16.16210779 0.23106595 19.04296875 0.29296875 C19.53796875 1.77796875 19.53796875 1.77796875 20.04296875 3.29296875 C21.69296875 3.29296875 23.34296875 3.29296875 25.04296875 3.29296875 C24.71296875 4.17984375 24.38296875 5.06671875 24.04296875 5.98046875 C23.12161068 9.03246737 22.69347173 11.14749555 23.04296875 14.29296875 C23.70296875 14.95296875 24.36296875 15.61296875 25.04296875 16.29296875 C24.73046875 18.04296875 24.73046875 18.04296875 24.04296875 20.29296875 C23.18430972 24.32866617 22.98324464 27.28956654 24.04296875 31.29296875 C22.58890625 31.75703125 22.58890625 31.75703125 21.10546875 32.23046875 C18.20231083 32.98820217 18.20231083 32.98820217 17.04296875 34.29296875 C8.20931153 34.37312898 -0.34569794 32.35911446 -7.39453125 26.85546875 C-12.13319847 22.11680153 -13.54697936 18.34619527 -14.01953125 11.73046875 C-13.92934445 8.2131835 -13.02431812 6.1182608 -10.95703125 3.29296875 C-7.20300118 0.5473622 -4.6167161 -0.0710264 0 0 Z " fill="#EFEEFE" transform="translate(29.95703125,57.70703125)"/>
<path d="M0 0 C2.85553207 2.03550053 5.22303345 4.5741298 7.6875 7.0625 C8.36361328 7.70638672 9.03972656 8.35027344 9.73632812 9.01367188 C14.20839473 13.47683884 16.030145 16.74129546 17 23 C9.88610478 29.70387244 9.88610478 29.70387244 5 30 C4.67 29.34 4.34 28.68 4 28 C2.80375 27.7525 1.6075 27.505 0.375 27.25 C-5.39061819 25.93303326 -9.31051129 22.60462842 -12.5 17.6875 C-13.37032734 13.00949052 -13.37024862 8.30450904 -10.8828125 4.12109375 C-7.30372642 -0.27334626 -5.44732165 -1.58036114 0 0 Z " fill="#DCDAFE" transform="translate(48,17)"/>
<path d="M0 0 C1.11181641 0.00966797 2.22363281 0.01933594 3.36914062 0.02929688 C4.51962891 0.05443359 5.67011719 0.07957031 6.85546875 0.10546875 C8.02529297 0.11900391 9.19511719 0.13253906 10.40039062 0.14648438 C13.28172075 0.18176597 16.16210779 0.23106595 19.04296875 0.29296875 C19.66796875 2.66796875 19.66796875 2.66796875 20.04296875 5.29296875 C17.4829016 7.8530359 16.40882898 7.57772898 12.8515625 7.671875 C11.31145508 7.72311523 11.31145508 7.72311523 9.74023438 7.77539062 C8.12665039 7.8150293 8.12665039 7.8150293 6.48046875 7.85546875 C4.35404661 7.91513552 2.22772951 7.97872005 0.1015625 8.046875 C-1.31684937 8.08276733 -1.31684937 8.08276733 -2.76391602 8.11938477 C-4.93272924 8.05229688 -4.93272924 8.05229688 -5.95703125 9.29296875 C-6.29693865 13.23092029 -6.02952886 16.84398968 -3.6328125 20.08203125 C2.47619452 25.25017168 10.42261598 26.60617191 18.04296875 28.29296875 C18.66796875 30.16796875 18.66796875 30.16796875 19.04296875 32.29296875 C17.04296875 34.29296875 17.04296875 34.29296875 14.79296875 34.41015625 C5.19411594 33.56480274 -3.02726219 31.22273781 -9.95703125 24.29296875 C-13.58238252 19.91754481 -14.09910543 14.83386192 -13.95703125 9.29296875 C-12.75300912 5.61401225 -11.82485714 3.92767556 -8.7121582 1.65112305 C-5.53842221 0.08661323 -3.52021189 -0.05415711 0 0 Z " fill="#8554FD" transform="translate(29.95703125,57.70703125)"/>
<path d="M0 0 C2.14713594 2.46289123 3 3.74033028 3 7 C4.051875 6.731875 5.10375 6.46375 6.1875 6.1875 C10 6 10 6 12.8125 8.125 C15.74365991 11.97738159 17.14153766 14.23077926 16.75 19.125 C16 22 16 22 14 25 C14.515625 25.515625 15.03125 26.03125 15.5625 26.5625 C17 29 17 29 17.0625 32.3125 C15.71879196 36.97595733 13.37012374 39.60926389 10 43 C7.69 42.34 5.38 41.68 3 41 C3.25 38.625 3.25 38.625 4 36 C6.0625 34.6875 6.0625 34.6875 8 34 C7.855625 33.319375 7.71125 32.63875 7.5625 31.9375 C7.376875 30.968125 7.19125 29.99875 7 29 C6.773125 27.824375 6.54625 26.64875 6.3125 25.4375 C5.99198235 21.9118059 6.23470046 20.90755218 8 18 C8 17.01 8 16.02 8 15 C7.07767578 14.83564453 7.07767578 14.83564453 6.13671875 14.66796875 C5.32847656 14.50941406 4.52023438 14.35085937 3.6875 14.1875 C2.48673828 13.96126953 2.48673828 13.96126953 1.26171875 13.73046875 C-1.28415813 12.90822527 -2.40402551 12.13313096 -4 10 C-4 9.01 -4 8.02 -4 7 C-7.3 7 -10.6 7 -14 7 C-14.33 5.35 -14.66 3.7 -15 2 C-10.37608987 -1.85325844 -5.55831975 -1.61152673 0 0 Z " fill="#8354FE" transform="translate(82,51)"/>
<path d="M0 0 C1.60875 0.185625 1.60875 0.185625 3.25 0.375 C3.58 2.025 3.91 3.675 4.25 5.375 C3.0434375 6.0246875 3.0434375 6.0246875 1.8125 6.6875 C-1.02846354 8.17974002 -1.02846354 8.17974002 -1.75 11.375 C-0.76 12.86 -0.76 12.86 0.25 14.375 C0.515625 16.3125 0.515625 16.3125 0.5 18.375 C0.50515625 19.055625 0.5103125 19.73625 0.515625 20.4375 C0.25 22.375 0.25 22.375 -1.75 25.375 C-1.44159401 27.52774948 -1.44159401 27.52774948 -0.75 29.375 C0.4875 29.2925 1.725 29.21 3 29.125 C6.23036785 29.1192724 7.0292364 29.21494639 9.75 31.1875 C11.25 33.375 11.25 33.375 11.25 36.375 C14.55 36.375 17.85 36.375 21.25 36.375 C21.58 37.695 21.91 39.015 22.25 40.375 C20.25 42.375 20.25 42.375 17.2109375 42.5703125 C16.02757813 42.54710937 14.84421875 42.52390625 13.625 42.5 C11.84222656 42.47292969 11.84222656 42.47292969 10.0234375 42.4453125 C8.65058594 42.41050781 8.65058594 42.41050781 7.25 42.375 C6.26 40.395 5.27 38.415 4.25 36.375 C3.1775 36.4575 2.105 36.54 1 36.625 C-2.75 36.375 -2.75 36.375 -5.0625 34.75 C-7.76532141 30.94602912 -8.90590866 27.93408658 -8.4375 23.25 C-8.02613641 21.52975228 -7.57936118 19.81654567 -7.0625 18.125 C-6.959375 17.5475 -6.85625 16.97 -6.75 16.375 C-7.41 15.715 -8.07 15.055 -8.75 14.375 C-8.52992425 7.77272764 -7.71928303 0.7719283 0 0 Z " fill="#8353FD" transform="translate(60.75,57.625)"/>
<path d="M0 0 C0.99 0.66 1.98 1.32 3 2 C3 2.66 3 3.32 3 4 C3.66 4 4.32 4 5 4 C5.43994133 8.39941328 5.25137777 10.56794445 3 14.4375 C-0.50601178 17.4322184 -0.50601178 17.4322184 -4.0625 17.625 C-8 17 -8 17 -10.5 15.5625 C-12.73570183 11.74317604 -12.76004105 8.31481639 -12 4 C-9.04952343 -1.04039748 -5.30577115 -0.50531154 0 0 Z " fill="#8455FE" transform="translate(79,67)"/>
<path d="M0 0 C5.44602979 -0.44457386 9.84547333 -0.42935007 14.48828125 2.6875 C17.26900058 5.10176795 19.05283474 7.48012908 20 11 C20.0201347 14.73498697 19.61234171 18.31929387 19 22 C18.67 22 18.34 22 18 22 C17.814375 21.15953125 17.62875 20.3190625 17.4375 19.453125 C15.51590597 14.83712195 12.58724758 12.14996156 9 8.75 C8.35804687 8.12609375 7.71609375 7.5021875 7.0546875 6.859375 C5.86779539 5.70724542 4.67683077 4.55928522 3.48046875 3.41699219 C2.30593947 2.29282202 1.1496255 1.1496255 0 0 Z " fill="#A7A3FE" transform="translate(45,15)"/>
<path d="M0 0 C5.75994895 1.47347531 8.98568163 4.02648241 12.3125 8.9375 C13.22558643 11.6767593 13.13022431 14.13506519 13 17 C12.67 17 12.34 17 12 17 C11.66355469 15.67935547 11.66355469 15.67935547 11.3203125 14.33203125 C9.78034376 10.44566044 7.90770217 8.53443836 4.875 5.6875 C3.23864139 4.13689956 1.6103134 2.57763177 0 1 C0 0.67 0 0.34 0 0 Z " fill="#8F87FE" transform="translate(52,15)"/>
<path d="M0 0 C0.99 0.33 1.98 0.66 3 1 C3 2.32 3 3.64 3 5 C1.68 5 0.36 5 -1 5 C-0.67 3.35 -0.34 1.7 0 0 Z " fill="#B9B4FF" transform="translate(74,73)"/>
</svg>
